<svg id="Layer_35" enable-background="new 0 0 64 64" height="512" viewBox="0 0 64 64" width="512" xmlns="http://www.w3.org/2000/svg" xmlns:xlink="http://www.w3.org/1999/xlink"><linearGradient id="SVGID_1_" gradientUnits="userSpaceOnUse" x1="32" x2="32" y1="63" y2="1"><stop offset="0" stop-color="#9f2fff"/><stop offset="1" stop-color="#0bb1d3"/></linearGradient><path d="m55.311 46.435 1.689-.803v-5.264l-1.689-.803c-.001-.004-.003-.008-.005-.012l.626-1.763-3.722-3.722-1.763.626c-.004-.001-.008-.003-.012-.005l-.803-1.689h-5.264l-.803 1.689c-.004.001-.008.003-.012.005l-1.763-.626-3.722 3.722.626 1.763c-.001.004-.003.008-.005.012l-1.689.803v5.264l1.689.803c.001.004.003.008.005.012l-.626 1.763 3.722 3.722 1.763-.626c.004.001.008.003.012.005l.803 1.689h5.264l.803-1.689c.004-.001.008-.003.012-.005l1.763.626 3.722-3.722-.626-1.763c.001-.004.003-.008.005-.012zm-.311-2.067-1.28.609-.14.388c-.076.209-.16.415-.254.615l-.177.374.475 1.336-1.935 1.935-1.336-.475-.374.177c-.2.095-.405.179-.615.254l-.388.14-.608 1.279h-2.736l-.609-1.28-.388-.14c-.209-.076-.415-.16-.615-.254l-.374-.177-1.336.475-1.935-1.935.475-1.336-.177-.374c-.095-.2-.179-.405-.254-.615l-.14-.388-1.279-.608v-2.736l1.28-.609.14-.388c.076-.209.16-.415.254-.615l.177-.374-.475-1.336 1.935-1.935 1.336.475.374-.177c.2-.095.405-.179.615-.254l.388-.14.608-1.279h2.736l.609 1.28.388.14c.209.076.415.16.615.254l.374.177 1.336-.475 1.935 1.935-.475 1.336.177.374c.095.2.179.405.254.615l.14.388 1.279.608zm-8-6.368c-2.757 0-5 2.243-5 5s2.243 5 5 5 5-2.243 5-5-2.243-5-5-5zm0 8c-1.654 0-3-1.346-3-3s1.346-3 3-3 3 1.346 3 3-1.346 3-3 3zm13.657-18.219c.213-.555.343-1.152.343-1.781v-20c0-2.757-2.243-5-5-5h-38c-2.757 0-5 2.243-5 5v19.295c-2.888.863-5 3.54-5 6.705 0 2.307 1.127 4.351 2.854 5.627-5.702 1.772-9.854 7.096-9.854 13.373v3c0 2.757 2.243 5 5 5h1v4h16v-4h1c2.757 0 5-2.243 5-5v-3c0-6.277-4.152-11.601-9.854-13.373 1.727-1.276 2.854-3.32 2.854-5.627 0-.34-.033-.672-.08-1h9.192c-.067.329-.112.662-.112 1v22c0 2.757 2.243 5 5 5h22c2.757 0 5-2.243 5-5v-22c0-1.74-.913-3.317-2.343-4.219zm-39.657 33.219h-12v-2h4.5c1.93 0 3.5-1.57 3.5-3.5s-1.57-3.5-3.5-3.5h-4.5v-2h12zm6-10v3c0 1.654-1.346 3-3 3h-1v-9h-16v6h6.5c.827 0 1.5.673 1.5 1.5s-.673 1.5-1.5 1.5h-7.5c-1.654 0-3-1.346-3-3v-3c0-4.401 2.389-8.246 5.931-10.334l2.678 7.14 3.391-3.392 3.391 3.391 2.678-7.14c3.542 2.089 5.931 5.934 5.931 10.335zm-16.043-10.628 2.629 2.628-1.195 1.195zm5.457 2.628 2.629-2.628-1.434 3.823zm.937-3.766-2.351 2.352-2.351-2.351c.76-.152 1.546-.235 2.351-.235s1.591.083 2.351.234zm-2.351-2.234c-2.757 0-5-2.243-5-5s2.243-5 5-5 5 2.243 5 5-2.243 5-5 5zm.008-12-.008-19c0-1.654 1.346-3 3-3h38c1.654 0 3 1.346 3 3v20c0 1.654-1.346 3-3 3h-34.685c-1.125-2.358-3.525-3.996-6.307-4zm45.992 29c0 1.654-1.346 3-3 3h-22c-1.654 0-3-1.346-3-3v-22c0-.345.08-.678.194-1h22.806c1.41 0 2.68-.592 3.59-1.534.86.54 1.41 1.488 1.41 2.534zm-11.068-38.92c.043-.357.068-.718.068-1.08 0-4.962-4.038-9-9-9-3.553 0-6.722 2.069-8.175 5.242-.593-.161-1.204-.242-1.825-.242-3.161 0-5.865 2.08-6.719 5.047-2.97.357-5.281 2.888-5.281 5.953 0 3.309 2.691 6 6 6h24c3.309 0 6-2.691 6-6 0-2.991-2.202-5.47-5.068-5.92zm-.932 9.92h-24c-2.206 0-4-1.794-4-4s1.794-4 4-4 4 1.794 4 4h2c0-2.841-1.986-5.221-4.642-5.839.738-1.877 2.546-3.161 4.642-3.161.691 0 1.365.141 2.002.42l1.008.441.343-1.045c.946-2.88 3.617-4.816 6.647-4.816 3.86 0 7 3.14 7 7 0 .373-.039.741-.097 1.105-2.786.518-4.903 2.962-4.903 5.895h2c0-2.206 1.794-4 4-4s4 1.794 4 4-1.794 4-4 4zm8 28h2v2h-2zm-22 0h2v2h-2zm2-18h-2v-2h2zm-18-28h-2v-2h2zm0 4h-2v-2h2zm0 4h-2v-2h2zm38 0h-2v-2h2zm0-4h-2v-2h2zm0-4h-2v-2h2zm-16 4v-2c2.757 0 5 2.243 5 5h-2c0-1.654-1.346-3-3-3z" fill="url(#SVGID_1_)"/></svg>