<?xml version="1.0" encoding="UTF-8" standalone="no"?>
<!DOCTYPE svg PUBLIC "-//W3C//DTD SVG 1.1//EN" "http://www.w3.org/Graphics/SVG/1.1/DTD/svg11.dtd">
<svg width="100%" height="100%" viewBox="0 0 48 48" version="1.1" xmlns="http://www.w3.org/2000/svg" xmlns:xlink="http://www.w3.org/1999/xlink" xml:space="preserve" xmlns:serif="http://www.serif.com/" style="fill-rule:evenodd;clip-rule:evenodd;stroke-linejoin:round;stroke-miterlimit:2;">
    <g transform="matrix(1.51562,0,0,1.51562,0.484848,2.85487)">
        <g id="Icons---SignUp--monochromatic--bitbucket-Copy" serif:id="Icons-/-SignUp-/monochromatic/-bitbucket-Copy">
            <g id="bitbucket">
                <g>
                    <path id="Path" d="M12.275,18.492L18.754,18.492L20.318,9.363L10.553,9.363L12.275,18.492Z" style="fill:none;"/>
                    <path id="Shape" d="M1.007,0C0.713,-0.004 0.433,0.123 0.241,0.345C0.049,0.568 -0.034,0.863 0.013,1.153L4.233,26.774C4.342,27.422 4.899,27.897 5.556,27.903L25.803,27.903C26.295,27.909 26.718,27.554 26.797,27.068L31.017,1.158C31.064,0.868 30.981,0.573 30.789,0.35C30.597,0.128 30.317,0.001 30.023,0.005L1.007,0ZM18.779,18.517L12.316,18.517L10.566,9.376L20.345,9.376L18.779,18.517Z" style="fill:white;fill-rule:nonzero;"/>
                </g>
            </g>
        </g>
    </g>
</svg>
