<svg id="Layer_5" enable-background="new 0 0 64 64" height="512" viewBox="0 0 64 64" width="512" xmlns="http://www.w3.org/2000/svg" xmlns:xlink="http://www.w3.org/1999/xlink"><linearGradient id="SVGID_1_" gradientUnits="userSpaceOnUse" x1="32" x2="32" y1="63" y2="1"><stop offset="0" stop-color="#9f2fff"/><stop offset="1" stop-color="#0bb1d3"/></linearGradient><path d="m60 55h-.184c.112-.314.184-.648.184-1v-12c0-1.654-1.346-3-3-3h-6.184c.112-.314.184-.648.184-1v-12c0-1.654-1.346-3-3-3h-8.089l-6.261-12h1.35v-10h-6v10h1.318l-6.521 12h-7.797c-1.654 0-3 1.346-3 3v12c0 .352.072.686.184 1h-6.184c-1.654 0-3 1.346-3 3v12c0 .352.072.686.184 1h-.184c-1.654 0-3 1.346-3 3v2c0 1.654 1.346 3 3 3h56c1.654 0 3-1.346 3-3v-2c0-1.654-1.346-3-3-3zm-2-13v12c0 .552-.448 1-1 1h-.394l-4.174-8h1.568v-6h3c.552 0 1 .448 1 1zm-34 12v-12c0-.552.448-1 1-1h3v6h8v-6h3c.552 0 1 .448 1 1v12c0 .552-.448 1-1 1h-14c-.552 0-1-.448-1-1zm15-28.421 1.785 3.421h-1.785zm2.829 5.421 4.174 8h-3.003-4-5c-.552 0-1-.448-1-1v-12c0-.551.448-1 1-1h3v6zm9.56 14-2.087-4h2.698v4zm-17.389-4v4h-4v-4zm8 13v-12c0-.552.448-1 1-1h4.046l7.304 14h-11.35c-.552 0-1-.448-1-1zm6-29c.552 0 1 .449 1 1v12c0 .469-.33.845-.766.953l-7.28-13.953zm-17-22h2v6h-2zm.982 9.128 5.673 10.872h-3.655c-.771 0-1.468.301-2 .78-.532-.48-1.229-.78-2-.78h-3.927zm-10.982 12.872h4v4h-4zm-6 13v-12c0-.551.448-1 1-1h3v6h8v-6h3c.552 0 1 .449 1 1v12c0 .552-.448 1-1 1h-5-4-5c-.552 0-1-.448-1-1zm-3 3h4v4h-4zm-6 13v-12c0-.552.448-1 1-1h3v6h8v-6h3c.552 0 1 .448 1 1v12c0 .552-.448 1-1 1h-14c-.552 0-1-.448-1-1zm-3 6v-2c0-.552.448-1 1-1h3 14 4 14 4 12v4h-51c-.552 0-1-.448-1-1zm58 0c0 .552-.448 1-1 1h-3v-4h3c.552 0 1 .448 1 1z" fill="url(#SVGID_1_)"/></svg>