<svg id="Layer_5" enable-background="new 0 0 64 64" height="512" viewBox="0 0 64 64" width="512" xmlns="http://www.w3.org/2000/svg" xmlns:xlink="http://www.w3.org/1999/xlink"><linearGradient id="SVGID_1_" gradientUnits="userSpaceOnUse" x1="32" x2="32" y1="63" y2="1"><stop offset="0" stop-color="#9f2fff"/><stop offset="1" stop-color="#0bb1d3"/></linearGradient><path d="m45.707 28.293 3.707 3.707-3.707 3.707-1.414-1.414 2.293-2.293-2.293-2.293zm-7.414 0-3.707 3.707 3.707 3.707 1.414-1.414-2.293-2.293 2.293-2.293zm2.712 8.607 1.99.199 1-10-1.99-.199zm11.995-4.9c0 6.065-4.935 11-11 11s-11-4.935-11-11 4.935-11 11-11 11 4.935 11 11zm-2 0c0-4.963-4.038-9-9-9s-9 4.037-9 9 4.038 9 9 9 9-4.037 9-9zm12-28v34c0 1.654-1.346 3-3 3h-3.586l5.464 5.465c.724.723 1.122 1.683 1.122 2.707 0 2.11-1.717 3.828-3.829 3.828-1.022 0-1.983-.398-2.707-1.121l-6.93-6.93c-.801.468-1.649.861-2.535 1.176v13.875c0 1.654-1.346 3-3 3h-39.999c-1.654 0-3-1.346-3-3v-34c0-1.654 1.346-3 3-3h13v-19c0-1.654 1.346-3 3-3h40c1.654 0 3 1.346 3 3zm-44 0v5h42v-5c0-.552-.449-1-1-1h-40c-.551 0-1 .448-1 1zm-8 49h14v-8h-2v2h-12zm10-12h-1c-1.654 0-3-1.346-3-3v-1h-10v8h14zm-18-15v5h14v-6h-13c-.551 0-1 .448-1 1zm42 20.698c-.97.197-1.973.302-3 .302-4.892 0-9.232-2.365-11.972-6h-7.028v2h4v12h-18v-8h-4v-12h12v-2h-14v27c0 .552.449 1 1 1h40c.551 0 1-.448 1-1zm10-14.698c0-7.168-5.832-13-13-13s-13 5.832-13 13 5.832 13 13 13 13-5.832 13-13zm5.465 15.879-6.658-6.658c-.755.964-1.622 1.832-2.586 2.586l6.658 6.658c.345.345.804.535 1.292.535 1.009 0 1.829-.82 1.829-1.828 0-.482-.195-.952-.535-1.293zm.535-9.879v-27h-42v27c0 .552.449 1 1 1h8.744c-1.109-2.092-1.744-4.472-1.744-7 0-8.271 6.729-15 15-15s15 6.729 15 15c0 2.528-.635 4.908-1.744 7h4.744c.551 0 1-.448 1-1zm-38-33h-2v2h2zm8 0h-2v2h2zm-4 0h-2v2h2zm-20 22h-2v2h2zm8 0h-2v2h2zm-4 0h-2v2h2zm-6 32h2v-2h-2zm4 0h18v-2h-18zm20 0h2v-2h-2zm4 0h10v-2h-10zm-4-4h14v-2h-14zm0-4h14v-2h-14zm-8-14h4v-2h-4zm0-4h4v-2h-4zm0-4h4v-2h-4zm0-16h6v12h-6zm2 10h2v-8h-2zm6-8h2v-2h-2zm4 0h26v-2h-26zm20 4h6v-2h-6z" fill="url(#SVGID_1_)"/></svg>