<svg id="Layer_5" enable-background="new 0 0 64 64" height="512" viewBox="0 0 64 64" width="512" xmlns="http://www.w3.org/2000/svg" xmlns:xlink="http://www.w3.org/1999/xlink"><linearGradient id="SVGID_1_" gradientUnits="userSpaceOnUse" x1="32" x2="32" y1="63" y2="1"><stop offset="0" stop-color="#9f2fff"/><stop offset="1" stop-color="#0bb1d3"/></linearGradient><path d="m59.798 42.554 1.48-2.489-5.342-5.342-2.489 1.479c-.317-.147-.637-.281-.956-.4l-.714-2.802h-.777v-12c0-4.088-3.084-7.465-7.048-7.938-.483-6.73-6.1-12.062-12.952-12.062-4.721 0-9.076 2.597-11.355 6.691-1.162-.459-2.384-.691-3.645-.691-5.514 0-10 4.486-10 10 0 .03.005.059.005.09-2.836.476-5.005 2.941-5.005 5.91 0 2.607 1.673 4.824 4 5.65v28.35h30.787l4.278 4.277 2.489-1.479c.317.147.637.281.956.4l.713 2.802h7.555l.713-2.802c.319-.119.639-.253.956-.4l2.489 1.479 5.342-5.342-1.48-2.489c.147-.317.281-.638.4-.956l2.802-.713v-7.555l-2.802-.713c-.119-.318-.253-.638-.4-.955zm-56.798-19.554c0-2.206 1.794-4 4-4s4 1.794 4 4h2c0-2.965-2.164-5.429-4.995-5.909 0-.031-.005-.06-.005-.091 0-4.411 3.589-8 8-8 1.276 0 2.503.298 3.646.886l.929.478.437-.949c1.792-3.897 5.713-6.415 9.988-6.415 5.754 0 10.482 4.443 10.953 10.077-3.917.515-6.953 3.867-6.953 7.923h2c0-3.309 2.691-6 6-6s6 2.691 6 6-2.691 6-6 6h-36c-2.206 0-4-1.794-4-4zm4 6h6v26h-6zm28.278 26h-20.278v-26h28c2.39 0 4.533-1.059 6-2.726v6.726h-4.777l-.713 2.802c-.319.119-.639.253-.956.4l-2.489-1.479-5.342 5.342 1.48 2.489c-.147.317-.281.638-.4.956l-2.803.713v7.555l2.802.713c.119.318.252.639.4.956zm25.722-4.777-2.354.598-.169.528c-.179.56-.415 1.126-.704 1.686l-.254.492 1.246 2.095-3.143 3.143-2.096-1.246-.493.256c-.558.288-1.124.525-1.683.704l-.528.168-.599 2.353h-4.445l-.599-2.354-.528-.168c-.559-.179-1.125-.416-1.683-.704l-.493-.256-2.096 1.246-3.143-3.143 1.246-2.095-.254-.492c-.289-.56-.525-1.126-.704-1.686l-.169-.528-2.355-.597v-4.445l2.354-.598.169-.528c.179-.56.415-1.126.704-1.686l.254-.492-1.246-2.095 3.143-3.143 2.096 1.246.493-.256c.558-.288 1.124-.525 1.683-.704l.528-.168.599-2.354h4.445l.599 2.354.528.168c.559.179 1.125.416 1.683.704l.493.256 2.096-1.246 3.143 3.143-1.246 2.095.254.492c.289.56.525 1.126.704 1.686l.169.528 2.355.597zm-13-11.223c-4.962 0-9 4.037-9 9s4.038 9 9 9 9-4.037 9-9-4.038-9-9-9zm0 16c-3.86 0-7-3.141-7-7s3.14-7 7-7 7 3.141 7 7-3.14 7-7 7zm0-12c-2.757 0-5 2.243-5 5s2.243 5 5 5 5-2.243 5-5-2.243-5-5-5zm0 8c-1.654 0-3-1.346-3-3s1.346-3 3-3 3 1.346 3 3-1.346 3-3 3zm-39-8h2v2h-2zm2-12v2h-2v-2zm-2 8h2v2h-2zm0-4h2v2h-2zm0 16h2v2h-2zm0-4h2v2h-2zm8-16h14v2h-14zm12 4h2v2h-2zm-2 2h-10v-2h10zm-10 2h14v2h-14zm4 4h10v2h-10zm-2 2h-2v-2h2zm-2 2h14v2h-14zm0 4h14v2h-14zm10.61-43.126-.971-1.748c.664-.369 1.374-.652 2.111-.843l.5 1.938c-.573.147-1.125.367-1.64.653zm3.39-.874v-2c4.109 0 7.693 2.776 8.716 6.751l-1.937.498c-.795-3.091-3.583-5.249-6.779-5.249zm-2.707 8.707 1.414-1.414 3.707 3.707-3.707 3.707-1.414-1.414 2.293-2.293zm-8 6-3.707-3.707 3.707-3.707 1.414 1.414-2.293 2.293 2.293 2.293zm5.702 1.393-1.99-.199 1-10 1.99.199zm17.005 1.9v-2c1.103 0 2-.897 2-2h2c0 2.206-1.794 4-4 4zm-27-12c-1.895 0-3.543 1.346-3.92 3.199l-1.96-.398c.565-2.781 3.038-4.801 5.88-4.801z" fill="url(#SVGID_1_)"/></svg>