<svg id="Layer_3" enable-background="new 0 0 64 64" height="512" viewBox="0 0 64 64" width="512" xmlns="http://www.w3.org/2000/svg" xmlns:xlink="http://www.w3.org/1999/xlink"><linearGradient id="SVGID_1_" gradientUnits="userSpaceOnUse" x1="32.214" x2="32.214" y1="63" y2="1"><stop offset="0" stop-color="#9f2fff"/><stop offset="1" stop-color="#0bb1d3"/></linearGradient><path d="m52.126 49.208-8.126-1.083v-.125h-.218c3.952-1.724 6.795-5.515 7.168-10h.05c2.206 0 4-1.794 4-4v-10.901c0-3.325-2.294-6.225-5.498-7.011l-.652-.652c-2.861-2.861-6.663-4.436-10.707-4.436-2.582 0-5.013.653-7.143 1.797v-8.797c0-1.654-1.346-3-3-3h-24c-1.654 0-3 1.346-3 3v12c0 1.654 1.346 3 3 3h8.531l4.292 5.15c.45.54 1.111.85 1.814.85 1.303 0 2.363-1.06 2.363-2.362v-3.638h3.797c-1.144 2.129-1.797 4.561-1.797 7.143v7.857c0 2.206 1.794 4 4 4h.051c.373 4.485 3.216 8.276 7.168 10h-.219v.125l-5 .667v-2.502l-2.563-.891c-.212-.671-.48-1.32-.803-1.94l1.183-2.44-3.834-3.834-2.44 1.183c-.62-.322-1.27-.591-1.94-.803l-.892-2.565h-5.422l-.891 2.563c-.671.212-1.32.48-1.94.803l-2.44-1.183-3.834 3.834 1.183 2.44c-.322.62-.591 1.27-.803 1.94l-2.564.892v5.422l2.563.891c.212.671.48 1.32.803 1.94l-1.183 2.44 3.834 3.834 2.44-1.183c.62.322 1.27.591 1.94.803l.892 2.564h2.283 2.428 46.428l-2.418-6.647c-1.405-3.864-4.809-6.602-8.884-7.145zm-16.126-.603c.961.249 1.962.395 3 .395s2.039-.146 3-.395v.044l-3 3.749-3-3.749zm1.323 4.9-3.69 1.23-1.451-4.351 2.39-.319zm6.105-3.439 2.39.319-1.451 4.351-3.69-1.23zm7.572-14.066v-4c1.103 0 2 .897 2 2s-.897 2-2 2zm-32-19v5.638c0 .308-.445.468-.64.231l-4.891-5.869h-9.469c-.552 0-1-.448-1-1v-12c0-.552.448-1 1-1h24c.552 0 1 .448 1 1v10h.134c-1.192.887-2.247 1.942-3.134 3.134v-.134zm6 17c0-1.103.897-2 2-2v4c-1.103 0-2-.897-2-2zm2-7v3c-.732 0-1.409.212-2 .556v-4.414c0-7.246 5.896-13.142 13.143-13.142 3.51 0 6.811 1.367 9.293 3.85l1.071 1.071.297.06c2.431.486 4.196 2.638 4.196 5.118v7.458c-.591-.345-1.268-.557-2-.557v-3h-1c-3.643 0-7.216-1.253-10.061-3.528l-.939-.753-.939.752c-2.845 2.276-6.418 3.529-10.061 3.529zm2 10v-8.028c3.613-.202 7.118-1.494 10-3.696 2.881 2.202 6.386 3.494 10 3.696v8.028c0 5.514-4.486 10-10 10s-10-4.486-10-10zm-15.289 24-.767-2.21-.513-.136c-.861-.229-1.683-.569-2.442-1.011l-.46-.267-2.104 1.02-1.822-1.822 1.02-2.104-.267-.46c-.441-.76-.781-1.581-1.011-2.442l-.135-.512-2.21-.767v-2.578l2.21-.767.136-.513c.229-.861.569-1.683 1.011-2.442l.267-.46-1.02-2.104 1.822-1.822 2.104 1.02.46-.267c.76-.441 1.581-.781 2.442-1.011l.513-.136.766-2.209h2.578l.767 2.21.513.136c.861.229 1.683.569 2.442 1.011l.46.267 2.104-1.02 1.822 1.822-1.02 2.104.267.46c.441.76.781 1.581 1.011 2.442l.136.513 2.209.766v1.347l-1.126.15c-1.032.137-2.019.418-2.944.82.044-.339.07-.681.07-1.028 0-4.411-3.589-8-8-8s-8 3.589-8 8 3.589 8 8 8c.626 0 1.24-.093 1.84-.235l-1.54 4.235zm4.43-6.903c-.946.585-2.026.903-3.141.903-3.309 0-6-2.691-6-6s2.691-6 6-6 6 2.691 6 6c0 .889-.202 1.742-.581 2.546-.888.716-1.646 1.584-2.278 2.551zm-.713 6.903 1.441-3.964c1.149-3.161 3.935-5.401 7.269-5.846l4.026-.537 2.203 6.611 6.633-2.21 6.633 2.211 2.203-6.611 4.026.537c3.334.444 6.119 2.685 7.269 5.846l1.441 3.963zm15.572-29c0-.552.448-1 1-1s1 .448 1 1-.448 1-1 1-1-.448-1-1zm10 0c0-.552.448-1 1-1s1 .448 1 1-.448 1-1 1-1-.448-1-1zm-4 12c-3.859 0-7-3.141-7-7h2c0 2.757 2.243 5 5 5s5-2.243 5-5h2c0 3.859-3.141 7-7 7zm-31-37c-1.654 0-3 1.346-3 3s1.346 3 3 3 3-1.346 3-3-1.346-3-3-3zm0 4c-.552 0-1-.448-1-1s.448-1 1-1 1 .448 1 1-.448 1-1 1zm8-4c-1.654 0-3 1.346-3 3s1.346 3 3 3 3-1.346 3-3-1.346-3-3-3zm0 4c-.552 0-1-.448-1-1s.448-1 1-1 1 .448 1 1-.448 1-1 1zm11-1c0-1.654-1.346-3-3-3s-3 1.346-3 3 1.346 3 3 3 3-1.346 3-3zm-3 1c-.552 0-1-.448-1-1s.448-1 1-1 1 .448 1 1-.448 1-1 1z" fill="url(#SVGID_1_)"/></svg>