<?xml version="1.0" encoding="iso-8859-1"?>
<!-- Generator: Adobe Illustrator 22.1.0, SVG Export Plug-In . SVG Version: 6.00 Build 0)  -->
<svg xmlns="http://www.w3.org/2000/svg" xmlns:xlink="http://www.w3.org/1999/xlink" version="1.1" id="Layer_1_1_" x="0px" y="0px" viewBox="0 0 64 64" style="enable-background:new 0 0 64 64;" xml:space="preserve" width="512" height="512">
<linearGradient id="SVGID_1_" gradientUnits="userSpaceOnUse" x1="32" y1="63" x2="32" y2="1">
	<stop offset="0" style="stop-color:#9F2FFF"/>
	<stop offset="1" style="stop-color:#0BB1D3"/>
</linearGradient>
<path style="fill:url(#SVGID_1_);" d="M7,43H5v-2h2V43z M11,41H9v2h2V41z M13,49v2h2v-2H13z M9,51h2v-2H9V51z M9,59h2v-2H9V59z   M13,59h2v-2h-2V59z M5,59h2v-2H5V59z M29,41h-2v2h2V41z M33,41h-2v2h2V41z M35,49v2h2v-2H35z M31,51h2v-2h-2V51z M31,59h2v-2h-2V59  z M35,59h2v-2h-2V59z M27,59h2v-2h-2V59z M63,40v20c0,1.654-1.346,3-3,3H48c-1.654,0-3-1.346-3-3V40c0-1.654,1.346-3,3-3h5v-4H33v4  h5c1.654,0,3,1.346,3,3v20c0,1.654-1.346,3-3,3H26c-1.654,0-3-1.346-3-3V40c0-1.654,1.346-3,3-3h5v-4H11v4h5c1.654,0,3,1.346,3,3v20  c0,1.654-1.346,3-3,3H4c-1.654,0-3-1.346-3-3V40c0-1.654,1.346-3,3-3h5v-6h22v-4H15c-4.411,0-8-3.589-8-8  c0-4.271,3.364-7.771,7.582-7.989C15.789,8.026,18.738,6,22,6c0.845,0,1.672,0.132,2.471,0.394C26.917,3.001,30.795,1,35,1  c6.072,0,11.334,4.276,12.663,10.113C48.104,11.038,48.551,11,49,11c4.411,0,8,3.589,8,8s-3.589,8-8,8H33v4h22v6h5  C61.654,37,63,38.346,63,40z M15,25h34c3.309,0,6-2.691,6-6s-2.691-6-6-6c-0.619,0-1.232,0.096-1.825,0.285l-1.13,0.361  l-0.164-1.175C45.127,7.071,40.449,3,35,3c-3.79,0-7.267,1.924-9.301,5.146l-0.463,0.733l-0.791-0.354C23.666,8.177,22.844,8,22,8  c-2.639,0-5.003,1.768-5.751,4.298l-0.221,0.748L15,13c-3.309,0-6,2.691-6,6S11.691,25,15,25z M3,53h14v-6H3V53z M17,60v-5H3v5  c0,0.552,0.448,1,1,1h12C16.552,61,17,60.552,17,60z M16,39H4c-0.552,0-1,0.448-1,1v5h14v-5C17,39.448,16.552,39,16,39z M25,53h14  v-6H25V53z M39,60v-5H25v5c0,0.552,0.448,1,1,1h12C38.552,61,39,60.552,39,60z M38,39H26c-0.552,0-1,0.448-1,1v5h14v-5  C39,39.448,38.552,39,38,39z M47,40v5h14v-5c0-0.552-0.448-1-1-1H48C47.448,39,47,39.448,47,40z M47,47v6h14v-6H47z M61,60v-5H47v5  c0,0.552,0.448,1,1,1h12C60.552,61,61,60.552,61,60z M51,41h-2v2h2V41z M55,41h-2v2h2V41z M59,49h-2v2h2V49z M55,51v-2h-2v2H55z   M53,59h2v-2h-2V59z M57,59h2v-2h-2V59z M49,59h2v-2h-2V59z M28.636,7.636L30.05,9.05c2.73-2.729,7.17-2.729,9.9,0l1.414-1.414  C37.854,4.127,32.146,4.127,28.636,7.636z M53,19c0-2.206-1.794-4-4-4v2c1.103,0,2,0.897,2,2s-0.897,2-2,2v2  C51.206,23,53,21.206,53,19z"/>
</svg>
