<?xml version="1.0" encoding="UTF-8" standalone="no"?>
<!DOCTYPE svg PUBLIC "-//W3C//DTD SVG 1.1//EN" "http://www.w3.org/Graphics/SVG/1.1/DTD/svg11.dtd">
<svg width="100%" height="100%" viewBox="0 0 48 48" version="1.1" xmlns="http://www.w3.org/2000/svg" xmlns:xlink="http://www.w3.org/1999/xlink" xml:space="preserve" xmlns:serif="http://www.serif.com/" style="fill-rule:evenodd;clip-rule:evenodd;stroke-linejoin:round;stroke-miterlimit:2;">
    <g transform="matrix(1.65067,0,0,1.65067,-16.1707,-15.6044)">
        <g id="Icons---SignUp---monochromatic---github" serif:id="Icons-/-SignUp-/-monochromatic-/-github">
            <path id="Shape" d="M24.336,10C16.42,10 10,16.418 10,24.336C10,30.67 14.108,36.044 19.804,37.94C20.52,38.072 20.783,37.629 20.783,37.25C20.783,36.908 20.77,35.779 20.764,34.581C16.776,35.448 15.934,32.889 15.934,32.889C15.282,31.232 14.342,30.792 14.342,30.792C13.042,29.902 14.44,29.92 14.44,29.92C15.88,30.021 16.638,31.398 16.638,31.398C17.917,33.589 19.992,32.956 20.81,32.589C20.938,31.663 21.31,31.03 21.72,30.672C18.536,30.31 15.188,29.081 15.188,23.587C15.188,22.022 15.748,20.743 16.665,19.739C16.517,19.378 16.026,17.92 16.804,15.945C16.804,15.945 18.008,15.56 20.748,17.415C21.891,17.097 23.118,16.938 24.336,16.933C25.554,16.938 26.782,17.097 27.928,17.415C30.664,15.56 31.866,15.945 31.866,15.945C32.646,17.92 32.155,19.378 32.007,19.739C32.926,20.743 33.482,22.022 33.482,23.587C33.482,29.094 30.128,30.306 26.936,30.661C27.45,31.106 27.908,31.978 27.908,33.316C27.908,35.234 27.892,36.778 27.892,37.25C27.892,37.631 28.15,38.078 28.876,37.938C34.569,36.04 38.672,30.668 38.672,24.336C38.672,16.418 32.253,10 24.336,10ZM15.369,30.422C15.338,30.493 15.226,30.515 15.124,30.466C15.02,30.419 14.961,30.322 14.995,30.25C15.026,30.177 15.138,30.157 15.242,30.206C15.346,30.253 15.405,30.351 15.369,30.422ZM16.075,31.051C16.006,31.115 15.872,31.085 15.782,30.985C15.688,30.885 15.67,30.751 15.74,30.687C15.81,30.624 15.94,30.653 16.034,30.753C16.128,30.855 16.146,30.987 16.075,31.051ZM16.558,31.856C16.47,31.917 16.327,31.86 16.238,31.733C16.15,31.605 16.15,31.452 16.24,31.391C16.329,31.33 16.47,31.385 16.56,31.511C16.648,31.641 16.648,31.794 16.558,31.856ZM17.376,32.789C17.298,32.875 17.131,32.852 17.008,32.734C16.883,32.618 16.848,32.454 16.927,32.368C17.006,32.281 17.174,32.305 17.298,32.422C17.422,32.538 17.46,32.703 17.376,32.789ZM18.434,33.104C18.399,33.216 18.238,33.267 18.076,33.219C17.914,33.17 17.807,33.038 17.84,32.925C17.874,32.812 18.036,32.759 18.199,32.81C18.361,32.859 18.468,32.989 18.434,33.104ZM19.637,33.237C19.641,33.355 19.504,33.453 19.333,33.455C19.162,33.459 19.023,33.364 19.021,33.247C19.021,33.128 19.156,33.031 19.327,33.028C19.498,33.025 19.637,33.12 19.637,33.237ZM20.819,33.192C20.84,33.307 20.721,33.426 20.552,33.457C20.386,33.488 20.232,33.416 20.211,33.302C20.19,33.184 20.31,33.065 20.477,33.035C20.646,33.005 20.798,33.074 20.819,33.192Z" style="fill:white;fill-rule:nonzero;"/>
        </g>
    </g>
</svg>
