<svg id="Layer_5" enable-background="new 0 0 64 64" height="512" viewBox="0 0 64 64" width="512" xmlns="http://www.w3.org/2000/svg" xmlns:xlink="http://www.w3.org/1999/xlink"><linearGradient id="SVGID_1_" gradientUnits="userSpaceOnUse" x1="32" x2="32" y1="63" y2="1"><stop offset="0" stop-color="#9f2fff"/><stop offset="1" stop-color="#0bb1d3"/></linearGradient><path d="m49 58.414-4.707-4.707 1.414-1.414 3.293 3.293 8.293-8.293 1.414 1.414zm-14-27.414v-10h-4v16h-14v5h14v8h8.051c.511-6.15 5.669-11 11.949-11 6.617 0 12 5.383 12 12s-5.383 12-12 12c-6.28 0-11.438-4.85-11.949-11h-8.051v8h-30v-18h14v-5h-14v-27.414l8.586-8.586h21.414v18h4v-8h10.586l8.465-8.465c.99-.99 2.306-1.535 3.707-1.535 2.89 0 5.242 2.352 5.242 5.242 0 1.4-.545 2.717-1.535 3.707l-6.465 6.465v14.586zm6 20c0 5.514 4.486 10 10 10s10-4.486 10-10-4.486-10-10-10-10 4.486-10 10zm-12-7h-26v14h26zm-20-35v-4.586l-4.586 4.586zm-2 4h18v-6h-14v4h-4zm22-10h-18v2h16v10h-22v-4h-2v24h26zm18 12.586 7.586-7.586-1.586-1.586-7.586 7.586zm-3.964 4.466c-.023.071-.036.151-.036.227 0 .474.489.839.951.683l4.198-1.399-3.712-3.712zm14.55-9.052-1.586-1.586-7.586 7.586 1.586 1.586zm-2.121-7.051-1.051 1.051 4.586 4.586 1.051-1.051c.612-.612.949-1.427.949-2.293 0-1.788-1.454-3.242-3.242-3.242-.866 0-1.681.337-2.293.949zm-18.465 25.051h16v-10.586l-2.46 2.46-5.959 1.986c-.281.093-.569.14-.86.14-1.5 0-2.721-1.221-2.721-2.721 0-.291.047-.579.138-.857l1.988-5.962.46-.46h-6.586zm-32 22c0-1.654 1.346-3 3-3s3 1.346 3 3-1.346 3-3 3-3-1.346-3-3zm2 0c0 .552.448 1 1 1s1-.448 1-1-.448-1-1-1-1 .448-1 1zm6 0c0-1.654 1.346-3 3-3s3 1.346 3 3-1.346 3-3 3-3-1.346-3-3zm2 0c0 .552.448 1 1 1s1-.448 1-1-.448-1-1-1-1 .448-1 1zm6 0c0-1.654 1.346-3 3-3s3 1.346 3 3-1.346 3-3 3-3-1.346-3-3zm2 0c0 .552.448 1 1 1s1-.448 1-1-.448-1-1-1-1 .448-1 1zm16-24h12v-2h-12zm-32-10h-2v2h2zm2 2h18v-2h-18zm-4 4h22v-2h-22zm0 2h22v8h-22zm2 6h18v-4h-18z" fill="url(#SVGID_1_)"/></svg>