<svg height="496pt" viewBox="0 0 496 496" width="496pt" xmlns="http://www.w3.org/2000/svg" xmlns:xlink="http://www.w3.org/1999/xlink"><linearGradient id="a" gradientTransform="matrix(8 0 0 -8 -8 504)" gradientUnits="userSpaceOnUse" x1="32" x2="32" y1="1" y2="63"><stop offset="0" stop-color="#9f2fff"/><stop offset="1" stop-color="#0bb1d3"/></linearGradient><path d="m0 416h64v56c0 13.230469 10.769531 24 24 24h320c13.230469 0 24-10.769531 24-24v-56h64v-416h-496zm416 56c0 4.40625-3.59375 8-8 8h-320c-4.40625 0-8-3.59375-8-8v-128c0-4.40625 3.59375-8 8-8h110.3125c4.757812 0 9.359375-1.390625 13.3125-4.03125l15.933594-10.625c1.320312-.878906 2.855468-1.34375 4.441406-1.34375h176c4.40625 0 8 3.59375 8 8zm16-72v-72c0-13.230469-10.769531-24-24-24h-176c-4.753906 0-9.359375 1.390625-13.3125 4.03125l-15.945312 10.625c-1.316407.878906-2.847657 1.34375-4.429688 1.34375h-110.3125c-13.230469 0-24 10.769531-24 24v56h-48v-320h464v320zm48-384v48h-464v-48zm-432 32h-16v-16h16zm32 0h-16v-16h16zm32 0h-16v-16h16zm-16 416h176v-112h-176zm16-32h16v16h-16zm112-16h-16v-16h16zm16-16h16v16h-16zm-64 16v-16h16v16zm48 16v16h-80v-16zm-16-48v-16h16v16zm-16 0h-16v-16h16zm-32 0h-16v-16h16zm0 16v16h-16v-16zm-32 16h-16v-16h16zm112 32v-16h16v16zm16-64h-16v-16h16zm-128-16v16h-16v-16zm160 96h112v-112h-112zm16-32h16v16h-16zm48-32v16h-16v-16zm-16-16v-16h16v16zm32 16h16v16h-16zm-16 32v16h-16v-16zm-32-16h-16v-16h16zm48 32v-16h16v16zm16-64h-16v-16h16zm-64-16v16h-16v-16zm-19-234.929688 87.808594 70.25-87.808594 70.246094-9.992188-12.496094 72.191407-57.75-72.191407-57.753906zm-96 12.496094-72.191406 57.753906 72.191406 57.75-9.992188 12.496094-87.808593-70.246094 87.808593-70.25zm63.734375-28.140625 15.152344 5.148438-56.621094 166.640625-15.152344-5.152344zm0 0" fill="url(#a)"/></svg>