<svg id="Layer_5" enable-background="new 0 0 64 64" height="512" viewBox="0 0 64 64" width="512" xmlns="http://www.w3.org/2000/svg" xmlns:xlink="http://www.w3.org/1999/xlink"><linearGradient id="SVGID_1_" gradientUnits="userSpaceOnUse" x1="32" x2="32" y1="63" y2="1"><stop offset="0" stop-color="#9f2fff"/><stop offset="1" stop-color="#0bb1d3"/></linearGradient><path d="m11 45h2v2h-2zm-4 2h2v-2h-2zm8 0h2v-2h-2zm48-35v34c0 2.757-2.243 5-5 5h-17.962c.168 1.595.997 3.041 2.296 4h2.666c2.757 0 5 2.243 5 5 0 1.654-1.346 3-3 3h-30c-1.654 0-3-1.346-3-3 0-2.757 2.243-5 5-5h2.666c1.299-.959 2.128-2.405 2.296-4h-17.962c-2.757 0-5-2.243-5-5v-34c0-2.757 2.243-5 5-5h3v-3c0-1.654 1.346-3 3-3h40c1.654 0 3 1.346 3 3v3h3c2.757 0 5 2.243 5 5zm-24 29h10v-14h-10zm9.196-16-3.513-5.622c-.297-.473-1.068-.473-1.365 0l-3.514 5.622zm2.804.713v15.287h2v-26h-42v4h6.777l.713 2.802c.318.119.639.252.956.4l2.489-1.48 5.342 5.342-1.479 2.489c.147.317.281.637.4.956l2.802.714v7.555l-2.802.713c-.121.325-.258.65-.409.974l.853 1.535h10.358v-15.287l4.622-7.395c.516-.825 1.405-1.318 2.378-1.318s1.862.493 2.378 1.318zm-42-12.713h-2v28h2zm2 28h3c3.859 0 7-3.14 7-7s-3.141-7-7-7c-1.044 0-2.066.246-3 .689v2.336c.838-.634 1.87-1.025 3-1.025 2.757 0 5 2.243 5 5s-2.243 5-5 5c-1.13 0-2.162-.391-3-1.026zm3-4c1.654 0 3-1.346 3-3s-1.346-3-3-3-3 1.346-3 3 1.346 3 3 3zm5.644 4h4.71l-.828-1.492.247-.476c.288-.558.525-1.124.704-1.683l.168-.528 2.355-.598v-4.445l-2.354-.599-.168-.528c-.179-.559-.416-1.125-.704-1.683l-.256-.493 1.246-2.096-3.143-3.143-2.095 1.246-.492-.254c-.56-.289-1.126-.525-1.686-.704l-.528-.169-.597-2.355h-5.223v4.533c.96-.339 1.971-.533 3-.533 4.963 0 9 4.038 9 9 0 2.826-1.312 5.349-3.356 7zm35.356 0h2v-28h-2zm-44-37v9h42v-9c0-.551-.448-1-1-1h-40c-.552 0-1 .449-1 1zm34 53h-26c-1.654 0-3 1.346-3 3 0 .551.448 1 1 1h30c.552 0 1-.449 1-1 0-1.654-1.346-3-3-3zm-6.963-6h-12.074c-.114 1.464-.634 2.845-1.492 4h15.06c-.859-1.155-1.379-2.536-1.494-4zm22.963-39c0-1.654-1.346-3-3-3h-3v2h2c1.103 0 2 .897 2 2v28c0 1.103-.897 2-2 2h-50c-1.103 0-2-.897-2-2v-28c0-1.103.897-2 2-2h2v-2h-3c-1.654 0-3 1.346-3 3v34c0 1.654 1.346 3 3 3h52c1.654 0 3-1.346 3-3zm-42-1h-6v-6h6zm-2-4h-2v2h2zm10 4h-6v-6h6zm-2-4h-2v2h2zm10 4h-6v-6h6zm-2-4h-2v2h2zm10 28h2v-2h-2zm0-6v2h2v-2zm0 10h2v-2h-2z" fill="url(#SVGID_1_)"/></svg>