<svg id="_x33_0" enable-background="new 0 0 64 64" height="512" viewBox="0 0 64 64" width="512" xmlns="http://www.w3.org/2000/svg" xmlns:xlink="http://www.w3.org/1999/xlink"><linearGradient id="SVGID_1_" gradientUnits="userSpaceOnUse" x1="32" x2="32" y1="63" y2="1"><stop offset="0" stop-color="#9f2fff"/><stop offset="1" stop-color="#0bb1d3"/></linearGradient><path d="m48 15c1.064 0 1.98-.794 2.131-1.848l.858-6.01.011-.142c0-1.103-.897-2-2-2h-2c-1.103 0-2 .897-2 2l.869 6.152c.151 1.054 1.067 1.848 2.131 1.848zm.99-8-.838 5.868c-.021.15-.282.15-.304 0l-.838-5.868zm-.99 16c1.654 0 3-1.346 3-3s-1.346-3-3-3-3 1.346-3 3 1.346 3 3 3zm0-4c.551 0 1 .449 1 1s-.449 1-1 1-1-.449-1-1 .449-1 1-1zm4.131 19h4.869v21h-10v2h10c1.103 0 2-.897 2-2v-21h4.869l-5.869-8.803zm3.738-2 2.131-3.197 2.131 3.197zm-32.869 24c0 1.654 1.346 3 3 3s3-1.346 3-3-1.346-3-3-3-3 1.346-3 3zm4 0c0 .551-.449 1-1 1s-1-.449-1-1 .449-1 1-1 1 .449 1 1zm4 0c0 1.654 1.346 3 3 3s3-1.346 3-3-1.346-3-3-3-3 1.346-3 3zm4 0c0 .551-.449 1-1 1s-1-.449-1-1 .449-1 1-1 1 .449 1 1zm4 0c0 1.654 1.346 3 3 3s3-1.346 3-3-1.346-3-3-3-3 1.346-3 3zm4 0c0 .551-.449 1-1 1s-1-.449-1-1 .449-1 1-1 1 .449 1 1zm-37-25.197 5.869-8.803h-4.869v-21h8v-2h-8c-1.103 0-2 .897-2 2v21h-4.869zm0-3.606-2.131-3.197h4.263zm22-24.197c1.654 0 3-1.346 3-3s-1.346-3-3-3-3 1.346-3 3 1.346 3 3 3zm0-4c.551 0 1 .449 1 1s-.449 1-1 1-1-.449-1-1 .449-1 1-1zm-8 4c1.654 0 3-1.346 3-3s-1.346-3-3-3-3 1.346-3 3 1.346 3 3 3zm0-4c.551 0 1 .449 1 1s-.449 1-1 1-1-.449-1-1 .449-1 1-1zm-5 38.586-12.465 12.465c-.99.99-1.535 2.305-1.535 3.709 0 2.889 2.351 5.24 5.244 5.24 1.4 0 2.715-.545 3.705-1.535l6.465-6.465h30.586c1.103 0 2-.897 2-2v-24.586l1.414-1.414h9.586c1.654 0 3-1.346 3-3v-20c0-1.654-1.346-3-3-3h-24c-1.654 0-3 1.346-3 3v5h-16c-1.103 0-2 .897-2 2zm-3.414 15.414-1.586 1.586-4.586-4.586 1.586-1.586zm-.172-3 10.586-10.586 1.586 1.586-10.586 10.586zm15.533-16.081-.478 1.116-1.504-1.504 1.117-.479c.411-.177.918.154.918.607 0 .09-.018.177-.053.26zm-3.962.461 2.635 2.635-.957 2.234-3.911-3.911zm-3.985 2.034 1.586 1.586-10.586 10.586-1.586-1.586zm-12.76 20.586c-1.786 0-3.24-1.454-3.24-3.244 0-.866.337-1.679.949-2.291l.051-.051 4.586 4.586-.051.051c-.612.612-1.426.949-2.295.949zm28.76-57c0-.551.449-1 1-1h24c.551 0 1 .449 1 1v20c0 .551-.449 1-1 1h-10.414l-3.879 3.879c-.239.238-.707.045-.707-.293v-3.586h-9c-.551 0-1-.449-1-1zm-2 7v13c0 1.654 1.346 3 3 3h7v1.586c0 1.331 1.083 2.414 2.414 2.414.592 0 1.145-.22 1.586-.607v22.607h-28.586l7.429-7.429 2.941-6.863c.143-.333.216-.686.216-1.049 0-1.466-1.193-2.659-2.659-2.659-.363 0-.716.073-1.048.215l-6.864 2.941-1.429 1.43v-28.586zm-8 4h-6v-2h6zm6 0h-4v-2h4zm0 4h-12v-2h12zm-6 4h-6v-2h6zm6 0h-4v-2h4zm-8 4h-4v-2h4zm2-2h6v2h-6zm6 20h14v-12h-14zm2-10h10v8h-10zm1.964 14h10.036v2h-12v-1.586c0-.337-.468-.532-.707-.293l-2.567 2.567-1.208-2.416c-.179-.358-.783-.316-.91.064l-.66 1.979-1.897-.633.66-1.979c.34-1.02 1.291-1.705 2.366-1.705.925 0 1.76.501 2.197 1.313l.605-.605c.456-.455 1.062-.706 1.707-.706 1.19 0 2.182.865 2.378 2zm-3.964-18h-12v-2h12z" fill="url(#SVGID_1_)"/></svg>