<svg id="Layer_5" enable-background="new 0 0 64 64" height="512" viewBox="0 0 64 64" width="512" xmlns="http://www.w3.org/2000/svg" xmlns:xlink="http://www.w3.org/1999/xlink"><linearGradient id="SVGID_1_" gradientUnits="userSpaceOnUse" x1="32" x2="32" y1="63" y2="1"><stop offset="0" stop-color="#9f2fff"/><stop offset="1" stop-color="#0bb1d3"/></linearGradient><path d="m37 17h-10c-2.757 0-5 2.243-5 5v20c0 2.757 2.243 5 5 5h10c2.757 0 5-2.243 5-5v-20c0-2.757-2.243-5-5-5zm3 6v16h-16v-16zm-13-4h10c1.302 0 2.402.839 2.816 2h-15.632c.414-1.161 1.514-2 2.816-2zm10 26h-10c-1.654 0-3-1.346-3-3v-1h16v1c0 1.654-1.346 3-3 3zm-8-11.37v3.37h6v-3.37c.641-.729 1-1.664 1-2.63 0-2.206-1.794-4-4-4s-4 1.794-4 4c0 .966.359 1.901 1 2.63zm3-4.63c1.103 0 2 .897 2 2 0 .564-.238 1.09-.67 1.479l-.33.298v2.223h-2v-2.223l-.33-.298c-.432-.389-.67-.915-.67-1.479 0-1.103.897-2 2-2zm0 30c1.654 0 3-1.346 3-3s-1.346-3-3-3-3 1.346-3 3 1.346 3 3 3zm0-4c.552 0 1 .448 1 1s-.448 1-1 1-1-.448-1-1 .448-1 1-1zm28.086-35.176c-1.852-1.526-4.284-2.134-6.681-1.669-.865.168-1.674.491-2.416.921-3.087-4.52-7.74-7.835-13.007-9.256-.074-1.222-.875-2.241-1.982-2.636v-2.184c0-2.206-1.794-4-4-4s-4 1.794-4 4v2.184c-1.101.393-1.9 1.404-1.98 2.619-6.131 1.652-11.373 5.841-14.35 11.452l-.256-.255h-2.828l-7.586 7.586v2.414h2v8h7.102c1.911 5.972 6.249 10.956 11.879 13.691-.318.271-.632.546-.93.844l-.051.051c-.645.645-1 1.502-1 2.414s.355 1.77 1.051 2.465c2.925 2.925 6.812 4.535 10.949 4.535s8.024-1.61 11-4.586c.645-.645 1-1.502 1-2.414s-.355-1.77-1.051-2.465c-.298-.298-.613-.574-.931-.845 5.367-2.612 9.594-7.292 11.621-12.903.436.125.886.213 1.361.213 2.757 0 5-2.243 5-5v-2.76c1.888-1.516 3-3.81 3-6.24 0-2.398-1.063-4.649-2.914-6.176zm-28.086-16.824c1.103 0 2 .897 2 2v2h-4v-2c0-1.103.897-2 2-2zm-4 7c0-.552.448-1 1-1h6c.552 0 1 .448 1 1v2c0 .552-.448 1-1 1h-6c-.552 0-1-.448-1-1zm-18.586 13h1.172l6 6h-13.172zm-4.414 8h10v6h-2v-4h-6v4h-2zm6 6h-2v-2h2zm11 19c0-.378.147-.732.414-1l.051-.051c1.048-1.048 2.244-1.89 3.533-2.533-.629 1.05-.998 2.274-.998 3.584 0 1.307.367 2.528.993 3.576-1.299-.65-2.509-1.505-3.579-2.576-.267-.268-.414-.622-.414-1zm15 0c0 2.757-2.243 5-5 5s-5-2.243-5-5 2.243-5 5-5 5 2.243 5 5zm4.535 1.051c-1.048 1.048-2.244 1.89-3.533 2.533.629-1.05.998-2.273.998-3.584 0-1.307-.367-2.528-.993-3.576 1.299.65 2.509 1.505 3.579 2.576.267.268.414.622.414 1s-.147.732-.465 1.051zm-1.372-5.712c-2.429-1.515-5.229-2.339-8.163-2.339s-5.734.824-8.163 2.338c-5.418-2.292-9.673-6.816-11.631-12.338h4.794v-8h2v-2.414l-5.84-5.84c2.578-5.233 7.277-9.205 12.84-10.867v.121c0 1.654 1.346 3 3 3h6c1.654 0 3-1.346 3-3v-.097c4.62 1.383 8.682 4.366 11.395 8.38-1.141 1.119-1.953 2.572-2.255 4.196-.553 2.982.539 5.908 2.859 7.762v2.759c0 1.556.729 2.93 1.847 3.848-1.929 5.578-6.232 10.183-11.683 12.491zm14.837-13.339c-1.302 0-2.402-.839-2.816-2h5.631c-.413 1.161-1.513 2-2.815 2zm0-10c-1.103 0-2-.897-2-2s.897-2 2-2 2 .897 2 2-.897 2-2 2zm3.428 2.921-.428.298v2.781h-2v-4.142c1.721-.447 3-1.999 3-3.858 0-2.206-1.794-4-4-4s-4 1.794-4 4c0 1.859 1.279 3.411 3 3.858v4.142h-2v-2.781l-.428-.299c-1.961-1.369-2.905-3.697-2.465-6.076.439-2.368 2.319-4.268 4.679-4.726.4-.077.801-.115 1.197-.115 1.397 0 2.748.473 3.83 1.364 1.39 1.146 2.187 2.834 2.187 4.633 0 1.955-.962 3.795-2.572 4.921zm-46.428-15.921c0-1.654 1.346-3 3-3v2c-.552 0-1 .448-1 1zm3-5c-2.757 0-5 2.243-5 5h-2c0-3.859 3.141-7 7-7zm0-4c-4.963 0-9 4.037-9 9h-2c0-6.065 4.935-11 11-11zm0 46c-1.654 0-3-1.346-3-3h2c0 .552.448 1 1 1zm0 2v2c-3.859 0-7-3.141-7-7h2c0 2.757 2.243 5 5 5zm-9-5c0 4.963 4.037 9 9 9v2c-6.065 0-11-4.935-11-11zm46 0c0 1.654-1.346 3-3 3v-2c.552 0 1-.448 1-1zm-3 5c2.757 0 5-2.243 5-5h2c0 3.859-3.141 7-7 7zm0 4c4.963 0 9-4.037 9-9h2c0 6.065-4.935 11-11 11zm0-46c1.654 0 3 1.346 3 3h-2c0-.552-.448-1-1-1zm0-4c3.859 0 7 3.141 7 7h-2c0-2.757-2.243-5-5-5zm0-2v-2c6.065 0 11 4.935 11 11h-2c0-4.963-4.037-9-9-9z" fill="url(#SVGID_1_)"/></svg>