<svg xmlns="http://www.w3.org/2000/svg" class="mt-1" width="99" height="30" viewBox="0 0 99 30" fill="none">
        <path d="M36.2488 5.37646L41.1229 18.0957L38.2254 18.4361L37.1899 15.4648H32.5424L31.5453 18.247H28.6094L33.5023 5.37714H36.2488V5.37646ZM34.819 9.12417L33.3884 13.1173H36.3243L34.819 9.12417Z" fill="#462E52"/>
        <path d="M50.5148 10.9511C50.1258 10.2384 49.5865 9.69866 48.8969 9.3325C48.2065 8.96702 47.3976 8.78394 46.4693 8.78394C46.0176 8.78394 45.5848 8.85988 45.1709 9.01109C44.7569 9.1623 44.3774 9.36776 44.0322 9.6261C44.0181 9.63627 44.0053 9.64712 43.9911 9.65797L43.4767 9.08703H41.9902V22.3922L44.9255 22.203V18.1535C45.0151 18.1915 45.1061 18.2261 45.1978 18.2566C45.5936 18.3888 45.9724 18.4553 46.3365 18.4553C47.3275 18.4553 48.1742 18.2627 48.8767 17.8782C49.5791 17.4938 50.1252 16.9384 50.5142 16.2129C50.9025 15.4874 51.0973 14.6072 51.0973 13.5725C51.098 12.5377 50.9031 11.6637 50.5148 10.9511ZM47.8425 14.8968C47.6922 15.2751 47.4785 15.5687 47.2027 15.7769C46.9263 15.9851 46.6001 16.0888 46.2239 16.0888C45.8477 16.0888 45.4742 15.9973 45.1041 15.8142C45.0448 15.785 44.9855 15.7518 44.9255 15.7165V11.5952C44.9794 11.5586 45.0327 11.5233 45.0852 11.4901C45.4297 11.2759 45.7843 11.1687 46.1484 11.1687C46.5623 11.1687 46.9108 11.2664 47.1926 11.4623C47.4751 11.6583 47.6915 11.9356 47.8418 12.295C47.9922 12.6544 48.0677 13.087 48.0677 13.5915C48.0684 14.0831 47.9928 14.5184 47.8425 14.8968Z" fill="#462E52"/>
        <path d="M60.7602 10.9511C60.3713 10.2384 59.8319 9.69866 59.1423 9.3325C58.4526 8.96702 57.643 8.78394 56.7147 8.78394C56.263 8.78394 55.8302 8.85988 55.4163 9.01109C55.0024 9.1623 54.6228 9.36776 54.2776 9.6261C54.2635 9.63627 54.2507 9.64712 54.2365 9.65797L53.7228 9.08636H52.2363V22.3915L55.1716 22.2023V18.1529C55.2612 18.1908 55.3522 18.2254 55.4446 18.2559C55.8396 18.3882 56.2192 18.4546 56.5832 18.4546C57.5736 18.4546 58.421 18.262 59.1234 17.8776C59.8259 17.4931 60.3713 16.9378 60.7602 16.2122C61.1492 15.4867 61.3434 14.6065 61.3434 13.5718C61.3434 12.5377 61.1492 11.6637 60.7602 10.9511ZM58.0879 14.8968C57.9376 15.2751 57.7239 15.5687 57.4482 15.7769C57.1718 15.9851 56.8461 16.0888 56.47 16.0888C56.0931 16.0888 55.7203 15.9973 55.3502 15.8142C55.2909 15.785 55.2316 15.7518 55.1716 15.7165V11.5952C55.2255 11.5586 55.2788 11.5227 55.332 11.4901C55.6765 11.2759 56.0311 11.1687 56.3951 11.1687C56.8091 11.1687 57.1569 11.2664 57.4394 11.4623C57.7219 11.6583 57.9383 11.9356 58.0886 12.295C58.2389 12.6544 58.3144 13.087 58.3144 13.5915C58.3138 14.0831 58.2389 14.5184 58.0879 14.8968Z" fill="#462E52"/>
        <path d="M62.4941 18.2471V5.09318L65.4293 4.88501V18.2471H62.4941Z" fill="#462E52"/>
        <path d="M71.6608 18.4553C70.6698 18.4553 69.7981 18.2722 69.0451 17.906C68.2928 17.5406 67.7056 16.9947 67.2856 16.2692C66.8649 15.5436 66.6553 14.6703 66.6553 13.6477C66.6674 12.6259 66.8906 11.7552 67.3234 11.0358C67.7562 10.3164 68.3521 9.76104 69.1112 9.37047C69.8696 8.97922 70.7325 8.78394 71.6986 8.78394C72.6896 8.78394 73.5612 8.97312 74.3143 9.35148C75.0673 9.72985 75.6565 10.2825 76.0832 11.008C76.51 11.7336 76.723 12.6198 76.723 13.6674C76.723 14.6642 76.5032 15.5219 76.0644 16.2414C75.6248 16.9608 75.0262 17.5094 74.2678 17.8877C73.508 18.2661 72.639 18.4553 71.6608 18.4553ZM71.679 16.0135C72.0936 16.0135 72.4476 15.9159 72.7422 15.7199C73.0368 15.5247 73.266 15.25 73.4291 14.8968C73.5916 14.5435 73.6738 14.1332 73.6738 13.6667C73.6738 13.2002 73.5956 12.7839 73.4385 12.4177C73.2821 12.0516 73.0563 11.7647 72.761 11.5566C72.4658 11.3484 72.1179 11.2447 71.7168 11.2447C71.3157 11.2447 70.9611 11.3457 70.6543 11.5478C70.3462 11.7498 70.1116 12.0272 69.9485 12.3804C69.786 12.7337 69.7044 13.1561 69.7044 13.6484C69.7044 14.1027 69.786 14.5096 69.9485 14.869C70.1116 15.2283 70.3408 15.5097 70.6354 15.7111C70.93 15.9132 71.2779 16.0135 71.679 16.0135Z" fill="#462E52"/>
        <path d="M84.8725 10.7327L80.7521 15.8996H84.8725L85.1361 18.2464H77.4777L77.1016 16.6943L81.2415 11.4324H77.835L77.44 9.06665H84.7221L84.8725 10.7327Z" fill="#462E52"/>
        <path d="M86.9412 7.3172C86.6217 6.99512 86.4619 6.61404 86.4619 6.17194C86.4619 5.71763 86.6217 5.32977 86.9412 5.00769C87.2615 4.68561 87.6403 4.5249 88.0799 4.5249C88.5194 4.5249 88.9017 4.68561 89.2279 5.00769C89.5542 5.3291 89.7174 5.71763 89.7174 6.17194C89.7174 6.61337 89.5569 6.99512 89.2374 7.3172C88.9178 7.63861 88.5316 7.79999 88.0799 7.79999C87.6403 7.79931 87.2615 7.63861 86.9412 7.3172ZM86.6122 18.2471V9.06731H89.5664V18.2471H86.6122Z" fill="#462E52"/>
        <path d="M99 17.5277C98.6865 17.7806 98.3326 17.9759 97.9369 18.1142C97.5418 18.2525 97.1623 18.3441 96.7982 18.3888C96.4342 18.4329 96.1207 18.4553 95.8578 18.4553C94.8796 18.4553 94.0201 18.2661 93.2798 17.8871C92.5396 17.5087 91.9626 16.9601 91.5486 16.2407C91.1347 15.5213 90.9277 14.6635 90.9277 13.6667C90.9399 12.6578 91.1502 11.7898 91.5581 11.0643C91.9652 10.3388 92.5396 9.77731 93.2798 9.37996C94.0194 8.98261 94.8796 8.78394 95.8578 8.78394C96.1086 8.78394 96.416 8.81242 96.78 8.86937C97.1434 8.92633 97.5229 9.02058 97.9187 9.15349C98.313 9.28571 98.6737 9.47828 99 9.73053L98.1721 11.7932C97.7704 11.604 97.4097 11.465 97.0901 11.3769C96.7706 11.2887 96.4221 11.2447 96.0459 11.2447C95.6697 11.2447 95.3212 11.3457 95.0016 11.5478C94.6821 11.7498 94.4306 12.0305 94.2493 12.3899C94.0673 12.7493 93.9762 13.1751 93.9762 13.6674C93.9762 14.1468 94.0673 14.5604 94.2493 14.9069C94.4306 15.2541 94.6821 15.5253 95.0016 15.7206C95.3212 15.9159 95.6697 16.0142 96.0459 16.0142C96.3971 16.0142 96.7389 15.9701 97.0713 15.882C97.4036 15.7938 97.7704 15.6487 98.1721 15.4467L99 17.5277Z" fill="#462E52"/>
        <path d="M8.21113 0H5.69655C2.55502 0 0 2.56989 0 5.72903V8.22163C0 9.01633 0.643137 9.66321 1.43324 9.66321C2.22334 9.66321 2.86648 9.01633 2.86648 8.22163V5.72903C2.86648 4.15998 4.1359 2.88316 5.69588 2.88316H8.21045C9.00055 2.88316 9.64369 2.23628 9.64369 1.44158C9.64369 0.646881 9.00123 0 8.21113 0Z" fill="#39D0FF"/>
        <path d="M17.656 0H15.1852C14.3951 0 13.752 0.646881 13.752 1.44158C13.752 2.23628 14.3951 2.88316 15.1852 2.88316H17.656C19.2166 2.88316 20.4854 4.15998 20.4854 5.72903V8.22163C20.4854 9.01633 21.1285 9.66321 21.9186 9.66321C22.7087 9.66321 23.3518 9.01633 23.3518 8.22163V5.72903C23.3525 2.56989 20.7968 0 17.656 0Z" fill="#FFCD4D"/>
        <path d="M21.9193 13.7957C21.1292 13.7957 20.486 14.4425 20.486 15.2372V17.759C20.486 19.328 19.2166 20.6049 17.6566 20.6049H15.1393C14.7611 20.6049 14.4045 20.752 14.1349 21.0185L10.5437 24.5689V22.0464C10.5437 21.2517 9.90054 20.6049 9.11044 20.6049H5.69588C4.1359 20.6049 2.86648 19.328 2.86648 17.759V15.2372C2.86648 14.4425 2.22334 13.7957 1.43324 13.7957C0.643137 13.7957 0 14.4425 0 15.2372V17.759C0 20.9181 2.55502 23.488 5.69588 23.488H7.67653V27.9803C7.67653 28.4969 7.93877 28.9784 8.36146 29.2367C8.58797 29.3751 8.84685 29.449 9.10976 29.449C9.48796 29.449 9.84526 29.3018 10.1149 29.0353L15.7259 23.488H17.6566C20.7975 23.488 23.3525 20.9181 23.3525 17.759V15.2372C23.3525 14.4425 22.7094 13.7957 21.9193 13.7957Z" fill="#EB366E"/>
        <path d="M7.70163 6.58813C6.49018 6.58813 5.50391 7.57948 5.50391 8.79865C5.50391 10.0171 6.48951 11.0092 7.70163 11.0092C8.91375 11.0092 9.89935 10.0178 9.89935 8.79865C9.89935 7.57948 8.91307 6.58813 7.70163 6.58813Z" fill="#39D0FF"/>
        <path d="M15.6469 6.58813C14.4355 6.58813 13.4492 7.57948 13.4492 8.79865C13.4492 10.0171 14.4348 11.0092 15.6469 11.0092C16.8591 11.0092 17.8447 10.0178 17.8447 8.79865C17.8447 7.57948 16.8591 6.58813 15.6469 6.58813Z" fill="#FFCD4D"/>
        <path d="M11.6743 13.4436C10.4628 13.4436 9.47656 14.4349 9.47656 15.6541C9.47656 16.8726 10.4622 17.8646 11.6743 17.8646C12.8864 17.8646 13.872 16.8733 13.872 15.6541C13.872 14.4349 12.8864 13.4436 11.6743 13.4436Z" fill="#EB366E"/>
      </svg>