<svg width="99" height="49" viewBox="0 0 99 49" fill="none" xmlns="http://www.w3.org/2000/svg">
    <path d="M8.115 10.34c-1.17 0-2.135.384-2.895 1.154-.759.77-1.18 1.787-1.265 3.053h8.147c-.042-1.287-.422-2.31-1.14-3.069-.716-.76-1.665-1.139-2.847-1.139zm4.018 9.776h3.718c-.37 1.581-1.24 2.831-2.61 3.749-1.36.907-3.053 1.36-5.078 1.36-2.542 0-4.54-.79-5.996-2.373C.722 21.26 0 19.072 0 16.287c0-2.784.728-4.988 2.183-6.612C3.638 8.04 5.621 7.223 8.131 7.223c2.468 0 4.398.775 5.79 2.325 1.403 1.54 2.104 3.675 2.104 6.407v1.266H3.939v.205c.053 1.445.464 2.59 1.234 3.433.78.833 1.814 1.25 3.1 1.25 1.983 0 3.27-.665 3.86-1.994zM24.235 19.989c.75.96 1.804 1.44 3.164 1.44s2.431-.486 3.211-1.456c.78-.97 1.171-2.283 1.171-3.939 0-1.656-.39-2.969-1.17-3.939-.78-.98-1.851-1.471-3.212-1.471-1.35 0-2.404.485-3.164 1.455-.748.97-1.123 2.289-1.123 3.955s.375 2.985 1.123 3.955zM27.4 31.458c-2.204 0-3.997-.448-5.378-1.345-1.371-.896-2.136-2.093-2.294-3.59h3.939c.126.6.522 1.075 1.186 1.423.675.348 1.545.522 2.61.522 1.34 0 2.384-.3 3.133-.902.748-.6 1.123-1.444 1.123-2.53V21.76h-.27a5.11 5.11 0 0 1-2.119 2.135c-.907.485-1.962.728-3.164.728-2.172 0-3.897-.775-5.173-2.325-1.276-1.561-1.914-3.65-1.914-6.265 0-2.658.643-4.777 1.93-6.36 1.287-1.592 3.027-2.388 5.22-2.388 1.182 0 2.252.274 3.212.823.96.548 1.677 1.291 2.151 2.23h.27V7.571h3.78v17.37c0 2.003-.743 3.59-2.23 4.761-1.488 1.17-3.491 1.756-6.012 1.756zM40.466 24.877V7.571h3.78v2.768h.27c.422-.991 1.065-1.756 1.93-2.294.875-.548 1.946-.822 3.211-.822 1.92 0 3.39.559 4.414 1.677 1.033 1.117 1.55 2.71 1.55 4.777v11.2h-3.923V14.61c0-2.647-1.166-3.97-3.496-3.97-1.171 0-2.099.374-2.785 1.123-.685.749-1.028 1.761-1.028 3.037v10.077h-3.923zM60.32 24.877V7.571h3.907v17.306h-3.908zM70.365 24.877V10.814h-2.832V7.68h2.832V5.862c0-1.73.453-3.021 1.36-3.876.918-.854 2.33-1.28 4.24-1.28.79 0 1.518.057 2.183.173v2.88a9.29 9.29 0 0 0-1.345-.08c-.907 0-1.566.2-1.977.601-.401.39-.601 1.002-.601 1.835v1.566h3.765v3.133h-3.718v14.063h-3.907zM83.685 31.157c-.813 0-1.33-.02-1.55-.063v-3.211c.2.042.558.063 1.075.063.833 0 1.492-.174 1.977-.522.496-.348.87-.918 1.124-1.709l.205-.759-6.185-17.385h4.303l4.05 13.51h.268l4.034-13.51h4.145l-6.249 17.86c-.727 2.14-1.624 3.628-2.689 4.46-1.055.845-2.557 1.266-4.508 1.266z" fill="#25282B"/>
    <circle cx="62.378" cy="2.603" r="2.603" fill="#F36"/>
    <path d="M3.53 44.424H2.51l1.505-7.086H1.455l.188-.896h6.14l-.188.896H5.034l-1.505 7.086zm3.805-3.419h3.08a1.55 1.55 0 0 0 .006-.155c0-.401-.112-.74-.337-1.017-.225-.28-.564-.42-1.018-.42-.431 0-.798.147-1.1.442-.3.295-.51.678-.631 1.15zm1.26 3.53c-.759 0-1.343-.233-1.753-.697-.409-.469-.614-1.081-.614-1.837 0-.627.12-1.2.36-1.72.24-.524.577-.939 1.012-1.245a2.5 2.5 0 0 1 1.477-.465c.716 0 1.282.218 1.698.653.417.435.625 1.027.625 1.776 0 .302-.016.56-.05.774H7.214c-.004.044-.005.11-.005.2 0 .527.125.945.376 1.255.254.306.595.46 1.023.46.376 0 .7-.093.974-.277.272-.185.475-.437.608-.758h.946a2.516 2.516 0 0 1-.93 1.35 2.598 2.598 0 0 1-1.61.53zm5.344-.83c.413 0 .778-.12 1.096-.36.32-.243.523-.557.608-.94l.144-.642-1.571.083c-.432.022-.767.118-1.007.288a.807.807 0 0 0-.354.691c0 .266.1.48.299.642.199.159.46.238.785.238zm-.254.818c-.505 0-.933-.149-1.283-.448a1.46 1.46 0 0 1-.52-1.15c0-.557.204-.992.614-1.306.409-.317.986-.496 1.731-.536l1.72-.089.078-.36c.014-.062.022-.156.022-.281 0-.292-.1-.52-.299-.686-.199-.166-.481-.25-.846-.25-.38 0-.686.086-.918.255-.233.166-.378.391-.437.675H12.54c.088-.527.352-.955.79-1.283.44-.328.99-.492 1.65-.492.611 0 1.104.153 1.476.459.373.302.559.697.559 1.183 0 .17-.013.332-.039.487l-.79 3.723h-.925l.15-.703h-.017c-.199.251-.448.448-.747.592-.295.14-.616.21-.962.21zm6.997-5.952c.369 0 .7.056.996.166a1.903 1.903 0 0 1 1.145 1.09c.1.236.15.485.15.747v.039h-.936a1.197 1.197 0 0 0-.387-.852c-.243-.229-.57-.343-.979-.343-.572 0-1.04.24-1.405.719-.365.476-.547 1.088-.547 1.836 0 .528.125.944.376 1.25.254.303.593.454 1.018.454.368 0 .687-.096.956-.288.273-.195.472-.459.598-.79h.946a2.481 2.481 0 0 1-.913 1.377 2.53 2.53 0 0 1-1.599.547c-.756 0-1.34-.23-1.753-.691-.41-.461-.614-1.07-.614-1.825 0-.638.123-1.22.37-1.743.251-.524.602-.937 1.052-1.239a2.691 2.691 0 0 1 1.526-.453zm2.44 5.853 1.698-7.982h.968l-.664 3.125h.022a2.06 2.06 0 0 1 .741-.713 2.188 2.188 0 0 1 1.118-.282c.546 0 .988.17 1.327.508.343.34.515.745.515 1.217 0 .2-.026.423-.078.67l-.758 3.457h-.968l.725-3.291c.048-.229.072-.417.072-.565 0-.343-.113-.62-.337-.83-.222-.21-.524-.315-.908-.315a1.65 1.65 0 0 0-1.14.432c-.32.284-.53.656-.63 1.117l-.735 3.452h-.968zm6.162 0 1.222-5.753h.974l-1.223 5.753h-.973zm2.467-6.898a.58.58 0 0 1-.426.177.58.58 0 0 1-.426-.177.58.58 0 0 1-.177-.426.58.58 0 0 1 .177-.426.58.58 0 0 1 .426-.177.58.58 0 0 1 .426.177.58.58 0 0 1 .177.426.58.58 0 0 1-.177.426zm-.21 6.898 1.222-5.753h.918l-.188.896h.022c.196-.313.452-.557.77-.73.316-.177.68-.266 1.089-.266.516 0 .95.16 1.3.482.35.32.525.724.525 1.211 0 .218-.026.452-.077.703l-.736 3.457h-.968l.703-3.291c.047-.225.072-.425.072-.598 0-.343-.111-.614-.332-.813-.222-.2-.518-.299-.891-.299a1.6 1.6 0 0 0-1.1.42c-.314.281-.523.657-.626 1.13l-.736 3.45h-.968zm8.319 2.168c-.664 0-1.219-.16-1.665-.481-.446-.317-.67-.721-.67-1.211h.99c.041.265.181.477.421.636.243.158.551.237.924.237 1 0 1.632-.543 1.897-1.631l.177-.73h-.022a2.012 2.012 0 0 1-.769.73 2.08 2.08 0 0 1-1.04.282c-.653 0-1.176-.221-1.57-.664-.395-.446-.593-1.042-.593-1.787 0-.427.063-.842.189-1.244.129-.402.311-.764.547-1.084.236-.325.54-.585.913-.78a2.613 2.613 0 0 1 1.233-.294c.454 0 .847.126 1.178.377.336.25.556.568.659.951h.027l.244-1.228h.946l-1.15 5.454c-.17.808-.508 1.42-1.013 1.837-.502.42-1.12.63-1.853.63zm.459-3.014c.402 0 .756-.117 1.062-.349.31-.236.542-.544.697-.924.158-.383.238-.806.238-1.266 0-.469-.142-.854-.426-1.157-.28-.306-.63-.459-1.051-.459-.58 0-1.047.24-1.405.72-.354.479-.531 1.082-.531 1.808 0 .494.122.889.365 1.184.247.295.597.443 1.05.443z" fill="#F36"/>
    <path d="m46.62 44.424 1.222-5.753h.918l-.194.924h.023c.147-.288.372-.53.674-.725.303-.199.63-.298.985-.298.39 0 .723.103.996.31.276.202.45.442.52.718h.016a2.63 2.63 0 0 1 .786-.735c.32-.196.695-.294 1.122-.294.469 0 .856.148 1.162.443.31.291.465.666.465 1.123 0 .214-.024.433-.072.658l-.769 3.629h-.968l.736-3.463c.044-.203.066-.387.066-.553 0-.28-.09-.514-.271-.703-.18-.188-.424-.282-.73-.282-.343 0-.658.128-.946.382-.288.25-.476.586-.564 1.007l-.77 3.612h-.967l.736-3.463c.047-.221.072-.405.072-.553 0-.28-.09-.514-.272-.703-.18-.188-.425-.282-.735-.282-.336 0-.651.131-.946.393-.291.262-.478.59-.559.985l-.769 3.623h-.968zm11.24-.72c.412 0 .777-.12 1.095-.359.32-.243.523-.557.608-.94l.144-.642-1.571.083c-.432.022-.767.118-1.007.288a.807.807 0 0 0-.354.691c0 .266.1.48.299.642.199.159.46.238.785.238zm-.255.82c-.505 0-.933-.15-1.283-.449a1.46 1.46 0 0 1-.52-1.15c0-.557.204-.992.614-1.306.409-.317.986-.496 1.73-.536l1.721-.089.078-.36c.014-.062.022-.156.022-.281 0-.292-.1-.52-.299-.686-.2-.166-.481-.25-.846-.25-.38 0-.686.086-.919.255-.232.166-.377.391-.436.675H56.46c.088-.527.352-.955.79-1.283.44-.328.99-.492 1.65-.492.611 0 1.104.153 1.476.459.373.302.559.697.559 1.183 0 .17-.013.332-.039.487l-.791 3.723h-.924l.15-.703h-.017c-.2.251-.448.448-.747.592-.295.14-.615.21-.962.21zm6.195 0c-.656 0-1.178-.226-1.565-.675-.384-.454-.576-1.055-.576-1.804 0-.652.126-1.244.377-1.775.254-.531.6-.946 1.04-1.245a2.542 2.542 0 0 1 1.465-.453c.45 0 .847.123 1.19.37.346.247.566.551.658.913h.028l.735-3.413h.963l-1.698 7.982h-.969l.194-.918h-.022a2.07 2.07 0 0 1-.769.73 2.07 2.07 0 0 1-1.05.287zm.221-.847c.58 0 1.059-.25 1.439-.752.383-.502.575-1.13.575-1.886 0-.48-.135-.869-.404-1.168-.27-.298-.629-.448-1.079-.448-.553 0-1.014.242-1.383.725-.365.483-.547 1.1-.547 1.853 0 .52.123.93.37 1.228.248.299.59.448 1.03.448zm5.111-2.672h3.081c.004-.033.006-.084.006-.155 0-.401-.112-.74-.337-1.017-.225-.28-.565-.42-1.018-.42-.432 0-.799.147-1.101.442-.299.295-.509.678-.63 1.15zm1.262 3.53c-.76 0-1.345-.233-1.754-.697-.41-.469-.614-1.081-.614-1.837 0-.627.12-1.2.36-1.72.24-.524.577-.939 1.012-1.245a2.5 2.5 0 0 1 1.477-.465c.715 0 1.281.218 1.698.653.417.435.625 1.027.625 1.776 0 .302-.016.56-.05.774h-4.137c-.004.044-.006.11-.006.2 0 .527.126.945.376 1.255.255.306.596.46 1.024.46.376 0 .7-.093.973-.277.273-.185.476-.437.609-.758h.946c-.152.542-.461.992-.93 1.35a2.598 2.598 0 0 1-1.61.53zm7.334-3.53h3.081a1.55 1.55 0 0 0 .006-.155c0-.401-.113-.74-.337-1.017-.225-.28-.565-.42-1.018-.42-.432 0-.799.147-1.101.442-.299.295-.509.678-.63 1.15zm1.262 3.53c-.76 0-1.345-.233-1.754-.697-.41-.469-.614-1.081-.614-1.837 0-.627.12-1.2.36-1.72.24-.524.577-.939 1.012-1.245a2.5 2.5 0 0 1 1.477-.465c.715 0 1.281.218 1.698.653.417.435.625 1.027.625 1.776 0 .302-.017.56-.05.774h-4.137c-.004.044-.006.11-.006.2 0 .527.126.945.376 1.255.255.306.596.46 1.024.46.376 0 .7-.093.973-.277.273-.185.476-.437.609-.758h.945a2.516 2.516 0 0 1-.929 1.35 2.598 2.598 0 0 1-1.61.53zm5.343-.83c.413 0 .778-.12 1.095-.36.321-.243.524-.557.609-.94l.143-.642-1.57.083c-.432.022-.767.118-1.007.288a.807.807 0 0 0-.354.691c0 .266.1.48.298.642.2.159.461.238.786.238zm-.254.818c-.506 0-.933-.149-1.284-.448a1.46 1.46 0 0 1-.52-1.15c0-.557.205-.992.614-1.306.41-.317.987-.496 1.732-.536l1.72-.089.077-.36c.015-.062.022-.156.022-.281 0-.292-.1-.52-.298-.686-.2-.166-.481-.25-.847-.25-.38 0-.686.086-.918.255-.232.166-.378.391-.437.675h-1.007c.089-.527.353-.955.791-1.283.44-.328.989-.492 1.649-.492.612 0 1.104.153 1.477.459.372.302.558.697.558 1.183 0 .17-.013.332-.038.487l-.791 3.723h-.924l.15-.703h-.017c-.2.251-.448.448-.747.592-.295.14-.616.21-.962.21zm4.447-4.237c0-.498.197-.907.592-1.228.398-.32.912-.48 1.543-.48.62 0 1.125.163 1.516.491.394.325.595.745.602 1.261h-.918a.974.974 0 0 0-.376-.696c-.225-.181-.503-.272-.835-.272-.358 0-.644.08-.858.238-.213.155-.32.354-.32.598 0 .203.07.367.21.492.144.126.396.244.758.354l.498.155c.512.159.883.358 1.111.597.229.24.343.55.343.93 0 .516-.212.946-.636 1.288-.42.34-.951.51-1.593.51-.671 0-1.219-.168-1.643-.504-.42-.336-.64-.762-.658-1.278h.963c.044.299.188.539.43.72.244.18.562.27.952.27.347 0 .637-.092.869-.276.232-.185.348-.41.348-.675a.528.528 0 0 0-.188-.431c-.125-.104-.37-.212-.736-.327l-.497-.155c-.524-.162-.902-.367-1.134-.614-.229-.25-.343-.573-.343-.968zm4.502 6.234c-.247 0-.464-.031-.652-.094l.143-.802c.144.06.318.089.52.089.45 0 .834-.316 1.151-.946l.188-.376-.94-5.72h.951l.692 4.69h.016l2.5-4.69h1.062l-3.595 6.383c-.317.56-.63.944-.94 1.151-.31.21-.675.315-1.096.315z" fill="#25282B"/>
</svg>