<?xml version="1.0" encoding="UTF-8"?>
<svg xmlns="http://www.w3.org/2000/svg" xmlns:xlink="http://www.w3.org/1999/xlink" width="300" zoomAndPan="magnify" viewBox="0 0 224.87999 60" height="80" preserveAspectRatio="xMidYMid meet" version="1.0">
  <defs>
    <g></g>
    <clipPath id="8e75320ddb">
      <path d="M 0 0.015625 L 224.761719 0.015625 L 224.761719 59.984375 L 0 59.984375 Z M 0 0.015625 " clip-rule="nonzero"></path>
    </clipPath>
    <clipPath id="249dde0dea">
      <path d="M 2.25 1.761719 L 52.273438 1.761719 L 52.273438 57.617188 L 2.25 57.617188 Z M 2.25 1.761719 " clip-rule="nonzero"></path>
    </clipPath>
    <clipPath id="d74c7498d2">
      <path d="M 2.257812 57.617188 C 15.53125 56.714844 15.75 46.996094 17.4375 36.65625 C 15.738281 37.625 14.304688 38.988281 13.261719 40.632812 C 12.683594 37.085938 13.851562 33.402344 16.765625 29.578125 C 14.054688 29.988281 11.851562 29.289062 10.160156 27.484375 C 16.367188 26.804688 20.96875 24.59375 23.953125 20.839844 C 21.152344 20.246094 19.625 18.507812 19.371094 15.625 C 20.921875 16.972656 22.75 17.65625 24.855469 17.675781 C 23.492188 17.144531 22.730469 16.296875 22.5625 15.136719 C 23.640625 15.765625 24.402344 16.03125 24.855469 15.9375 C 33.09375 15.535156 37.015625 15.074219 38.917969 18.566406 C 41.832031 18.425781 44.503906 18.996094 46.9375 20.285156 C 18.433594 23.878906 29.699219 51.050781 46.246094 33.789062 C 49.503906 30.394531 51.707031 25.992188 52.171875 21.199219 C 53.214844 10.507812 45.25 1.765625 34.476562 1.765625 L 11.375 1.765625 Z M 2.257812 57.617188 " clip-rule="evenodd"></path>
    </clipPath>
    <linearGradient x1="753.55705" gradientTransform="matrix(0.053209, 0, 0, 0.052784, 2.258782, 1.763308)" y1="-99.358583" x2="106.324776" gradientUnits="userSpaceOnUse" y2="1114.817739" id="5d17f2dd9c">
      <stop stop-opacity="1" stop-color="rgb(0%, 28.999329%, 67.799377%)" offset="0"></stop>
      <stop stop-opacity="1" stop-color="rgb(0.088501%, 29.042053%, 67.887878%)" offset="0.125"></stop>
      <stop stop-opacity="1" stop-color="rgb(0.323486%, 29.153442%, 68.12439%)" offset="0.132812"></stop>
      <stop stop-opacity="1" stop-color="rgb(0.617981%, 29.293823%, 68.418884%)" offset="0.140625"></stop>
      <stop stop-opacity="1" stop-color="rgb(0.912476%, 29.434204%, 68.713379%)" offset="0.148438"></stop>
      <stop stop-opacity="1" stop-color="rgb(1.20697%, 29.573059%, 69.007874%)" offset="0.15625"></stop>
      <stop stop-opacity="1" stop-color="rgb(1.501465%, 29.71344%, 69.300842%)" offset="0.164063"></stop>
      <stop stop-opacity="1" stop-color="rgb(1.795959%, 29.852295%, 69.595337%)" offset="0.171875"></stop>
      <stop stop-opacity="1" stop-color="rgb(2.090454%, 29.992676%, 69.889832%)" offset="0.179688"></stop>
      <stop stop-opacity="1" stop-color="rgb(2.384949%, 30.133057%, 70.184326%)" offset="0.1875"></stop>
      <stop stop-opacity="1" stop-color="rgb(2.679443%, 30.271912%, 70.478821%)" offset="0.195313"></stop>
      <stop stop-opacity="1" stop-color="rgb(2.973938%, 30.412292%, 70.773315%)" offset="0.203125"></stop>
      <stop stop-opacity="1" stop-color="rgb(3.266907%, 30.552673%, 71.06781%)" offset="0.210938"></stop>
      <stop stop-opacity="1" stop-color="rgb(3.561401%, 30.691528%, 71.362305%)" offset="0.21875"></stop>
      <stop stop-opacity="1" stop-color="rgb(3.855896%, 30.831909%, 71.656799%)" offset="0.226563"></stop>
      <stop stop-opacity="1" stop-color="rgb(4.150391%, 30.97229%, 71.951294%)" offset="0.234375"></stop>
      <stop stop-opacity="1" stop-color="rgb(4.444885%, 31.111145%, 72.244263%)" offset="0.242188"></stop>
      <stop stop-opacity="1" stop-color="rgb(4.73938%, 31.251526%, 72.538757%)" offset="0.25"></stop>
      <stop stop-opacity="1" stop-color="rgb(5.033875%, 31.391907%, 72.833252%)" offset="0.257812"></stop>
      <stop stop-opacity="1" stop-color="rgb(5.328369%, 31.530762%, 73.127747%)" offset="0.265625"></stop>
      <stop stop-opacity="1" stop-color="rgb(5.622864%, 31.671143%, 73.422241%)" offset="0.273438"></stop>
      <stop stop-opacity="1" stop-color="rgb(5.917358%, 31.811523%, 73.716736%)" offset="0.28125"></stop>
      <stop stop-opacity="1" stop-color="rgb(6.210327%, 31.950378%, 74.01123%)" offset="0.289063"></stop>
      <stop stop-opacity="1" stop-color="rgb(6.504822%, 32.090759%, 74.305725%)" offset="0.296875"></stop>
      <stop stop-opacity="1" stop-color="rgb(6.799316%, 32.23114%, 74.60022%)" offset="0.304688"></stop>
      <stop stop-opacity="1" stop-color="rgb(7.093811%, 32.369995%, 74.894714%)" offset="0.3125"></stop>
      <stop stop-opacity="1" stop-color="rgb(7.388306%, 32.510376%, 75.187683%)" offset="0.320312"></stop>
      <stop stop-opacity="1" stop-color="rgb(7.6828%, 32.650757%, 75.482178%)" offset="0.32136"></stop>
      <stop stop-opacity="1" stop-color="rgb(7.830811%, 32.720947%, 75.630188%)" offset="0.328125"></stop>
      <stop stop-opacity="1" stop-color="rgb(7.977295%, 32.789612%, 75.776672%)" offset="0.335938"></stop>
      <stop stop-opacity="1" stop-color="rgb(8.27179%, 32.929993%, 76.071167%)" offset="0.34375"></stop>
      <stop stop-opacity="1" stop-color="rgb(8.566284%, 33.070374%, 76.365662%)" offset="0.351563"></stop>
      <stop stop-opacity="1" stop-color="rgb(8.860779%, 33.209229%, 76.660156%)" offset="0.359375"></stop>
      <stop stop-opacity="1" stop-color="rgb(9.153748%, 33.349609%, 76.954651%)" offset="0.367187"></stop>
      <stop stop-opacity="1" stop-color="rgb(9.448242%, 33.48999%, 77.249146%)" offset="0.375"></stop>
      <stop stop-opacity="1" stop-color="rgb(9.742737%, 33.628845%, 77.54364%)" offset="0.382812"></stop>
      <stop stop-opacity="1" stop-color="rgb(10.037231%, 33.769226%, 77.838135%)" offset="0.390625"></stop>
      <stop stop-opacity="1" stop-color="rgb(10.331726%, 33.909607%, 78.131104%)" offset="0.398438"></stop>
      <stop stop-opacity="1" stop-color="rgb(10.626221%, 34.048462%, 78.425598%)" offset="0.40625"></stop>
      <stop stop-opacity="1" stop-color="rgb(10.920715%, 34.188843%, 78.720093%)" offset="0.414063"></stop>
      <stop stop-opacity="1" stop-color="rgb(11.21521%, 34.327698%, 79.014587%)" offset="0.421875"></stop>
      <stop stop-opacity="1" stop-color="rgb(11.509705%, 34.468079%, 79.309082%)" offset="0.429687"></stop>
      <stop stop-opacity="1" stop-color="rgb(11.804199%, 34.608459%, 79.603577%)" offset="0.4375"></stop>
      <stop stop-opacity="1" stop-color="rgb(12.097168%, 34.747314%, 79.898071%)" offset="0.445312"></stop>
      <stop stop-opacity="1" stop-color="rgb(12.391663%, 34.887695%, 80.192566%)" offset="0.453125"></stop>
      <stop stop-opacity="1" stop-color="rgb(12.686157%, 35.028076%, 80.487061%)" offset="0.460938"></stop>
      <stop stop-opacity="1" stop-color="rgb(12.980652%, 35.166931%, 80.781555%)" offset="0.46875"></stop>
      <stop stop-opacity="1" stop-color="rgb(13.275146%, 35.307312%, 81.074524%)" offset="0.476562"></stop>
      <stop stop-opacity="1" stop-color="rgb(13.569641%, 35.447693%, 81.369019%)" offset="0.484375"></stop>
      <stop stop-opacity="1" stop-color="rgb(13.864136%, 35.586548%, 81.663513%)" offset="0.492188"></stop>
      <stop stop-opacity="1" stop-color="rgb(14.15863%, 35.726929%, 81.958008%)" offset="0.5"></stop>
      <stop stop-opacity="1" stop-color="rgb(14.453125%, 35.86731%, 82.252502%)" offset="0.507813"></stop>
      <stop stop-opacity="1" stop-color="rgb(14.746094%, 36.006165%, 82.546997%)" offset="0.515625"></stop>
      <stop stop-opacity="1" stop-color="rgb(15.040588%, 36.146545%, 82.841492%)" offset="0.523438"></stop>
      <stop stop-opacity="1" stop-color="rgb(15.335083%, 36.286926%, 83.135986%)" offset="0.53125"></stop>
      <stop stop-opacity="1" stop-color="rgb(15.629578%, 36.425781%, 83.430481%)" offset="0.539062"></stop>
      <stop stop-opacity="1" stop-color="rgb(15.924072%, 36.566162%, 83.72345%)" offset="0.546875"></stop>
      <stop stop-opacity="1" stop-color="rgb(16.218567%, 36.706543%, 84.017944%)" offset="0.554688"></stop>
      <stop stop-opacity="1" stop-color="rgb(16.513062%, 36.845398%, 84.312439%)" offset="0.5625"></stop>
      <stop stop-opacity="1" stop-color="rgb(16.807556%, 36.985779%, 84.606934%)" offset="0.570312"></stop>
      <stop stop-opacity="1" stop-color="rgb(17.102051%, 37.12616%, 84.901428%)" offset="0.578125"></stop>
      <stop stop-opacity="1" stop-color="rgb(17.396545%, 37.265015%, 85.195923%)" offset="0.585938"></stop>
      <stop stop-opacity="1" stop-color="rgb(17.689514%, 37.405396%, 85.490417%)" offset="0.59375"></stop>
      <stop stop-opacity="1" stop-color="rgb(17.984009%, 37.545776%, 85.784912%)" offset="0.601563"></stop>
      <stop stop-opacity="1" stop-color="rgb(18.278503%, 37.684631%, 86.079407%)" offset="0.609375"></stop>
      <stop stop-opacity="1" stop-color="rgb(18.572998%, 37.825012%, 86.373901%)" offset="0.617188"></stop>
      <stop stop-opacity="1" stop-color="rgb(18.867493%, 37.965393%, 86.66687%)" offset="0.625"></stop>
      <stop stop-opacity="1" stop-color="rgb(19.161987%, 38.104248%, 86.961365%)" offset="0.632813"></stop>
      <stop stop-opacity="1" stop-color="rgb(19.456482%, 38.244629%, 87.255859%)" offset="0.640625"></stop>
      <stop stop-opacity="1" stop-color="rgb(19.750977%, 38.38501%, 87.550354%)" offset="0.648438"></stop>
      <stop stop-opacity="1" stop-color="rgb(20.045471%, 38.523865%, 87.844849%)" offset="0.65625"></stop>
      <stop stop-opacity="1" stop-color="rgb(20.339966%, 38.664246%, 88.139343%)" offset="0.664062"></stop>
      <stop stop-opacity="1" stop-color="rgb(20.632935%, 38.803101%, 88.433838%)" offset="0.671875"></stop>
      <stop stop-opacity="1" stop-color="rgb(20.927429%, 38.943481%, 88.728333%)" offset="0.67864"></stop>
      <stop stop-opacity="1" stop-color="rgb(21.075439%, 39.013672%, 88.876343%)" offset="0.679688"></stop>
      <stop stop-opacity="1" stop-color="rgb(21.221924%, 39.083862%, 89.022827%)" offset="0.6875"></stop>
      <stop stop-opacity="1" stop-color="rgb(21.516418%, 39.222717%, 89.317322%)" offset="0.695312"></stop>
      <stop stop-opacity="1" stop-color="rgb(21.810913%, 39.363098%, 89.610291%)" offset="0.703125"></stop>
      <stop stop-opacity="1" stop-color="rgb(22.105408%, 39.503479%, 89.904785%)" offset="0.710938"></stop>
      <stop stop-opacity="1" stop-color="rgb(22.399902%, 39.642334%, 90.19928%)" offset="0.71875"></stop>
      <stop stop-opacity="1" stop-color="rgb(22.694397%, 39.782715%, 90.493774%)" offset="0.726563"></stop>
      <stop stop-opacity="1" stop-color="rgb(22.988892%, 39.923096%, 90.788269%)" offset="0.734375"></stop>
      <stop stop-opacity="1" stop-color="rgb(23.283386%, 40.061951%, 91.082764%)" offset="0.742188"></stop>
      <stop stop-opacity="1" stop-color="rgb(23.576355%, 40.202332%, 91.377258%)" offset="0.75"></stop>
      <stop stop-opacity="1" stop-color="rgb(23.87085%, 40.342712%, 91.671753%)" offset="0.757813"></stop>
      <stop stop-opacity="1" stop-color="rgb(24.165344%, 40.481567%, 91.966248%)" offset="0.765625"></stop>
      <stop stop-opacity="1" stop-color="rgb(24.459839%, 40.621948%, 92.260742%)" offset="0.773438"></stop>
      <stop stop-opacity="1" stop-color="rgb(24.754333%, 40.762329%, 92.553711%)" offset="0.78125"></stop>
      <stop stop-opacity="1" stop-color="rgb(25.048828%, 40.901184%, 92.848206%)" offset="0.789062"></stop>
      <stop stop-opacity="1" stop-color="rgb(25.343323%, 41.041565%, 93.1427%)" offset="0.796875"></stop>
      <stop stop-opacity="1" stop-color="rgb(25.637817%, 41.181946%, 93.437195%)" offset="0.804688"></stop>
      <stop stop-opacity="1" stop-color="rgb(25.932312%, 41.320801%, 93.731689%)" offset="0.8125"></stop>
      <stop stop-opacity="1" stop-color="rgb(26.226807%, 41.461182%, 94.026184%)" offset="0.820312"></stop>
      <stop stop-opacity="1" stop-color="rgb(26.519775%, 41.601562%, 94.320679%)" offset="0.828125"></stop>
      <stop stop-opacity="1" stop-color="rgb(26.81427%, 41.740417%, 94.615173%)" offset="0.835938"></stop>
      <stop stop-opacity="1" stop-color="rgb(27.108765%, 41.880798%, 94.909668%)" offset="0.84375"></stop>
      <stop stop-opacity="1" stop-color="rgb(27.403259%, 42.021179%, 95.204163%)" offset="0.851562"></stop>
      <stop stop-opacity="1" stop-color="rgb(27.697754%, 42.160034%, 95.497131%)" offset="0.859375"></stop>
      <stop stop-opacity="1" stop-color="rgb(27.992249%, 42.300415%, 95.791626%)" offset="0.867188"></stop>
      <stop stop-opacity="1" stop-color="rgb(28.286743%, 42.440796%, 96.086121%)" offset="0.875"></stop>
      <stop stop-opacity="1" stop-color="rgb(28.581238%, 42.579651%, 96.380615%)" offset="0.882812"></stop>
      <stop stop-opacity="1" stop-color="rgb(28.875732%, 42.720032%, 96.67511%)" offset="0.890625"></stop>
      <stop stop-opacity="1" stop-color="rgb(29.168701%, 42.860413%, 96.969604%)" offset="0.898438"></stop>
      <stop stop-opacity="1" stop-color="rgb(29.463196%, 42.999268%, 97.264099%)" offset="0.90625"></stop>
      <stop stop-opacity="1" stop-color="rgb(29.75769%, 43.139648%, 97.558594%)" offset="0.914062"></stop>
      <stop stop-opacity="1" stop-color="rgb(30.052185%, 43.278503%, 97.853088%)" offset="0.921875"></stop>
      <stop stop-opacity="1" stop-color="rgb(30.34668%, 43.418884%, 98.146057%)" offset="0.929688"></stop>
      <stop stop-opacity="1" stop-color="rgb(30.641174%, 43.559265%, 98.440552%)" offset="0.9375"></stop>
      <stop stop-opacity="1" stop-color="rgb(30.935669%, 43.69812%, 98.735046%)" offset="0.945313"></stop>
      <stop stop-opacity="1" stop-color="rgb(31.230164%, 43.838501%, 99.029541%)" offset="0.953125"></stop>
      <stop stop-opacity="1" stop-color="rgb(31.524658%, 43.978882%, 99.324036%)" offset="0.960938"></stop>
      <stop stop-opacity="1" stop-color="rgb(31.819153%, 44.117737%, 99.61853%)" offset="0.96875"></stop>
      <stop stop-opacity="1" stop-color="rgb(32.081604%, 44.242859%, 99.882507%)" offset="1"></stop>
    </linearGradient>
    <clipPath id="a04f57c85e">
      <path d="M 30.808594 49.765625 L 39.066406 49.765625 L 39.066406 58.019531 L 30.808594 58.019531 Z M 30.808594 49.765625 " clip-rule="nonzero"></path>
    </clipPath>
  </defs>
  <g clip-path="url(#8e75320ddb)">
    <path fill="#ffffff" d="M 0 0.015625 L 224.878906 0.015625 L 224.878906 67.480469 L 0 67.480469 Z M 0 0.015625 " fill-opacity="1" fill-rule="nonzero"></path>
    <path fill="#ffffff" d="M 0 0.015625 L 224.878906 0.015625 L 224.878906 59.984375 L 0 59.984375 Z M 0 0.015625 " fill-opacity="1" fill-rule="nonzero"></path>
    <path fill="#ffffff" d="M 0 0.015625 L 224.878906 0.015625 L 224.878906 59.984375 L 0 59.984375 Z M 0 0.015625 " fill-opacity="1" fill-rule="nonzero"></path>
  </g>
  <g clip-path="url(#249dde0dea)">
    <g clip-path="url(#d74c7498d2)">
      <path fill="url(#5d17f2dd9c)" d="M 2.257812 1.765625 L 2.257812 57.617188 L 52.273438 57.617188 L 52.273438 1.765625 Z M 2.257812 1.765625 " fill-rule="nonzero"></path>
    </g>
  </g>
  <g clip-path="url(#a04f57c85e)">
    <path fill="#5271ff" d="M 39.066406 53.894531 C 39.066406 54.164062 39.039062 54.433594 38.988281 54.699219 C 38.933594 54.964844 38.855469 55.222656 38.753906 55.472656 C 38.648438 55.722656 38.523438 55.960938 38.371094 56.1875 C 38.21875 56.410156 38.050781 56.621094 37.859375 56.8125 C 37.664062 57.003906 37.457031 57.175781 37.230469 57.324219 C 37.007812 57.476562 36.769531 57.601562 36.519531 57.707031 C 36.269531 57.8125 36.007812 57.890625 35.742188 57.941406 C 35.476562 57.996094 35.210938 58.019531 34.9375 58.019531 C 34.667969 58.019531 34.398438 57.996094 34.132812 57.941406 C 33.867188 57.890625 33.609375 57.8125 33.359375 57.707031 C 33.109375 57.601562 32.871094 57.476562 32.644531 57.324219 C 32.417969 57.175781 32.210938 57.003906 32.019531 56.8125 C 31.828125 56.621094 31.65625 56.410156 31.507812 56.1875 C 31.355469 55.960938 31.226562 55.722656 31.125 55.472656 C 31.019531 55.222656 30.941406 54.964844 30.890625 54.699219 C 30.835938 54.433594 30.808594 54.164062 30.808594 53.894531 C 30.808594 53.621094 30.835938 53.351562 30.890625 53.085938 C 30.941406 52.820312 31.019531 52.5625 31.125 52.3125 C 31.226562 52.0625 31.355469 51.824219 31.507812 51.597656 C 31.65625 51.375 31.828125 51.164062 32.019531 50.972656 C 32.210938 50.78125 32.417969 50.609375 32.644531 50.460938 C 32.871094 50.308594 33.109375 50.183594 33.359375 50.078125 C 33.609375 49.976562 33.867188 49.898438 34.132812 49.84375 C 34.398438 49.792969 34.667969 49.765625 34.9375 49.765625 C 35.210938 49.765625 35.476562 49.792969 35.742188 49.84375 C 36.007812 49.898438 36.269531 49.976562 36.519531 50.078125 C 36.769531 50.183594 37.007812 50.308594 37.230469 50.460938 C 37.457031 50.609375 37.664062 50.78125 37.859375 50.972656 C 38.050781 51.164062 38.21875 51.375 38.371094 51.597656 C 38.523438 51.824219 38.648438 52.0625 38.753906 52.3125 C 38.855469 52.5625 38.933594 52.820312 38.988281 53.085938 C 39.039062 53.351562 39.066406 53.621094 39.066406 53.894531 Z M 39.066406 53.894531 " fill-opacity="1" fill-rule="nonzero"></path>
  </g>
  <g fill="#004aad" fill-opacity="1">
    <g transform="translate(60.183841, 34.951837)">
      <g>
        <path d="M 6.417969 -12.875 L 1.472656 -12.875 L 1.472656 0 L 4.25 0 L 4.25 -4.011719 L 6.417969 -4.011719 C 9.011719 -4.011719 10.964844 -5.90625 10.964844 -8.445312 C 10.964844 -10.980469 8.996094 -12.875 6.417969 -12.875 Z M 6.292969 -6.585938 L 4.25 -6.585938 L 4.25 -10.28125 L 6.292969 -10.28125 C 7.394531 -10.28125 8.148438 -9.511719 8.148438 -8.445312 C 8.148438 -7.375 7.394531 -6.585938 6.292969 -6.585938 Z M 6.292969 -6.585938 "></path>
      </g>
    </g>
  </g>
  <g fill="#004aad" fill-opacity="1">
    <g transform="translate(71.621623, 34.951837)">
      <g>
        <path d="M 6.363281 -9.988281 C 5.078125 -9.988281 4.195312 -9.582031 3.476562 -8.699219 L 3 -9.933594 L 1.289062 -9.933594 L 1.289062 0 L 3.972656 0 L 3.972656 -5.152344 C 3.972656 -6.769531 4.5625 -7.449219 6.070312 -7.449219 L 7.246094 -7.449219 L 7.246094 -9.988281 Z M 6.363281 -9.988281 "></path>
      </g>
    </g>
  </g>
  <g fill="#004aad" fill-opacity="1">
    <g transform="translate(79.105829, 34.951837)">
      <g>
        <path d="M 5.996094 0.292969 C 9.070312 0.292969 11.367188 -1.96875 11.367188 -4.964844 C 11.367188 -7.964844 9.070312 -10.210938 5.996094 -10.210938 C 2.925781 -10.210938 0.625 -7.964844 0.625 -4.964844 C 0.625 -1.96875 2.925781 0.292969 5.996094 0.292969 Z M 5.996094 -2.246094 C 4.453125 -2.246094 3.347656 -3.347656 3.347656 -4.964844 C 3.347656 -6.566406 4.453125 -7.6875 5.996094 -7.6875 C 7.542969 -7.6875 8.644531 -6.566406 8.644531 -4.964844 C 8.644531 -3.347656 7.542969 -2.246094 5.996094 -2.246094 Z M 5.996094 -2.246094 "></path>
      </g>
    </g>
  </g>
  <g fill="#004aad" fill-opacity="1">
    <g transform="translate(91.113657, 34.951837)">
      <g>
        <path d="M 6.695312 -10.210938 C 5.664062 -10.210938 4.726562 -9.914062 3.972656 -9.382812 L 3.972656 -13.503906 L 1.289062 -13.503906 L 1.289062 0.0195312 L 3.257812 0.0195312 L 3.585938 -0.828125 C 4.414062 -0.109375 5.480469 0.292969 6.695312 0.292969 C 9.710938 0.292969 11.921875 -1.949219 11.921875 -4.949219 C 11.921875 -7.964844 9.710938 -10.210938 6.695312 -10.210938 Z M 6.476562 -2.246094 C 4.910156 -2.246094 3.769531 -3.421875 3.769531 -4.964844 C 3.769531 -6.511719 4.910156 -7.6875 6.476562 -7.6875 C 8.039062 -7.6875 9.179688 -6.511719 9.179688 -4.964844 C 9.179688 -3.421875 8.039062 -2.246094 6.476562 -2.246094 Z M 6.476562 -2.246094 "></path>
      </g>
    </g>
  </g>
  <g fill="#004aad" fill-opacity="1">
    <g transform="translate(103.673151, 34.951837)">
      <g>
        <path d="M 1.289062 -11.257812 L 3.953125 -11.257812 L 3.953125 -13.742188 L 1.289062 -13.742188 Z M 1.289062 0 L 3.972656 0 L 3.972656 -9.933594 L 1.289062 -9.933594 Z M 1.289062 0 "></path>
      </g>
    </g>
  </g>
  <g fill="#004aad" fill-opacity="1">
    <g transform="translate(108.932326, 34.951837)">
      <g>
        <path d="M 6.144531 -2.390625 C 5.152344 -2.390625 4.597656 -2.941406 4.597656 -3.898438 L 4.597656 -7.761719 L 7.304688 -7.761719 L 7.304688 -9.933594 L 4.5625 -9.933594 L 4.5625 -12.507812 L 4.046875 -12.507812 L 0.128906 -8.351562 L 0.128906 -7.761719 L 1.914062 -7.761719 L 1.914062 -3.53125 C 1.914062 -1.34375 3.257812 0 5.445312 0 L 7.359375 0 L 7.359375 -2.390625 Z M 6.144531 -2.390625 "></path>
      </g>
    </g>
  </g>
  <g fill="#004aad" fill-opacity="1">
    <g transform="translate(116.839475, 34.951837)">
      <g>
        <path d="M 8.148438 -9.933594 L 5.664062 -3.808594 L 3.015625 -9.933594 L 0.09375 -9.933594 L 4.304688 -0.753906 L 4.269531 -0.679688 C 3.660156 0.828125 3.328125 1.175781 2.023438 1.175781 L 1.105469 1.175781 L 1.105469 3.585938 L 2.207031 3.585938 C 4.433594 3.585938 5.480469 2.574219 6.675781 -0.128906 L 11 -9.933594 Z M 8.148438 -9.933594 "></path>
      </g>
    </g>
  </g>
  <g fill="#004aad" fill-opacity="1">
    <g transform="translate(127.909479, 34.951837)">
      <g></g>
    </g>
  </g>
  <g fill="#004aad" fill-opacity="1">
    <g transform="translate(132.304377, 34.951837)">
      <g>
        <path d="M 8.554688 0 L 11.664062 0 L 8.8125 -4.855469 C 10.246094 -5.554688 11.164062 -6.917969 11.164062 -8.609375 C 11.164062 -11.09375 9.234375 -12.875 6.660156 -12.875 L 1.472656 -12.875 L 1.472656 0 L 4.25 0 L 4.25 -4.378906 L 6.035156 -4.378906 Z M 4.25 -10.300781 L 6.476562 -10.300781 C 7.652344 -10.300781 8.332031 -9.582031 8.332031 -8.628906 C 8.332031 -7.652344 7.652344 -6.953125 6.476562 -6.953125 L 4.25 -6.953125 Z M 4.25 -10.300781 "></path>
      </g>
    </g>
  </g>
  <g fill="#004aad" fill-opacity="1">
    <g transform="translate(144.459309, 34.951837)">
      <g>
        <path d="M 10.925781 -4.984375 C 10.925781 -7.855469 8.828125 -10.210938 5.777344 -10.210938 C 2.832031 -10.210938 0.625 -7.945312 0.625 -4.964844 C 0.625 -1.988281 2.851562 0.292969 5.777344 0.292969 C 8.09375 0.292969 9.988281 -1.085938 10.707031 -3.257812 L 7.890625 -3.257812 C 7.488281 -2.539062 6.714844 -2.097656 5.777344 -2.097656 C 4.46875 -2.097656 3.585938 -2.851562 3.347656 -4.210938 L 10.871094 -4.210938 C 10.910156 -4.46875 10.925781 -4.726562 10.925781 -4.984375 Z M 5.777344 -7.910156 C 6.988281 -7.910156 7.855469 -7.246094 8.242188 -6.035156 L 3.421875 -6.035156 C 3.734375 -7.210938 4.582031 -7.910156 5.777344 -7.910156 Z M 5.777344 -7.910156 "></path>
      </g>
    </g>
  </g>
  <g fill="#004aad" fill-opacity="1">
    <g transform="translate(156.007421, 34.951837)">
      <g>
        <path d="M 4.800781 0.292969 C 7.320312 0.292969 8.976562 -1.03125 8.976562 -3.054688 C 8.976562 -5.480469 6.898438 -5.8125 5.28125 -6.105469 C 4.25 -6.292969 3.402344 -6.457031 3.402344 -7.117188 C 3.402344 -7.6875 3.898438 -8.058594 4.726562 -8.058594 C 5.664062 -8.058594 6.21875 -7.671875 6.234375 -6.878906 L 8.792969 -6.878906 C 8.773438 -8.867188 7.191406 -10.210938 4.800781 -10.210938 C 2.410156 -10.210938 0.808594 -8.902344 0.808594 -7.027344 C 0.808594 -4.691406 2.832031 -4.269531 4.414062 -3.992188 C 5.464844 -3.828125 6.328125 -3.625 6.328125 -2.941406 C 6.328125 -2.28125 5.648438 -1.929688 4.910156 -1.929688 C 3.953125 -1.929688 3.273438 -2.371094 3.257812 -3.257812 L 0.644531 -3.257812 C 0.644531 -1.140625 2.316406 0.292969 4.800781 0.292969 Z M 4.800781 0.292969 "></path>
      </g>
    </g>
  </g>
  <g fill="#004aad" fill-opacity="1">
    <g transform="translate(165.661494, 34.951837)">
      <g>
        <path d="M 10.925781 -4.984375 C 10.925781 -7.855469 8.828125 -10.210938 5.777344 -10.210938 C 2.832031 -10.210938 0.625 -7.945312 0.625 -4.964844 C 0.625 -1.988281 2.851562 0.292969 5.777344 0.292969 C 8.09375 0.292969 9.988281 -1.085938 10.707031 -3.257812 L 7.890625 -3.257812 C 7.488281 -2.539062 6.714844 -2.097656 5.777344 -2.097656 C 4.46875 -2.097656 3.585938 -2.851562 3.347656 -4.210938 L 10.871094 -4.210938 C 10.910156 -4.46875 10.925781 -4.726562 10.925781 -4.984375 Z M 5.777344 -7.910156 C 6.988281 -7.910156 7.855469 -7.246094 8.242188 -6.035156 L 3.421875 -6.035156 C 3.734375 -7.210938 4.582031 -7.910156 5.777344 -7.910156 Z M 5.777344 -7.910156 "></path>
      </g>
    </g>
  </g>
  <g fill="#004aad" fill-opacity="1">
    <g transform="translate(177.209607, 34.951837)">
      <g>
        <path d="M 9.382812 -9.933594 L 9.105469 -8.996094 C 8.242188 -9.75 7.117188 -10.210938 5.832031 -10.210938 C 2.851562 -10.210938 0.625 -7.964844 0.625 -4.964844 C 0.625 -1.96875 2.851562 0.292969 5.832031 0.292969 C 7.101562 0.292969 8.203125 -0.148438 9.050781 -0.902344 L 9.289062 0 L 11.386719 0 L 11.386719 -9.933594 Z M 6.050781 -2.246094 C 4.488281 -2.246094 3.347656 -3.421875 3.347656 -4.964844 C 3.347656 -6.53125 4.488281 -7.6875 6.050781 -7.6875 C 7.617188 -7.6875 8.757812 -6.53125 8.757812 -4.964844 C 8.757812 -3.402344 7.617188 -2.246094 6.050781 -2.246094 Z M 6.050781 -2.246094 "></path>
      </g>
    </g>
  </g>
  <g fill="#004aad" fill-opacity="1">
    <g transform="translate(189.897812, 34.951837)">
      <g>
        <path d="M 6.363281 -9.988281 C 5.078125 -9.988281 4.195312 -9.582031 3.476562 -8.699219 L 3 -9.933594 L 1.289062 -9.933594 L 1.289062 0 L 3.972656 0 L 3.972656 -5.152344 C 3.972656 -6.769531 4.5625 -7.449219 6.070312 -7.449219 L 7.246094 -7.449219 L 7.246094 -9.988281 Z M 6.363281 -9.988281 "></path>
      </g>
    </g>
  </g>
  <g fill="#004aad" fill-opacity="1">
    <g transform="translate(197.382019, 34.951837)">
      <g>
        <path d="M 5.90625 0.292969 C 8.5 0.292969 10.539062 -1.398438 11 -3.898438 L 8.296875 -3.898438 C 7.835938 -2.832031 6.988281 -2.246094 5.90625 -2.246094 C 4.46875 -2.246094 3.347656 -3.441406 3.347656 -4.964844 C 3.347656 -6.511719 4.453125 -7.6875 5.90625 -7.6875 C 6.972656 -7.6875 7.875 -7.101562 8.296875 -6.125 L 10.964844 -6.125 C 10.484375 -8.570312 8.5 -10.210938 5.921875 -10.210938 C 2.90625 -10.210938 0.625 -7.964844 0.625 -4.984375 C 0.625 -2.003906 2.90625 0.292969 5.90625 0.292969 Z M 5.90625 0.292969 "></path>
      </g>
    </g>
  </g>
  <g fill="#004aad" fill-opacity="1">
    <g transform="translate(208.874965, 34.951837)">
      <g>
        <path d="M 6.972656 -10.152344 C 5.777344 -10.152344 4.726562 -9.710938 3.972656 -8.996094 L 3.972656 -13.503906 L 1.289062 -13.503906 L 1.289062 0 L 3.972656 0 L 3.972656 -5.207031 C 3.972656 -6.824219 4.855469 -7.800781 6.199219 -7.800781 C 7.394531 -7.800781 7.929688 -7.0625 7.929688 -5.574219 L 7.929688 0 L 10.613281 0 L 10.613281 -6.035156 C 10.613281 -8.554688 9.214844 -10.152344 6.972656 -10.152344 Z M 6.972656 -10.152344 "></path>
      </g>
    </g>
  </g>
</svg>
