<svg xmlns="http://www.w3.org/2000/svg" height="800" width="1200" version="1.0" viewBox="-118.20585 -117.17025 1024.4507 703.0215"><rect ry="48.281" height="468.681" width="788.039" fill="#ffdb00"/><path style="line-height:100%;-inkscape-font-specification:'Eurostile Extended';text-align:start" d="M135.694 390.552h33.628l.075 4.225c0 7.348-1.175 12.477-3.524 15.388-2.35 2.911-7.553 4.367-15.611 4.367l-12.707.07-8.987.072c-9.814 0-16.297-1.348-19.448-4.044-3.15-2.697-4.726-8.53-4.726-17.5v-2.648c0-9.305 1.188-15.7 3.564-19.183 2.376-3.483 8.136-5.225 17.278-5.225l13.017-.144 6.275-.072 10.304.358c4.96 0 8.485 1.145 10.576 3.436 2.092 2.29 3.138 5.846 3.138 10.666h-6.197c0-4.2-.956-6.789-2.867-7.767-1.911-.979-5.476-1.468-10.693-1.468l-10.536-.07-6.122-.072-10.15.358c-3.926.334-6.701 1.025-8.328 2.075-1.627 1.05-2.44 3.674-2.44 7.873l-.31 12.313c0 5.154.4 9.078 1.2 11.774.8 2.695 4.971 4.043 12.514 4.043l13.17.144 5.578.072h1.163c2.375 0 5.5-.167 9.374-.501 3.873-.334 6.327-1.48 7.36-3.436 1.033-1.957 1.55-5.392 1.55-10.307h-27.118zm118.201-10.008c0 4.295-.685 7.241-2.054 8.84-1.369 1.598-4.351 2.707-8.948 3.327 3.46.43 6.004 1.205 7.631 2.327 1.628 1.121 2.442 3.161 2.442 6.12v12.956h-6.2V403.52c0-3.53-.813-5.868-2.44-7.013-1.627-1.146-4.455-1.718-8.484-1.718h-35.251v19.325h-6.278v-47.742h42.07c6.25 0 10.732.967 13.444 2.899 2.712 1.932 4.068 5.69 4.068 11.273zm-6.507-.358c0-3.722-.956-6.144-2.867-7.265-1.911-1.121-5.063-1.682-9.454-1.682H200.59v18.753h34.632c4.546 0 7.71-.656 9.492-1.968 1.782-1.312 2.673-3.925 2.673-7.838zm29.311 33.916h-7.36l30.525-47.742h8.367l30.76 47.742h-7.205l-6.741-10.737h-41.761zm9.529-15.533H322.1l-18.052-27.986zm126.285-18.597c0 2.719-.207 5.128-.62 7.228-.413 2.1-1.226 3.723-2.44 4.868-1.214 1.145-2.724 1.993-4.532 2.542-1.808.549-4.52.823-8.136.823h-36.181v18.68h-6.278v-47.74h42.846c5.63 0 9.595.966 11.894 2.898 2.298 1.932 3.447 5.5 3.447 10.701zm-6.507.286c0-3.34-.672-5.679-2.015-7.015-1.343-1.336-3.822-2.004-7.438-2.004h-35.95v19.397h32.387c5.164 0 8.624-.596 10.38-1.789 1.757-1.192 2.636-4.055 2.636-8.589zm31.313 33.844h-6.277V366.36h6.277v20.686h48.19V366.36h6.2v47.742h-6.2V391.84h-48.19zm91.017 0h-6.277V366.36h6.277zm64.858.284l-13.326.214-5.731.073-11.468-.5c-9.195-.86-13.792-5.417-13.792-13.673l-.31-9.089c0-3.627.039-6.324.116-8.09.077-1.765.452-4.223 1.123-7.372.672-3.149 2.299-5.534 4.882-7.157 2.583-1.622 6.172-2.433 10.769-2.433a89.7 89.7 0 015.85-.358c1.835-.048 3.991-.072 6.47-.072h1.86l7.438-.073c2.995 0 5.422.06 7.282.18 1.86.12 4.3.465 7.322 1.038 3.02.573 5.126 2.1 6.314 4.582 1.189 2.481 1.783 5.797 1.783 9.948h-6.2v-.429c0-2.148-.142-3.913-.425-5.297-.284-1.383-.956-2.385-2.015-3.005-1.06-.62-3.009-1.098-5.85-1.432-2.84-.334-6.766-.501-11.777-.502-1.858 0-4.673.072-8.443.216-3.77.143-6.612.215-8.524.215-4.442.333-7.283 1.06-8.523 2.182-1.24 1.121-2.014 3.066-2.324 5.833-.31 2.768-.49 5.285-.541 7.552a287.395 287.395 0 00-.077 6.477c0 6.061.658 10.237 1.975 12.527 1.317 2.29 4.816 3.434 10.497 3.434l12.087.145 11.544-.145c4.752 0 8.058-.524 9.917-1.573 1.86-1.05 2.789-3.579 2.79-7.588v-1.933h6.508c0 6.252-1.033 10.499-3.1 12.741-2.066 2.243-6.767 3.364-14.101 3.364zm79.942-41.798c-1.084-.478-3.047-.872-5.887-1.182-2.84-.31-6.508-.465-11.002-.465h-2.17c-3.408 0-6.933.143-10.575.43-3.642.285-6.29.763-7.943 1.431-1.652.668-2.711 1.575-3.176 2.72-.465 1.144-.698 2.528-.698 4.152 0 2.91.866 4.89 2.596 5.94 1.731 1.05 4.25 1.574 7.555 1.574l5.656.144 12.165-.072c2.117 0 4.002.024 5.654.072 1.653.048 4.145.24 7.477.573 3.331.333 6.017 1.418 8.058 3.255 2.04 1.837 3.06 4.975 3.06 9.414 0 2.91-.49 5.333-1.471 7.265-.982 1.932-2.647 3.388-4.998 4.365-2.35.978-5.19 1.61-8.522 1.898-3.332.286-6.96.43-10.885.43h-4.107c-3.875 0-6.78-.036-8.717-.108-1.936-.072-4.906-.347-8.909-.824-4.003-.477-6.857-1.729-8.562-3.757-1.704-2.028-2.557-5.571-2.557-10.63h6.276v1.003c0 2.433.245 4.234.736 5.404s1.756 2.028 3.796 2.576 4.765.906 8.174 1.074c3.41.167 6.767.251 10.073.251 5.372 0 9.904-.215 13.598-.644 3.693-.43 6.211-1.241 7.554-2.434 1.343-1.192 2.015-3.149 2.015-5.87 0-3.434-.866-5.617-2.597-6.548-1.73-.93-4.662-1.396-8.793-1.396l-11.855-.144-13.868-.358c-4.855 0-8.6-.859-11.235-2.576-2.634-1.718-3.952-4.629-3.952-8.732 0-3.245.568-5.953 1.705-8.124 1.137-2.171 3.06-3.722 5.773-4.653 2.712-.93 5.901-1.527 9.569-1.79 3.667-.263 7.773-.394 12.317-.394 3.77 0 6.495.036 8.174.108 1.679.072 4.417.287 8.213.644 3.797.358 6.702 1.563 8.717 3.614 2.014 2.052 3.021 5.178 3.022 9.378h-6.276c0-2.148-.27-3.747-.813-4.797-.542-1.05-1.33-1.789-2.365-2.217z" font-weight="400" font-size="96.57" font-family="Eurostile Extended"/><path d="M185.56 46.804c-45.095 0-82.368 37.274-82.368 82.368v.554c0 45.095 37.273 82.344 82.367 82.344h142.108c11.984 0 20.676 8.668 20.676 20.652v.555c0 11.984-8.692 20.676-20.676 20.676H103.192v61.691h224.475c45.094 0 82.368-37.273 82.368-82.367v-.555c0-45.094-37.274-82.343-82.368-82.343H185.559c-11.984 0-20.676-8.668-20.676-20.653v-.554c0-11.984 8.692-20.676 20.676-20.676h224.476V46.804zm248.717 0a52.42 52.42 0 01.29 5.374v56.318H598.41c11.984 0 20.676 8.668 20.676 20.652v.554c0 11.985-8.692 20.677-20.676 20.677H444.784v61.691h153.627c11.984 0 20.676 8.668 20.676 20.652v.555c0 11.984-8.692 20.676-20.676 20.676H434.567v54.341c0 2.494-.191 4.953-.53 7.35H598.41c45.094 0 82.367-37.273 82.367-82.367v-.555c0-19.407-6.903-37.364-18.362-51.522 11.452-14.16 18.362-32.097 18.362-51.498v-.554c0-45.094-37.273-82.344-82.367-82.344z"/></svg>