<svg xmlns="http://www.w3.org/2000/svg" viewBox="0 0 55 59"><defs><style>.a{fill:#fff;}</style></defs><g transform="translate(-2)"><path class="a" d="M55.2,47.02a1,1,0,0,0-1.18.781C52.9,53.3,48.574,57,43.249,57A11.533,11.533,0,0,1,32.3,49H37V47H29v8h2V51.151A13.546,13.546,0,0,0,43.249,59c6.3,0,11.42-4.341,12.731-10.8A1,1,0,0,0,55.2,47.02Z"/><path class="a" d="M55,35v4.309A13.122,13.122,0,0,0,43.249,32,13.737,13.737,0,0,0,30.04,41.721a1,1,0,0,0,1.92.558A11.878,11.878,0,0,1,43.249,34a11.18,11.18,0,0,1,10.33,7H49v2h8V35Z"/><path class="a" d="M27,41.185q-1.24,0-2.432-.044c-.483-.018-.95-.049-1.422-.076-.3-.017-.6-.028-.891-.049-.626-.045-1.234-.1-1.835-.165-.118-.012-.242-.021-.359-.034q-1.032-.113-2.012-.257l-.066-.009a38.792,38.792,0,0,1-8.554-2.167l-.044-.017c-.417-.167-.807-.34-1.18-.516-.045-.021-.093-.042-.138-.064-.334-.161-.644-.327-.94-.494-.072-.041-.146-.081-.216-.122-.258-.151-.493-.306-.718-.461-.087-.061-.177-.121-.259-.182-.19-.141-.361-.282-.524-.425-.09-.079-.18-.157-.261-.237a5.21,5.21,0,0,1-.363-.391c-.078-.092-.153-.185-.219-.277a3.729,3.729,0,0,1-.231-.369,3.094,3.094,0,0,1-.143-.3,2.449,2.449,0,0,1-.116-.362A2.287,2.287,0,0,1,4,33.685V25.478c.028.026.063.051.092.077.218.191.44.382.69.566,3.767,2.85,11.3,5.063,22.219,5.063,10.872,0,18.386-2.2,22.169-5.028a10.181,10.181,0,0,0,.83-.678h0v3.707a1,1,0,1,0,2,0v-20a.979.979,0,0,0-.115-.444C50.695,3.769,40.195,0,27,0S3.3,3.769,2.115,8.74A.98.98,0,0,0,2,9.185v37a.938.938,0,0,0,.115.448c1.139,4.833,10.691,7.68,19.81,8.364.025,0,.051,0,.076,0a1,1,0,0,0,.074-2c-11.114-.834-17.591-4.219-18.043-6.98A.963.963,0,0,0,4,45.892V37.478c.028.026.063.051.092.077.218.191.44.382.69.566,3.767,2.85,11.3,5.063,22.219,5.063a1,1,0,1,0,0-2ZM4.6,13.981c.3.236.624.469.975.7.073.047.155.093.231.14.3.183.605.363.933.538.121.065.242.129.367.193q.548.279,1.151.542c.066.029.126.059.193.087.469.2.967.389,1.485.572.143.051.293.1.44.149q.618.208,1.279.4c.159.046.315.094.478.139.585.162,1.189.316,1.823.458.087.02.181.037.269.056.559.122,1.139.235,1.735.34.2.036.407.07.613.1q.85.14,1.75.257c.154.02.3.042.457.062.744.09,1.514.167,2.305.233.195.016.4.028.6.042q.949.069,1.942.114c.241.011.481.022.727.03.863.03,1.741.05,2.65.05s1.788-.021,2.65-.05c.245-.008.485-.02.727-.03q.993-.045,1.942-.114c.2-.015.4-.026.6-.042.791-.065,1.561-.143,2.305-.233.156-.019.3-.042.457-.062q.9-.117,1.75-.257c.206-.034.411-.068.613-.1.6-.1,1.176-.218,1.735-.34.088-.019.182-.036.269-.056.634-.142,1.238-.3,1.823-.458.163-.045.319-.092.478-.139q.662-.192,1.279-.4c.147-.05.3-.1.44-.149.518-.184,1.017-.374,1.485-.572.067-.028.127-.059.193-.087q.6-.264,1.151-.542c.125-.064.247-.128.367-.193q.49-.263.932-.538c.076-.047.158-.093.231-.14.351-.227.675-.459.975-.7.075-.06.142-.12.215-.18.13-.108.267-.215.387-.324v8.207a2.162,2.162,0,0,1-.079.485,2.412,2.412,0,0,1-.116.362,2.873,2.873,0,0,1-.143.3,3.39,3.39,0,0,1-.231.369c-.066.092-.141.185-.219.277-.111.13-.229.261-.363.391-.082.08-.171.158-.261.237-.163.143-.334.284-.524.425-.082.061-.172.121-.259.182-.225.155-.46.31-.718.461-.069.041-.144.082-.216.122-.3.167-.606.333-.94.494-.045.022-.093.043-.138.064-.373.176-.763.349-1.18.516l-.044.017a38.792,38.792,0,0,1-8.554,2.167c-.021,0-.044,0-.066.009q-.979.144-2.012.257c-.117.013-.241.021-.359.034-.6.062-1.21.12-1.835.165-.291.021-.595.032-.891.049-.471.027-.938.059-1.422.076q-1.193.042-2.432.044t-2.432-.044c-.483-.018-.95-.049-1.422-.076-.3-.017-.6-.028-.891-.049-.626-.045-1.234-.1-1.835-.165-.118-.012-.242-.021-.359-.034q-1.032-.113-2.012-.257l-.066-.009a38.792,38.792,0,0,1-8.554-2.167l-.044-.017c-.417-.167-.807-.34-1.18-.516-.045-.021-.093-.042-.138-.064-.334-.161-.644-.327-.94-.494-.072-.041-.146-.081-.216-.122-.258-.151-.493-.306-.718-.461-.087-.061-.177-.121-.259-.182-.19-.141-.361-.282-.524-.425-.09-.079-.18-.157-.261-.237a5.21,5.21,0,0,1-.363-.391c-.078-.092-.153-.185-.219-.277a3.729,3.729,0,0,1-.231-.369,3.094,3.094,0,0,1-.143-.3,2.449,2.449,0,0,1-.116-.362A2.4,2.4,0,0,1,4,21.685V13.478c.12.109.257.216.387.324C4.459,13.861,4.526,13.922,4.6,13.981ZM27,2C40.555,2,50,6.05,50,9.685c0,3.548-9.445,7.5-23,7.5S4,13.233,4,9.685C4,6.05,13.445,2,27,2Z"/></g></svg>