<svg xmlns="http://www.w3.org/2000/svg" viewBox="0 0 60 60"><defs><style>.a{fill:#fff;}</style></defs><path class="a" d="M55.5,60H4.5A4.506,4.506,0,0,1,0,55.5V4.5A4.506,4.506,0,0,1,4.5,0h51A4.506,4.506,0,0,1,60,4.5v51A4.506,4.506,0,0,1,55.5,60ZM58,4.5A2.5,2.5,0,0,0,55.5,2H4.5A2.5,2.5,0,0,0,2,4.5v51A2.5,2.5,0,0,0,4.5,58h51A2.5,2.5,0,0,0,58,55.5Z"/><g transform="translate(4 50)"><path class="a" d="M39.134,40.133h-4a1,1,0,0,1-1-1v-4a1,1,0,0,1,1-1h4a1,1,0,0,1,1,1v4A1,1,0,0,1,39.134,40.133Zm-1-4h-2v2h2Z" transform="translate(-34.134 -34.133)"/></g><g transform="translate(12 50)"><path class="a" d="M107.4,40.133h-4a1,1,0,0,1-1-1v-4a1,1,0,0,1,1-1h4a1,1,0,0,1,1,1v4A1,1,0,0,1,107.4,40.133Zm-1-4h-2v2h2Z" transform="translate(-102.401 -34.133)"/></g><g transform="translate(20 50)"><path class="a" d="M175.667,40.133h-4a1,1,0,0,1-1-1v-4a1,1,0,0,1,1-1h4a1,1,0,0,1,1,1v4A1,1,0,0,1,175.667,40.133Zm-1-4h-2v2h2Z" transform="translate(-170.667 -34.133)"/></g><g transform="translate(0 46)"><path class="a" d="M55.5,14H4.5A4.506,4.506,0,0,1,0,9.5V1A1,1,0,0,1,1,0H59a1,1,0,0,1,1,1V9.5A4.505,4.505,0,0,1,55.5,14ZM58,2H2V9.5A2.5,2.5,0,0,0,4.5,12h51A2.5,2.5,0,0,0,58,9.5Z"/></g><g transform="translate(10 4)"><path class="a" d="M124.334,160.533h-2.293a1.338,1.338,0,0,0-1.3.923,9.993,9.993,0,0,1-1.013,2.244l-.284.51a1.339,1.339,0,0,0,.257,1.575l1.623,1.623a1,1,0,0,1,0,1.414l-3.706,3.706a1.027,1.027,0,0,1-1.414,0l-1.622-1.623a1.343,1.343,0,0,0-1.576-.257l-.508.283a9.984,9.984,0,0,1-2.246,1.014,1.335,1.335,0,0,0-.923,1.3v2.293a1,1,0,0,1-1,1h-6a1,1,0,0,1-1-1V173.24a1.335,1.335,0,0,0-.923-1.3,10.013,10.013,0,0,1-2.246-1.014l-.508-.283a1.342,1.342,0,0,0-1.575.257l-1.623,1.623a1,1,0,0,1-1.414,0l-3.706-3.706a1,1,0,0,1,0-1.414l1.623-1.623a1.34,1.34,0,0,0,.257-1.575l-.284-.51a10.012,10.012,0,0,1-1.014-2.244,1.336,1.336,0,0,0-1.294-.923H86.334a1,1,0,0,1-1-1v-6a1,1,0,0,1,1-1h2.293a1.336,1.336,0,0,0,1.294-.923,10.009,10.009,0,0,1,1.013-2.243l.285-.511a1.339,1.339,0,0,0-.257-1.575l-1.623-1.623a1,1,0,0,1,0-1.414l3.706-3.706a1.031,1.031,0,0,1,1.414,0l1.622,1.623a1.347,1.347,0,0,0,1.576.257l.507-.282a9.932,9.932,0,0,1,2.247-1.015,1.335,1.335,0,0,0,.923-1.3v-2.293a1,1,0,0,1,1-1h6a1,1,0,0,1,1,1v2.293a1.335,1.335,0,0,0,.924,1.3,9.978,9.978,0,0,1,2.247,1.015l.507.282a1.343,1.343,0,0,0,1.575-.257l1.623-1.623a1,1,0,0,1,1.414,0l3.706,3.706a1,1,0,0,1,0,1.414l-1.623,1.623a1.34,1.34,0,0,0-.257,1.575l.284.511a9.979,9.979,0,0,1,1.013,2.243,1.336,1.336,0,0,0,1.294.923h2.293a1,1,0,0,1,1,1v6A1,1,0,0,1,124.334,160.533Zm-1-6h-1.293a3.347,3.347,0,0,1-3.214-2.359,8.068,8.068,0,0,0-.837-1.826l-.3-.535a3.351,3.351,0,0,1,.6-3.946l.916-.916-2.292-2.292-.916.916a3.351,3.351,0,0,1-3.946.6l-.532-.3a8.044,8.044,0,0,0-1.829-.839,3.346,3.346,0,0,1-2.358-3.213v-1.293h-4v1.293a3.347,3.347,0,0,1-2.359,3.214,8.056,8.056,0,0,0-1.829.839l-.532.3a3.352,3.352,0,0,1-3.947-.6l-.916-.916-2.292,2.292.916.916a3.35,3.35,0,0,1,.6,3.946l-.3.535a8.06,8.06,0,0,0-.836,1.826,3.347,3.347,0,0,1-3.213,2.358H87.334v4h1.293a3.346,3.346,0,0,1,3.214,2.359,8.022,8.022,0,0,0,.837,1.826l.3.535a3.351,3.351,0,0,1-.6,3.946l-.916.916,2.292,2.292.916-.916a3.352,3.352,0,0,1,3.946-.6l.533.3a8.068,8.068,0,0,0,1.828.838,3.346,3.346,0,0,1,2.358,3.213v1.293h4V173.24a3.347,3.347,0,0,1,2.359-3.214,8.082,8.082,0,0,0,1.828-.838l.533-.3a3.351,3.351,0,0,1,3.947.6l.916.916,2.292-2.292-.916-.916a3.349,3.349,0,0,1-.6-3.946l.3-.535a8,8,0,0,0,.837-1.826,3.347,3.347,0,0,1,3.213-2.358h1.293Z" transform="translate(-85.334 -136.533)"/></g><g transform="translate(18 12)"><path class="a" d="M165.6,228.8a12,12,0,1,1,12-12A12.013,12.013,0,0,1,165.6,228.8Zm0-22a10,10,0,1,0,10,10A10.011,10.011,0,0,0,165.6,206.8Z" transform="translate(-153.6 -204.8)"/></g><g transform="translate(22 20)"><path class="a" d="M190.146,277.064l2.293,2.293a1,1,0,0,1-1.414,1.414l-3-3a1,1,0,0,1,0-1.414l3-3a1,1,0,1,1,1.414,1.414Z" transform="translate(-187.731 -273.064)"/></g><g transform="translate(33 20)"><path class="a" d="M286.3,277.771l-3,3a1,1,0,0,1-1.414-1.414l2.293-2.293-2.293-2.293a1,1,0,1,1,1.414-1.414l3,3A1,1,0,0,1,286.3,277.771Z" transform="translate(-281.597 -273.064)"/></g><g transform="translate(27.999 20)"><path class="a" d="M242.2,273.5a1,1,0,0,1-1.236-.688l-2-7a1,1,0,0,1,.687-1.236,1.05,1.05,0,0,1,.275-.038,1,1,0,0,1,.961.726l2,7A1,1,0,0,1,242.2,273.5Z" transform="translate(-238.926 -264.543)"/></g></svg>