<svg xmlns="http://www.w3.org/2000/svg" viewBox="0 0 60 60"><defs><style>.a{fill:#fff;}</style></defs><path class="a" d="M145.8,294.478V279.132a.957.957,0,0,0-.957-.957h-6.383a.957.957,0,1,0,0,1.915h5.426v14.388a4.149,4.149,0,1,0,1.915,0Zm-.957,6.27a2.234,2.234,0,1,1,2.234-2.234A2.237,2.237,0,0,1,144.84,300.748Z" transform="translate(-119.947 -242.663)"/><path class="a" d="M225.8,294.478V279.132a.957.957,0,0,0-.957-.957h-6.383a.957.957,0,1,0,0,1.915h5.425v14.388a4.149,4.149,0,1,0,1.915,0Zm-.957,6.27a2.234,2.234,0,1,1,2.234-2.234A2.237,2.237,0,0,1,224.841,300.748Z" transform="translate(-189.735 -242.663)"/><path class="a" d="M311.862,287.982a4.155,4.155,0,0,0-4.036,3.191H305.8V279.132a.957.957,0,0,0-.957-.957h-6.383a.957.957,0,1,0,0,1.915h5.426v12.042a.957.957,0,0,0,.957.957h2.985a4.149,4.149,0,1,0,4.036-5.106Zm0,6.383a2.234,2.234,0,1,1,2.234-2.234A2.237,2.237,0,0,1,311.862,294.365Z" transform="translate(-259.521 -242.663)"/><path class="a" d="M57.72,20.624a10.393,10.393,0,0,0-4.993-3.395A18.126,18.126,0,0,0,19.169,8.654,8.277,8.277,0,0,0,8.6,14.8a11.5,11.5,0,0,0,2.9,22.628h2.225V48.511H11.7a4.149,4.149,0,1,0,0,1.915h2.985a.957.957,0,0,0,.957-.957v-13a.957.957,0,0,0-.957-.957H11.5A9.584,9.584,0,0,1,9.623,16.529a.957.957,0,0,0,.763-.815,6.359,6.359,0,0,1,8.824-5,.957.957,0,0,0,1.218-.415,16.211,16.211,0,0,1,30.4,7.681.957.957,0,0,0,.742.924,8.415,8.415,0,0,1-1.9,16.612h-.521a.957.957,0,1,0,0,1.915h.521a10.329,10.329,0,0,0,8.05-16.8ZM7.66,51.7a2.234,2.234,0,1,1,2.234-2.234A2.237,2.237,0,0,1,7.66,51.7Z"/><path class="a" d="M353.55,106.495h.009a.958.958,0,0,0,.949-.966,12.883,12.883,0,0,0-.885-4.587.957.957,0,1,0-1.784.7,10.973,10.973,0,0,1,.754,3.908A.958.958,0,0,0,353.55,106.495Z" transform="translate(-306.866 -87.524)"/><path class="a" d="M273.244,45.969a.957.957,0,1,0,1.476-1.22A12.988,12.988,0,0,0,264.685,40a.957.957,0,1,0,0,1.915A11.079,11.079,0,0,1,273.244,45.969Z" transform="translate(-230.06 -34.894)"/></svg>