<svg xmlns="http://www.w3.org/2000/svg" viewBox="0 0 60 47.344"><defs><style>.a{fill:#fff;}</style></defs><g transform="translate(0 -54)"><g transform="translate(0 54)"><path class="a" d="M46.406,66.3a.879.879,0,0,0,.879-.879V54.879A.879.879,0,0,0,46.406,54H41.23a.879.879,0,0,0,0,1.758h4.3v8.789H14.473V55.758H37.461a.879.879,0,0,0,0-1.758H13.594a.879.879,0,0,0-.879.879V65.426a.879.879,0,0,0,.879.879H29.121v1.758H13.594a.879.879,0,0,0-.879.879V79.488a.879.879,0,0,0,.879.879H15.02a.879.879,0,1,0,0-1.758h-.547V69.82H45.527v8.789H18.75a.879.879,0,1,0,0,1.758H29.121v2.109H7.5a.879.879,0,0,0-.879.879V86.7H.879A.879.879,0,0,0,0,87.574v12.891a.879.879,0,0,0,.879.879H13.77a.879.879,0,0,0,.879-.879V87.574a.879.879,0,0,0-.879-.879H8.379V84.234H29.121V86.7H23.555a.879.879,0,0,0-.879.879v12.891a.879.879,0,0,0,.879.879H36.445a.879.879,0,0,0,.879-.879V87.574a.879.879,0,0,0-.879-.879H30.879V84.234H41.25a.879.879,0,1,0,0-1.758H30.879V80.367H46.406a.879.879,0,0,0,.879-.879V68.941a.879.879,0,0,0-.879-.879H30.879V66.3ZM12.891,88.453V99.586H1.758V88.453Zm22.676,0V99.586H24.434V88.453Z" transform="translate(0 -54)"/></g><g transform="translate(17.109 57.398)"><g transform="translate(0 0)"><path class="a" d="M152.973,83h-5.156A1.818,1.818,0,0,0,146,84.816v1.641a1.818,1.818,0,0,0,1.816,1.816h5.156a1.818,1.818,0,0,0,1.816-1.816V84.816A1.818,1.818,0,0,0,152.973,83Zm.059,3.457a.059.059,0,0,1-.059.059h-5.156a.059.059,0,0,1-.059-.059V84.816a.059.059,0,0,1,.059-.059h5.156a.059.059,0,0,1,.059.059Z" transform="translate(-146 -83)"/></g></g><g transform="translate(17.109 71.578)"><path class="a" d="M152.973,204h-5.156A1.818,1.818,0,0,0,146,205.816v1.641a1.818,1.818,0,0,0,1.816,1.816h5.156a1.818,1.818,0,0,0,1.816-1.816v-1.641A1.818,1.818,0,0,0,152.973,204Zm.059,3.457a.059.059,0,0,1-.059.059h-5.156a.059.059,0,0,1-.059-.059v-1.641a.059.059,0,0,1,.059-.059h5.156a.059.059,0,0,1,.059.059Z" transform="translate(-146 -204)"/></g><g transform="translate(27.363 57.398)"><g transform="translate(0 0)"><path class="a" d="M236.957,83h-1.641a1.818,1.818,0,0,0-1.816,1.816v1.641a1.818,1.818,0,0,0,1.816,1.816h1.641a1.818,1.818,0,0,0,1.816-1.816V84.816A1.818,1.818,0,0,0,236.957,83Zm.059,3.457a.059.059,0,0,1-.059.059h-1.641a.059.059,0,0,1-.059-.059V84.816a.059.059,0,0,1,.059-.059h1.641a.059.059,0,0,1,.059.059Z" transform="translate(-233.5 -83)"/></g></g><g transform="translate(27.363 71.578)"><path class="a" d="M236.957,204h-1.641a1.818,1.818,0,0,0-1.816,1.816v1.641a1.818,1.818,0,0,0,1.816,1.816h1.641a1.818,1.818,0,0,0,1.816-1.816v-1.641A1.818,1.818,0,0,0,236.957,204Zm.059,3.457a.059.059,0,0,1-.059.059h-1.641a.059.059,0,0,1-.059-.059v-1.641a.059.059,0,0,1,.059-.059h1.641a.059.059,0,0,1,.059.059Z" transform="translate(-233.5 -204)"/></g><g transform="translate(44.033 82.477)"><path class="a" d="M390.838,301.219H385.1v-3.34a.879.879,0,0,0-.879-.879h-7.588a.879.879,0,1,0,0,1.758h6.709v2.461h-5.391a.879.879,0,0,0-.879.879v12.891a.879.879,0,0,0,.879.879h12.891a.879.879,0,0,0,.879-.879V302.1A.879.879,0,0,0,390.838,301.219Zm-.879,12.891H378.826V302.977h11.133Z" transform="translate(-375.75 -297)"/></g><g transform="translate(4.102 91.266)"><path class="a" d="M40.566,372H35.879a.879.879,0,0,0,0,1.758h4.688a.879.879,0,0,0,0-1.758Z" transform="translate(-35 -372)"/></g><g transform="translate(4.102 95.318)"><path class="a" d="M40.566,406.58H35.879a.879.879,0,0,0,0,1.758h4.688a.879.879,0,0,0,0-1.758Z" transform="translate(-35 -406.58)"/></g><g transform="translate(26.777 91.266)"><path class="a" d="M234.066,372h-4.687a.879.879,0,0,0,0,1.758h4.688a.879.879,0,0,0,0-1.758Z" transform="translate(-228.5 -372)"/></g><g transform="translate(26.777 95.318)"><path class="a" d="M234.066,406.58h-4.687a.879.879,0,0,0,0,1.758h4.688a.879.879,0,0,0,0-1.758Z" transform="translate(-228.5 -406.58)"/></g><g transform="translate(49.453 91.266)"><path class="a" d="M427.566,372h-4.687a.879.879,0,0,0,0,1.758h4.688a.879.879,0,0,0,0-1.758Z" transform="translate(-422 -372)"/></g><g transform="translate(49.453 95.318)"><path class="a" d="M427.566,406.58h-4.687a.879.879,0,0,0,0,1.758h4.688a.879.879,0,0,0,0-1.758Z" transform="translate(-422 -406.58)"/></g></g></svg>