<svg xmlns="http://www.w3.org/2000/svg" viewBox="0 0 50 58.196"><defs><style>.a{fill:#fff;}</style></defs><g transform="translate(-2.215)"><g transform="translate(2.215 0)"><path class="a" d="M19.247,0a4.165,4.165,0,0,0-3.154,1.4,4.773,4.773,0,0,0-1.3,3.374,4.708,4.708,0,0,0,1.3,3.312,4.163,4.163,0,0,0,3.154,1.4,4.09,4.09,0,0,0,3.09-1.4,4.7,4.7,0,0,0,1.3-3.312,4.777,4.777,0,0,0-1.3-3.374A4.1,4.1,0,0,0,19.247,0Z" transform="translate(8.474 0)"/><path class="a" d="M33.553,32c-1.868,0-2.79-1.423-2.79-4.266V16.5h5.876V9.481H30.755c-.022-.925-.074-3.054-.111-4.053H23.783V9.481H19.992V16.5h3.791V27.41q0,5.35,1.345,7.831c1.19,2.209,3.275,3.312,6.37,3.312A11.216,11.216,0,0,0,37.1,37.279V30.914A6.359,6.359,0,0,1,33.553,32Z" transform="translate(12.895 4.614)"/><path class="a" d="M25.877,8.287a19.172,19.172,0,0,1-6.81,1.467,11.147,11.147,0,0,0-5.705-1.528A10.634,10.634,0,0,0,5.913,11.09a10.066,10.066,0,0,0-3.25,7.641A10.1,10.1,0,0,0,4.444,24.46a6.907,6.907,0,0,0,3.622,3.184v.128c-1.452.594-2.1,2.079-2.1,4.459a4.39,4.39,0,0,0,2.1,4.074v.129c-4.015,1.312-5.852,3.754-5.852,7.32A7.254,7.254,0,0,0,6.2,50.565a16.447,16.447,0,0,0,7.975,1.721q11.777,0,11.786-9.87,0-6.177-9.1-7.579a5.122,5.122,0,0,1-3.182-1.526,2.38,2.38,0,0,1-.823-1.658A2.572,2.572,0,0,1,15.4,28.916a9.725,9.725,0,0,0,6.336-3.6,10.951,10.951,0,0,0,2.449-7.1,8.687,8.687,0,0,0-.594-2.736,21.567,21.567,0,0,0,2.283-.642V37.23h7.687V6.953H25.877V8.287ZM14.062,40q5.35,0,5.348,3.245,0,3.441-4.9,3.439-5.6,0-5.6-3.31Q8.9,40,14.062,40Zm-.446-16.807q-4.01,0-4.011-4.394,0-4.712,4.011-4.712a3.506,3.506,0,0,1,2.991,1.465,5.6,5.6,0,0,1,.89,3.184Q17.5,23.189,13.617,23.189Z" transform="translate(-2.215 5.91)"/></g></g></svg>