<svg xmlns="http://www.w3.org/2000/svg" viewBox="0 0 50 49.791"><defs><style>.a{fill:#fff;}</style></defs><g transform="translate(0 -0.125)"><path class="a" d="M9.75,6.125a3.75,3.75,0,1,0,3.75,3.75A3.755,3.755,0,0,0,9.75,6.125Zm0,5.833a2.083,2.083,0,1,1,2.083-2.083A2.086,2.086,0,0,1,9.75,11.958Z" transform="translate(-1 -1)"/><circle class="a" cx="0.833" cy="0.833" r="0.833" transform="translate(40.833 6.792)"/><circle class="a" cx="0.833" cy="0.833" r="0.833" transform="translate(37.5 6.792)"/><circle class="a" cx="0.833" cy="0.833" r="0.833" transform="translate(42.5 9.292)"/><circle class="a" cx="0.833" cy="0.833" r="0.833" transform="translate(39.167 9.292)"/><circle class="a" cx="0.833" cy="0.833" r="0.833" transform="translate(34.167 6.792)"/><circle class="a" cx="0.833" cy="0.833" r="0.833" transform="translate(35.833 9.292)"/><circle class="a" cx="0.833" cy="0.833" r="0.833" transform="translate(30.833 6.792)"/><circle class="a" cx="0.833" cy="0.833" r="0.833" transform="translate(32.5 9.292)"/><circle class="a" cx="0.833" cy="0.833" r="0.833" transform="translate(27.5 6.792)"/><circle class="a" cx="0.833" cy="0.833" r="0.833" transform="translate(29.167 9.292)"/><path class="a" d="M9.75,25.125a3.75,3.75,0,1,0,3.75,3.75A3.755,3.755,0,0,0,9.75,25.125Zm0,5.833a2.083,2.083,0,1,1,2.083-2.083A2.086,2.086,0,0,1,9.75,30.958Z" transform="translate(-1 -4.167)"/><path class="a" d="M9.75,44.125a3.75,3.75,0,1,0,3.75,3.75A3.755,3.755,0,0,0,9.75,44.125Zm0,5.833a2.083,2.083,0,1,1,2.083-2.083A2.086,2.086,0,0,1,9.75,49.958Z" transform="translate(-1 -7.333)"/><path class="a" d="M50,13.785V3.965A3.844,3.844,0,0,0,46.16.125H3.84A3.844,3.844,0,0,0,0,3.965v9.819a3.817,3.817,0,0,0,1.481,3.007A3.822,3.822,0,0,0,0,19.8v9.819a3.817,3.817,0,0,0,1.481,3.007A3.822,3.822,0,0,0,0,35.632v9.819a3.844,3.844,0,0,0,3.84,3.84H27.069a39.826,39.826,0,0,0,7.1.625c7.227,0,14.847-1.874,15.746-5.461A.825.825,0,0,0,50,44.083V20.958a.818.818,0,0,0-.08-.347,5.179,5.179,0,0,0-2.968-3.071A3.845,3.845,0,0,0,50,13.785ZM1.667,29.618V19.8A2.176,2.176,0,0,1,3.84,17.625H21.223a5.048,5.048,0,0,0-2.81,2.987.821.821,0,0,0-.08.347V31.792H3.84A2.176,2.176,0,0,1,1.667,29.618ZM20.522,24.5l.116.073q.22.138.458.27c.046.025.09.051.136.075.194.1.4.206.606.3l.1.046c.184.084.373.165.568.244l.172.069c.23.09.464.178.707.262l.04.013c.232.079.47.155.712.228l.2.058c.24.07.483.138.733.2l.059.016c.268.069.542.133.821.2l.211.046q.357.078.722.148l.145.028q.429.08.868.149l.209.033q.364.056.733.1l.2.027q.448.056.9.1l.183.017c.254.025.51.048.766.068l.232.018c.306.022.613.042.921.058l.132.006q.406.02.814.031l.246.007c.311.007.622.012.932.012s.621-.005.932-.012l.246-.007c.272-.007.542-.017.814-.031l.132-.006c.307-.016.615-.036.921-.058l.232-.018c.257-.02.512-.043.766-.068l.183-.017q.454-.047.9-.1l.2-.027c.246-.033.491-.068.733-.1l.209-.033q.439-.07.868-.149l.145-.028q.366-.07.723-.148l.211-.046c.278-.062.552-.127.821-.2l.059-.016c.249-.064.492-.132.732-.2l.2-.058c.243-.073.481-.149.713-.228l.04-.013c.243-.084.478-.172.707-.262.058-.023.115-.046.172-.069.195-.079.384-.16.568-.244l.1-.046c.21-.1.411-.2.606-.3l.136-.075q.237-.131.458-.27c.038-.024.078-.047.116-.073q.259-.168.491-.345l.032-.022v4.157a.813.813,0,0,0-.017.294.963.963,0,0,1,.02.182,1.2,1.2,0,0,1-.048.278,1.445,1.445,0,0,1-.07.216,1.68,1.68,0,0,1-.1.188,2.151,2.151,0,0,1-.12.188,2.75,2.75,0,0,1-.219.26c-.031.033-.062.067-.095.1-1.764,1.707-6.97,3.248-13.517,3.248S22.422,31.709,20.654,30c-.037-.037-.07-.073-.1-.109a2.8,2.8,0,0,1-.211-.25,2.081,2.081,0,0,1-.127-.2,1.721,1.721,0,0,1-.092-.178,1.424,1.424,0,0,1-.073-.226A1.143,1.143,0,0,1,20,28.771a1.049,1.049,0,0,1,.017-.177A.831.831,0,0,0,20,28.273V24.137l.032.022Q20.263,24.336,20.522,24.5Zm27.692,12.26a1.68,1.68,0,0,1-.1.188,2.152,2.152,0,0,1-.12.188,2.751,2.751,0,0,1-.219.26c-.031.033-.062.067-.095.1-1.764,1.707-6.97,3.248-13.517,3.248S22.421,39.209,20.653,37.5c-.037-.037-.07-.073-.1-.109a2.8,2.8,0,0,1-.211-.25,2.081,2.081,0,0,1-.127-.2,1.721,1.721,0,0,1-.092-.178,1.424,1.424,0,0,1-.073-.226,1.168,1.168,0,0,1-.042-.236v-.1c0-.037.005-.075.011-.112A.791.791,0,0,0,20,35.881l0-4.089v-.155c.033.026.073.05.108.075.1.078.215.155.327.231.092.061.187.121.283.181.149.092.3.183.459.27l0,0a21.624,21.624,0,0,0,6.771,2.046l.06.009c.852.132,1.727.236,2.618.312.189.016.377.033.568.046s.372.025.558.035q.378.021.755.037c.147.006.293.013.441.017.406.012.811.02,1.215.02s.808-.007,1.213-.019c.148,0,.3-.011.444-.017q.375-.015.748-.036.283-.016.563-.036c.188-.013.372-.029.559-.045.9-.076,1.782-.181,2.642-.314l.038-.006a20.3,20.3,0,0,0,7.234-2.316c.1-.059.191-.118.282-.179.112-.075.222-.152.327-.23.037-.028.08-.053.117-.082v4.157a.813.813,0,0,0-.018.294,1.337,1.337,0,0,1,.017.182,1.2,1.2,0,0,1-.048.278A1.451,1.451,0,0,1,48.214,36.764ZM3.84,47.625a2.176,2.176,0,0,1-2.173-2.173v-9.82A2.176,2.176,0,0,1,3.84,33.458H18.333V44.917h.247c.013.031.032.061.047.092.029.063.062.123.095.185a3.765,3.765,0,0,0,.232.365,4.229,4.229,0,0,0,.283.353c.052.058.1.116.159.173a6.625,6.625,0,0,0,1.145.926l.047.03a10.448,10.448,0,0,0,1.04.585H3.84ZM48.333,43.87c-.007.026-.013.052-.017.078-.341,2.077-6.108,4.3-14.15,4.3a37.666,37.666,0,0,1-6.9-.6V47.64c-4.144-.784-6.437-2.108-7.079-3.225a0,0,0,0,1,0,0c-.029-.052-.05-.1-.073-.153a1.422,1.422,0,0,1-.1-.311l-.007-4.8c.03.023.066.045.1.068.1.078.215.155.327.231.092.061.187.121.283.181.149.092.3.183.459.27l0,0a21.624,21.624,0,0,0,6.771,2.046l.06.009c.852.133,1.727.236,2.617.312.189.016.377.033.568.046s.372.025.558.035q.377.021.755.037c.147.006.293.012.441.017.406.012.811.02,1.215.02s.808-.007,1.213-.019c.148,0,.3-.011.444-.017q.375-.015.748-.036.283-.016.563-.036c.187-.013.372-.029.559-.045.9-.076,1.782-.181,2.642-.314l.038-.006a20.3,20.3,0,0,0,7.234-2.316c.1-.059.191-.118.282-.179.112-.075.222-.152.327-.23.037-.028.08-.053.117-.082V43.87Zm0-22.6c0,2.114-6.059,4.479-14.167,4.479S20,23.385,20,21.271a1.2,1.2,0,0,1,.057-.323,1.546,1.546,0,0,1,.145-.331l.008-.015a4.5,4.5,0,0,1,1.7-1.443l.112-.06q.221-.12.468-.238c.191-.089.387-.178.6-.264.041-.017.083-.034.126-.051a21.637,21.637,0,0,1,3.448-1.008c.411-.087.829-.168,1.259-.24.114-.019.226-.039.342-.058a40.672,40.672,0,0,1,11.814,0c.118.018.231.039.347.058.427.071.843.152,1.251.238C45.732,18.4,48.333,19.888,48.333,21.271Zm0-7.486a2.176,2.176,0,0,1-2.173,2.173H42.3c-.048-.011-.1-.017-.15-.028-.547-.118-1.109-.224-1.684-.316l-.167-.026a40.815,40.815,0,0,0-12.265,0l-.172.026c-.573.092-1.134.2-1.679.315-.049.011-.1.017-.153.028H3.84a2.175,2.175,0,0,1-2.173-2.172V3.965A2.176,2.176,0,0,1,3.84,1.792H46.159a2.176,2.176,0,0,1,2.174,2.173Z"/></g></svg>