<svg xmlns="http://www.w3.org/2000/svg" xmlns:xlink="http://www.w3.org/1999/xlink" viewBox="0 0 232 232"><defs><style>.a,.b{fill:#fff;}.b{stroke:#fff;stroke-miterlimit:10;stroke-width:5px;}.c{fill:#326de6;}.d{filter:url(#a);}</style><filter id="a" x="0" y="0" width="232" height="232" filterUnits="userSpaceOnUse"><feOffset dy="3" input="SourceAlpha"/><feGaussianBlur stdDeviation="3" result="b"/><feFlood flood-color="#666" flood-opacity="0.161"/><feComposite operator="in" in2="b"/><feComposite in="SourceGraphic"/></filter></defs><g transform="translate(-840 -2471)"><g class="d" transform="matrix(1, 0, 0, 1, 840, 2471)"><circle class="a" cx="107" cy="107" r="107" transform="translate(9 6)"/></g><g transform="translate(617.792 200)"><path class="b" d="M148.381,36.868a11.833,11.833,0,0,0-5.85-6.764L86.774,3.414A10.228,10.228,0,0,0,82.2,2.5a19.294,19.294,0,0,0-4.57.366L21.876,29.739A9.823,9.823,0,0,0,16.391,36.5L2.681,96.647a11.533,11.533,0,0,0,2.011,8.775l38.573,47.714a13.31,13.31,0,0,0,8.409,3.839H113.1a9.11,9.11,0,0,0,8.409-3.839l38.573-47.714a12.484,12.484,0,0,0,2.194-8.775Z" transform="translate(257.497 2303.5)"/><path class="c" d="M148.381,36.868a11.833,11.833,0,0,0-5.85-6.764L86.774,3.414A10.228,10.228,0,0,0,82.2,2.5a19.294,19.294,0,0,0-4.57.366L21.876,29.739A9.823,9.823,0,0,0,16.391,36.5L2.681,96.647a11.533,11.533,0,0,0,2.011,8.775l38.573,47.714a13.31,13.31,0,0,0,8.409,3.839H113.1a9.11,9.11,0,0,0,8.409-3.839l38.573-47.714a12.484,12.484,0,0,0,2.194-8.775Z" transform="translate(257.497 2303.5)"/><path class="a" d="M131.124,85.426h0c-.183,0-.366,0-.366-.183s-.366-.183-.731-.183a8.9,8.9,0,0,0-2.194-.183,2.319,2.319,0,0,1-1.1-.183h-.183a36.945,36.945,0,0,1-6.216-1.1,2.208,2.208,0,0,1-1.28-1.28c.183,0,0,0,0,0h0l-1.462-.366a47.678,47.678,0,0,0-.731-16.087,49.525,49.525,0,0,0-6.4-14.99l1.1-1.1h0V49.6a2.552,2.552,0,0,1,.548-1.645,32.74,32.74,0,0,1,5.119-3.656h0l1.1-.548c.731-.366,1.28-.731,2.011-1.1.183-.183.366-.183.548-.366s0-.183,0-.366h0a3.576,3.576,0,0,0,.731-5.119,3.492,3.492,0,0,0-2.559-1.28,4.368,4.368,0,0,0-2.559.914h0l-.183.183c-.183.183-.366.366-.548.366a11.828,11.828,0,0,0-1.462,1.645c-.183.366-.548.548-.731.731h0A24.038,24.038,0,0,1,109,43.38a2.6,2.6,0,0,1-1.1.366,1.1,1.1,0,0,1-.731-.183h-.183l-1.462.914c-1.462-1.462-3.108-2.925-4.57-4.387a46.842,46.842,0,0,0-23.765-9.506l-.183-1.462h0V29.3a2.512,2.512,0,0,1-.914-1.462,36.522,36.522,0,0,1,.366-6.216v-.183c0-.366.183-.731.183-1.1.183-.731.183-1.462.366-2.194v-1.1h0A3.617,3.617,0,0,0,73.9,13.216,3.668,3.668,0,0,0,70.8,14.5a3.609,3.609,0,0,0-1.1,2.559h0v.914a9.176,9.176,0,0,0,.366,2.194,2.319,2.319,0,0,1,.183,1.1v.183a34.45,34.45,0,0,1,.366,6.216A2.512,2.512,0,0,1,69.7,29.12v.366h0l-.183,1.462c-2.011.183-4.022.548-6.216.914a43.579,43.579,0,0,0-22.486,12.8l-1.1-.731h-.183c-.183,0-.366.183-.731.183a2.6,2.6,0,0,1-1.1-.366,33.708,33.708,0,0,1-4.57-4.2h0c-.183-.366-.548-.548-.731-.731-.548-.548-.914-1.1-1.462-1.645-.183-.183-.366-.183-.548-.366l-.183-.183h0a4.368,4.368,0,0,0-2.559-.914,2.766,2.766,0,0,0-2.559,1.28,3.932,3.932,0,0,0,.731,5.119h0a.179.179,0,0,1,.183.183s.366.366.548.366a19.94,19.94,0,0,0,2.011,1.1l1.1.548h0a25.954,25.954,0,0,1,5.119,3.656,1.843,1.843,0,0,1,.548,1.645v-.183h0l1.1,1.1c-.183.366-.366.548-.548.914a43.41,43.41,0,0,0-6.4,29.981l-1.462.366h0a.179.179,0,0,1-.183.183,2.88,2.88,0,0,1-1.28,1.28,33.957,33.957,0,0,1-6.216,1.1h0a2.319,2.319,0,0,0-1.1.183c-.731,0-1.462.183-2.194.183-.183,0-.366.183-.731.183-.183,0-.183,0-.366.183h0a3.567,3.567,0,0,0-2.925,4.2h0a3.394,3.394,0,0,0,3.656,2.559,1.648,1.648,0,0,0,.914-.183h0c.183,0,.183,0,.183-.183s.548,0,.731,0c.731-.183,1.462-.548,2.011-.731a2.6,2.6,0,0,1,1.1-.366H21.8a32.588,32.588,0,0,1,6.033-1.645h.183a2.076,2.076,0,0,1,1.462.548.179.179,0,0,1,.183.183h0l1.645-.183A44.124,44.124,0,0,0,46.3,110.654a29,29,0,0,0,4.936,3.291l-.914,1.28h0a.179.179,0,0,0,.183.183,2.163,2.163,0,0,1,.183,1.828,30,30,0,0,1-2.925,5.3v.183a3.209,3.209,0,0,1-.731.914c-.366.366-.731,1.1-1.28,1.828-.183.183-.183.366-.366.548a.179.179,0,0,1-.183.183h0a3.763,3.763,0,0,0,1.462,4.936,3.389,3.389,0,0,0,1.28.366,4.1,4.1,0,0,0,3.473-2.194h0a.179.179,0,0,1,.183-.183c0-.183.183-.366.366-.548.183-.731.548-1.28.731-2.011l.366-1.1h0a30.938,30.938,0,0,1,2.377-5.667,2.843,2.843,0,0,1,1.462-1.1c.183,0,.183,0,.183-.183h0l.731-1.462a43.032,43.032,0,0,0,15.9,2.925,36.6,36.6,0,0,0,9.872-1.28,54.62,54.62,0,0,0,5.85-1.645l.731,1.28h0c.183,0,.183,0,.183.183a2.843,2.843,0,0,1,1.462,1.1,30.939,30.939,0,0,1,2.377,5.667v.183l.366,1.1a6.548,6.548,0,0,0,.731,2.011c.183.183.183.366.366.548a.179.179,0,0,0,.183.183h0a4.1,4.1,0,0,0,3.473,2.194,4.3,4.3,0,0,0,1.462-.366,3.059,3.059,0,0,0,1.645-2.011,4.7,4.7,0,0,0-.183-2.742h0a.179.179,0,0,0-.183-.183c0-.183-.183-.366-.366-.548a6.566,6.566,0,0,0-1.28-1.828,3.209,3.209,0,0,0-.731-.914v-.366a21.6,21.6,0,0,1-2.925-5.3,2.163,2.163,0,0,1,.183-1.828.179.179,0,0,1,.183-.183h0l-.548-1.462A45.186,45.186,0,0,0,116.316,88.9l1.462.183h0a.179.179,0,0,0,.183-.183,2.076,2.076,0,0,1,1.462-.548h.183A30.734,30.734,0,0,1,125.457,90h.183a2.6,2.6,0,0,0,1.1.366,9.8,9.8,0,0,0,2.011.914c.183,0,.366.183.731.183.183,0,.183,0,.366.183h0a1.648,1.648,0,0,0,.914.183,3.976,3.976,0,0,0,3.656-2.559A4.31,4.31,0,0,0,131.124,85.426ZM78.292,79.759l-4.936,2.377L68.42,79.759l-1.28-5.3,3.473-4.387H76.1l3.473,4.387Zm29.8-11.883a35,35,0,0,1,.731,11.517L91.454,74.457h0A2.99,2.99,0,0,1,89.26,70.8a2.946,2.946,0,0,1,.731-1.28L103.7,57.09A37.192,37.192,0,0,1,108.09,67.876Zm-9.872-17.55-14.99,10.6a3.108,3.108,0,0,1-4.022-.731,1.66,1.66,0,0,1-.548-1.28l-1.1-18.464a34.4,34.4,0,0,1,20.658,9.872ZM65.129,41l3.656-.731-.914,18.281h0a3.046,3.046,0,0,1-3.108,2.925,4.3,4.3,0,0,1-1.462-.366L48.128,50.326A36.3,36.3,0,0,1,65.129,41ZM42.826,57.09,56.354,69.156h0a2.938,2.938,0,0,1,.366,4.2,2.058,2.058,0,0,1-1.462.914L37.525,79.393A38.482,38.482,0,0,1,42.826,57.09ZM39.719,87.985l18.1-3.108a2.994,2.994,0,0,1,3.108,2.377,2.163,2.163,0,0,1-.183,1.828h0L53.795,105.9A35.962,35.962,0,0,1,39.719,87.985Zm41.5,22.669a36.993,36.993,0,0,1-7.861.914,40.973,40.973,0,0,1-11.517-1.828L70.8,93.47a2.835,2.835,0,0,1,3.656-.731,9.156,9.156,0,0,1,1.462,1.28h0l8.775,15.9A29.7,29.7,0,0,0,81.217,110.654Zm22.3-15.9a34.907,34.907,0,0,1-10.969,10.969l-7.13-17.184a2.973,2.973,0,0,1,1.645-3.473,5.338,5.338,0,0,1,1.645-.366L106.993,87.8A27.45,27.45,0,0,1,103.519,94.749Z" transform="translate(266.162 2312.345)"/></g></g></svg>