<?xml version="1.0" ?><svg id="Layer_1" style="enable-background:new 0 0 32 32;" version="1.1" viewBox="0 0 32 32" xml:space="preserve" xmlns="http://www.w3.org/2000/svg" xmlns:xlink="http://www.w3.org/1999/xlink"><style type="text/css">
	.st0{clip-path:url(#SVGID_2_);}
	.st1{clip-path:url(#SVGID_4_);}
</style><g><g><path d="M16,31C7.7290039,31,1,24.2714844,1,16S7.7290039,1,16,1s15,6.7285156,15,15S24.2709961,31,16,31z M16,3    C8.831543,3,3,8.8320313,3,16s5.831543,13,13,13s13-5.8320313,13-13S23.168457,3,16,3z M16,22c-3.3085938,0-6-2.6914063-6-6    s2.6914063-6,6-6s6,2.6914063,6,6S19.3085938,22,16,22z M16,12c-2.2055664,0-4,1.7939453-4,4s1.7944336,4,4,4s4-1.7939453,4-4    S18.2055664,12,16,12z"/></g><g><path d="M11.5112305,14.8427734c-0.1484375,0-0.296875-0.0332031-0.4331055-0.0986328l-8.1191406-3.9023438    c-0.4980469-0.2392578-0.7075195-0.8369141-0.4682617-1.3349609c0.7436523-1.546875,1.7202148-2.9306641,2.902832-4.1132813    c1.1821289-1.1816406,2.5664063-2.1582031,4.1142578-2.9023438c0.4980469-0.2392578,1.0957031-0.0292969,1.3344727,0.4677734    l3.9018555,8.1181641c0.2392578,0.4980469,0.0297852,1.0957031-0.4682617,1.3349609    c-0.4462891,0.2148438-0.8076172,0.4628906-1.1044922,0.7597656c-0.2958984,0.2958984-0.5439453,0.65625-0.7587891,1.1035156    c-0.1147461,0.2392578-0.3198242,0.4228516-0.5703125,0.5107422    C11.7348633,14.8242188,11.6230469,14.8427734,11.5112305,14.8427734z M4.7597656,9.4882813l6.3491211,3.0517578    c0.1962891-0.2861328,0.4111328-0.5458984,0.6489258-0.7832031c0.2373047-0.2373047,0.496582-0.4521484,0.7822266-0.6484375    L9.4887695,4.7597656C8.4985352,5.3291016,7.5996094,6.015625,6.8076172,6.8076172    C6.0151367,7.5996094,5.3291016,8.4990234,4.7597656,9.4882813z"/></g><g><path d="M22.0585938,29.6064453c-0.1113281,0-0.2231445-0.0185547-0.3305664-0.0566406    c-0.2504883-0.0869141-0.4555664-0.2705078-0.5708008-0.5097656l-3.8999023-8.1142578    c-0.2387695-0.4980469-0.0302734-1.0947266,0.4667969-1.3339844c0.8129883-0.3925781,1.4755859-1.0556641,1.8666992-1.8671875    c0.2392578-0.4970703,0.8378906-0.7060547,1.3339844-0.4677734l8.1147461,3.9003906    c0.2392578,0.1152344,0.4228516,0.3203125,0.5107422,0.5703125c0.0874023,0.2509766,0.0722656,0.5253906-0.0429688,0.7646484    c-1.4697266,3.0527344-3.9609375,5.5439453-7.0146484,7.015625C22.355957,29.5732422,22.2075195,29.6064453,22.0585938,29.6064453    z M19.4560547,20.8828125l3.0532227,6.3535156c1.9545898-1.1367188,3.5913086-2.7734375,4.7270508-4.7265625l-6.3535156-3.0537109    C20.4912109,20.0078125,20.0078125,20.4912109,19.4560547,20.8828125z"/></g></g></svg>