<?xml version="1.0" ?><svg id="Layer_1" style="enable-background:new 0 0 32 32;" version="1.1" viewBox="0 0 32 32" xml:space="preserve" xmlns="http://www.w3.org/2000/svg" xmlns:xlink="http://www.w3.org/1999/xlink"><style type="text/css">
	.st0{clip-path:url(#SVGID_2_);}
	.st1{clip-path:url(#SVGID_4_);}
</style><g><g><path d="M19.4287109,31H1.5c-0.5522461,0-1-0.4472656-1-1V2c0-0.5527344,0.4477539-1,1-1h17.9287109c0.5522461,0,1,0.4472656,1,1    v6c0,0.5527344-0.4477539,1-1,1c-3.8598633,0-7,3.140625-7,7s3.1401367,7,7,7c0.5522461,0,1,0.4472656,1,1v6    C20.4287109,30.5527344,19.980957,31,19.4287109,31z M2.5,29h15.9287109v-4.0556641c-4.4936523-0.4990234-8-4.3193359-8-8.9443359    s3.5063477-8.4453125,8-8.9443359V3H2.5V29z"/></g><g><path d="M19.5,28c-0.0273438,0-0.090332-0.0029297-0.1176758-0.0048828    c-0.519043-0.0429688-0.9536133-0.4785156-0.9536133-0.9990234v-2.0517578c-4.4936523-0.4990234-8-4.3193359-8-8.9443359    s3.5063477-8.4453125,8-8.9443359V5.0039063c0-0.5527344,0.4477539-1,1-1L19.5,4c6.6166992,0,12,5.3828125,12,12    S26.1166992,28,19.5,28z M20.4287109,6.0429688V8c0,0.5527344-0.4477539,1-1,1c-3.8598633,0-7,3.140625-7,7s3.1401367,7,7,7    c0.5522461,0,1,0.4472656,1,1v1.9619141C25.4887695,25.5097656,29.5,21.2148438,29.5,16    C29.5,10.7988281,25.5092773,6.5126953,20.4287109,6.0429688z M19.5,20.9287109    c-2.7177734,0-4.9287109-2.2109375-4.9287109-4.9287109S16.7822266,11.0712891,19.5,11.0712891    S24.4287109,13.2822266,24.4287109,16S22.2177734,20.9287109,19.5,20.9287109z M19.5,13.0712891    c-1.6147461,0-2.9287109,1.3134766-2.9287109,2.9287109S17.8852539,18.9287109,19.5,18.9287109    S22.4287109,17.6152344,22.4287109,16S21.1147461,13.0712891,19.5,13.0712891z"/></g></g></svg>