<?xml version="1.0" encoding="iso-8859-1"?>
<!-- Generator: Adobe Illustrator 19.0.0, SVG Export Plug-In . SVG Version: 6.00 Build 0)  -->
<svg xmlns="http://www.w3.org/2000/svg" xmlns:xlink="http://www.w3.org/1999/xlink" version="1.1" id="Capa_1" x="0px" y="0px" viewBox="0 0 512 512" style="enable-background:new 0 0 512 512;" xml:space="preserve" width="512px" height="512px">
<g>
	<g>
		<path d="M473.6,0H38.4C17.229,0,0,17.229,0,38.4v435.2C0,494.771,17.229,512,38.4,512h435.2c21.171,0,38.4-17.229,38.4-38.4V38.4    C512,17.229,494.771,0,473.6,0z M494.933,473.6c0,11.767-9.566,21.333-21.333,21.333H38.4c-11.759,0-21.333-9.566-21.333-21.333    V38.4c0-11.768,9.574-21.333,21.333-21.333h435.2c11.759,0,21.333,9.566,21.333,21.333V473.6z" fill="#404ace"/>
	</g>
</g>
<g>
	<g>
		<path d="M76.8,34.133H42.667c-4.71,0-8.533,3.814-8.533,8.533V76.8c0,4.719,3.823,8.533,8.533,8.533H76.8    c4.71,0,8.533-3.814,8.533-8.533V42.667C85.333,37.948,81.51,34.133,76.8,34.133z M68.267,68.267H51.2V51.2h17.067V68.267z" fill="#404ace"/>
	</g>
</g>
<g>
	<g>
		<path d="M145.067,34.133h-34.133c-4.71,0-8.533,3.814-8.533,8.533V76.8c0,4.719,3.823,8.533,8.533,8.533h34.133    c4.71,0,8.533-3.814,8.533-8.533V42.667C153.6,37.948,149.777,34.133,145.067,34.133z M136.533,68.267h-17.067V51.2h17.067V68.267    z" fill="#404ace"/>
	</g>
</g>
<g>
	<g>
		<path d="M213.333,34.133H179.2c-4.71,0-8.533,3.814-8.533,8.533V76.8c0,4.719,3.823,8.533,8.533,8.533h34.133    c4.71,0,8.533-3.814,8.533-8.533V42.667C221.867,37.948,218.044,34.133,213.333,34.133z M204.8,68.267h-17.067V51.2H204.8V68.267z    " fill="#404ace"/>
	</g>
</g>
<g>
	<g>
		<path d="M473.6,0H38.4C17.229,0,0,17.229,0,38.4v72.533c0,4.719,3.823,8.533,8.533,8.533h494.933c4.71,0,8.533-3.814,8.533-8.533    V38.4C512,17.229,494.771,0,473.6,0z M494.933,102.4H17.067v-64c0-11.768,9.574-21.333,21.333-21.333h435.2    c11.759,0,21.333,9.566,21.333,21.333V102.4z" fill="#404ace"/>
	</g>
</g>
<g>
	<g>
		<path d="M418.133,273.067h-19.567c-5.137,0-9.677-3.243-11.051-7.876c-2.338-7.953-5.402-13.389-8.644-19.149l-2.423-4.352    c-2.338-4.284-1.442-9.813,2.193-13.44l13.85-13.85c3.336-3.337,3.336-8.73,0-12.066l-31.625-31.625    c-3.2-3.209-8.866-3.209-12.066,0l-13.841,13.85c-3.635,3.627-9.165,4.523-13.449,2.193l-4.335-2.415    c-5.76-3.243-11.204-6.315-19.166-8.653c-4.642-1.365-7.876-5.905-7.876-11.051v-19.567c0-4.719-3.823-8.533-8.533-8.533h-51.2    c-4.71,0-8.533,3.814-8.533,8.533v19.567c0,5.146-3.234,9.685-7.876,11.051c-7.97,2.347-13.406,5.41-19.166,8.653l-4.335,2.415    c-4.284,2.33-9.813,1.434-13.44-2.193l-13.85-13.85c-1.596-1.604-3.772-2.5-6.033-2.5s-4.429,0.896-6.033,2.5l-31.625,31.625    c-3.328,3.337-3.328,8.73,0,12.066l13.85,13.85c3.627,3.627,4.531,9.156,2.193,13.44l-2.423,4.352    c-3.243,5.76-6.306,11.187-8.653,19.149c-1.365,4.634-5.905,7.876-11.042,7.876H93.867c-4.71,0-8.533,3.814-8.533,8.533v51.2    c0,4.719,3.823,8.533,8.533,8.533h19.567c5.137,0,9.677,3.243,11.042,7.876c2.347,7.953,5.402,13.389,8.644,19.14l2.432,4.36    c2.338,4.292,1.442,9.813-2.193,13.44L119.509,400c-3.337,3.337-3.337,8.73,0,12.066l31.625,31.625    c3.2,3.191,8.866,3.191,12.066,0l13.841-13.85c3.635-3.618,9.165-4.514,13.449-2.193l4.326,2.406    c5.76,3.251,11.204,6.323,19.174,8.661c4.642,1.365,7.876,5.905,7.876,11.051v19.567c0,4.719,3.823,8.533,8.533,8.533h51.2    c4.71,0,8.533-3.814,8.533-8.533v-19.567c0-5.146,3.234-9.685,7.885-11.051c7.97-2.347,13.414-5.41,19.174-8.661l4.326-2.406    c4.292-2.33,9.813-1.425,13.44,2.193l13.85,13.85c1.596,1.604,3.772,2.5,6.033,2.5c2.261,0,4.429-0.896,6.033-2.5l31.625-31.625    c3.328-3.337,3.328-8.73,0-12.066l-13.85-13.85c-3.627-3.627-4.531-9.148-2.193-13.44l2.423-4.361    c3.243-5.751,6.298-11.179,8.644-19.14c1.365-4.634,5.905-7.876,11.042-7.876h19.567c4.71,0,8.533-3.814,8.533-8.533v-51.2    C426.667,276.881,422.844,273.067,418.133,273.067z M409.6,324.267h-11.034c-12.663,0-23.936,8.277-27.426,20.13    c-1.801,6.093-4.036,10.069-7.142,15.582l-2.543,4.565c-5.931,10.888-3.831,24.738,5.111,33.673l7.817,7.817l-19.558,19.558    l-7.817-7.817c-8.943-8.934-22.792-11.051-33.672-5.111l-4.54,2.526c-5.521,3.115-9.506,5.359-15.607,7.159    c-11.844,3.482-20.122,14.763-20.122,27.418V460.8h-34.133v-11.034c0-12.655-8.277-23.936-20.13-27.426    c-6.101-1.801-10.086-4.045-15.607-7.159l-4.54-2.526c-10.897-5.939-24.738-3.823-33.681,5.111l-7.817,7.817L137.6,406.025    l7.817-7.817c8.943-8.934,11.042-22.784,5.111-33.672l-2.543-4.565c-3.098-5.513-5.342-9.489-7.134-15.582    c-3.49-11.844-14.763-20.122-27.418-20.122H102.4v-34.133h11.034c12.664,0,23.936-8.277,27.426-20.13    c1.792-6.093,4.036-10.069,7.142-15.582l2.543-4.565c5.931-10.889,3.831-24.738-5.111-33.673l-7.817-7.817l19.558-19.558    l7.817,7.817c8.943,8.943,22.793,11.034,33.673,5.111l4.548-2.534c5.513-3.106,9.498-5.35,15.599-7.151    c11.844-3.482,20.122-14.763,20.122-27.418V153.6h34.133v11.034c0,12.655,8.277,23.936,20.13,27.426    c6.093,1.8,10.086,4.045,15.599,7.151l4.548,2.534c10.888,5.948,24.738,3.823,33.681-5.111l7.817-7.817l19.558,19.558    l-7.817,7.817c-8.951,8.934-11.051,22.784-5.12,33.673l2.543,4.565c3.106,5.504,5.35,9.489,7.142,15.582    c3.49,11.844,14.763,20.122,27.418,20.122H409.6V324.267z" fill="#404ace"/>
	</g>
</g>
<g>
	<g>
		<path d="M256,204.8c-56.465,0-102.4,45.935-102.4,102.4S199.535,409.6,256,409.6s102.4-45.935,102.4-102.4    S312.465,204.8,256,204.8z M256,392.533c-47.053,0-85.333-38.281-85.333-85.333s38.281-85.333,85.333-85.333    s85.333,38.281,85.333,85.333S303.053,392.533,256,392.533z" fill="#404ace"/>
	</g>
</g>
<g>
	<g>
		<path d="M208.333,307.2l19.567-19.567c3.337-3.337,3.337-8.73,0-12.066c-3.328-3.337-8.738-3.337-12.066,0l-25.6,25.6    c-3.337,3.337-3.337,8.73,0,12.066l25.6,25.6c1.664,1.664,3.849,2.5,6.033,2.5c2.185,0,4.369-0.836,6.033-2.5    c3.337-3.337,3.337-8.73,0-12.066L208.333,307.2z" fill="#404ace"/>
	</g>
</g>
<g>
	<g>
		<path d="M321.766,301.167l-25.6-25.6c-3.328-3.337-8.738-3.337-12.066,0c-3.337,3.337-3.337,8.73,0,12.066l19.567,19.567    L284.1,326.767c-3.337,3.337-3.337,8.73,0,12.066c1.664,1.664,3.849,2.5,6.033,2.5c2.185,0,4.369-0.836,6.033-2.5l25.6-25.6    C325.103,309.897,325.103,304.503,321.766,301.167z" fill="#404ace"/>
	</g>
</g>
<g>
	<g>
		<path d="M266.871,264.858c-4.531-1.254-9.25,1.34-10.547,5.871l-17.067,59.733c-1.297,4.523,1.331,9.25,5.862,10.547    c0.785,0.213,1.57,0.324,2.347,0.324c3.721,0,7.134-2.441,8.201-6.195l17.067-59.733    C274.031,270.882,271.403,266.155,266.871,264.858z" fill="#404ace"/>
	</g>
</g>
<g>
</g>
<g>
</g>
<g>
</g>
<g>
</g>
<g>
</g>
<g>
</g>
<g>
</g>
<g>
</g>
<g>
</g>
<g>
</g>
<g>
</g>
<g>
</g>
<g>
</g>
<g>
</g>
<g>
</g>
</svg>
