<?xml version="1.0" encoding="iso-8859-1"?>
<!-- Generator: Adobe Illustrator 19.0.0, SVG Export Plug-In . SVG Version: 6.00 Build 0)  -->
<svg xmlns="http://www.w3.org/2000/svg" xmlns:xlink="http://www.w3.org/1999/xlink" version="1.1" id="Capa_1" x="0px" y="0px" viewBox="0 0 512 512" style="enable-background:new 0 0 512 512;" xml:space="preserve" width="512px" height="512px">
<g>
	<g>
		<path d="M396,159c4.142,0,7.5-3.358,7.5-7.5v-90c0-4.142-3.358-7.5-7.5-7.5h-44.167c-4.142,0-7.5,3.358-7.5,7.5    c0,4.142,3.358,7.5,7.5,7.5H388.5v75h-265V69h196.167c4.142,0,7.5-3.358,7.5-7.5c0-4.142-3.358-7.5-7.5-7.5H116    c-4.142,0-7.5,3.358-7.5,7.5v90c0,4.142,3.358,7.5,7.5,7.5h132.5v15H116c-4.142,0-7.5,3.358-7.5,7.5v90c0,4.142,3.358,7.5,7.5,7.5    h12.167c4.142,0,7.5-3.358,7.5-7.5c0-4.142-3.358-7.5-7.5-7.5H123.5v-75h265v75H160c-4.142,0-7.5,3.358-7.5,7.5    c0,4.142,3.358,7.5,7.5,7.5h88.5v18H64c-4.142,0-7.5,3.358-7.5,7.5V333h-49c-4.142,0-7.5,3.358-7.5,7.5v110    c0,4.142,3.358,7.5,7.5,7.5h110c4.142,0,7.5-3.358,7.5-7.5v-110c0-4.142-3.358-7.5-7.5-7.5h-46v-21h177v21H201    c-4.142,0-7.5,3.358-7.5,7.5v110c0,4.142,3.358,7.5,7.5,7.5h110c4.142,0,7.5-3.358,7.5-7.5v-110c0-4.142-3.358-7.5-7.5-7.5h-47.5    v-21H352c4.142,0,7.5-3.358,7.5-7.5c0-4.142-3.358-7.5-7.5-7.5h-88.5v-18H396c4.142,0,7.5-3.358,7.5-7.5v-90    c0-4.142-3.358-7.5-7.5-7.5H263.5v-15H396z M110,348v95H15v-95H110z M303.5,348v95h-95v-95H303.5z" fill="#404ace"/>
	</g>
</g>
<g>
	<g>
		<path d="M205.5,83h-44c-8.547,0-15.5,6.953-15.5,15.5v14c0,8.547,6.953,15.5,15.5,15.5h44c8.547,0,15.5-6.953,15.5-15.5v-14    C221,89.953,214.047,83,205.5,83z M206,112.5c0,0.276-0.224,0.5-0.5,0.5h-44c-0.276,0-0.5-0.224-0.5-0.5v-14    c0-0.276,0.224-0.5,0.5-0.5h44c0.276,0,0.5,0.224,0.5,0.5V112.5z" fill="#404ace"/>
	</g>
</g>
<g>
	<g>
		<path d="M205.5,204h-44c-8.547,0-15.5,6.953-15.5,15.5v14c0,8.547,6.953,15.5,15.5,15.5h44c8.547,0,15.5-6.953,15.5-15.5v-14    C221,210.953,214.047,204,205.5,204z M206,233.5c0,0.276-0.224,0.5-0.5,0.5h-44c-0.276,0-0.5-0.224-0.5-0.5v-14    c0-0.276,0.224-0.5,0.5-0.5h44c0.276,0,0.5,0.224,0.5,0.5V233.5z" fill="#404ace"/>
	</g>
</g>
<g>
	<g>
		<path d="M263,83h-14c-8.547,0-15.5,6.953-15.5,15.5v14c0,8.547,6.953,15.5,15.5,15.5h14c8.547,0,15.5-6.953,15.5-15.5v-14    C278.5,89.953,271.547,83,263,83z M263.5,112.5c0,0.276-0.224,0.5-0.5,0.5h-14c-0.276,0-0.5-0.224-0.5-0.5v-14    c0-0.276,0.224-0.5,0.5-0.5h14c0.276,0,0.5,0.224,0.5,0.5V112.5z" fill="#404ace"/>
	</g>
</g>
<g>
	<g>
		<path d="M263,204h-14c-8.547,0-15.5,6.953-15.5,15.5v14c0,8.547,6.953,15.5,15.5,15.5h14c8.547,0,15.5-6.953,15.5-15.5v-14    C278.5,210.953,271.547,204,263,204z M263.5,233.5c0,0.276-0.224,0.5-0.5,0.5h-14c-0.276,0-0.5-0.224-0.5-0.5v-14    c0-0.276,0.224-0.5,0.5-0.5h14c0.276,0,0.5,0.224,0.5,0.5V233.5z" fill="#404ace"/>
	</g>
</g>
<g>
	<g>
		<path d="M504.5,333h-49v-28.5c0-4.142-3.358-7.5-7.5-7.5h-64.75c-4.142,0-7.5,3.358-7.5,7.5c0,4.142,3.358,7.5,7.5,7.5h57.25v21    h-46c-4.142,0-7.5,3.358-7.5,7.5v110c0,4.142,3.358,7.5,7.5,7.5h110c4.142,0,7.5-3.358,7.5-7.5v-110    C512,336.358,508.642,333,504.5,333z M497,443h-95v-95h95V443z" fill="#404ace"/>
	</g>
</g>
<g>
	<g>
		<path d="M82.5,372h-40c-4.142,0-7.5,3.358-7.5,7.5c0,4.142,3.358,7.5,7.5,7.5h40c4.142,0,7.5-3.358,7.5-7.5    C90,375.358,86.642,372,82.5,372z" fill="#404ace"/>
	</g>
</g>
<g>
	<g>
		<path d="M82.5,406.58h-40c-4.142,0-7.5,3.358-7.5,7.5c0,4.142,3.358,7.5,7.5,7.5h40c4.142,0,7.5-3.358,7.5-7.5    C90,409.938,86.642,406.58,82.5,406.58z" fill="#404ace"/>
	</g>
</g>
<g>
	<g>
		<path d="M276,372h-40c-4.142,0-7.5,3.358-7.5,7.5c0,4.142,3.358,7.5,7.5,7.5h40c4.142,0,7.5-3.358,7.5-7.5    C283.5,375.358,280.142,372,276,372z" fill="#404ace"/>
	</g>
</g>
<g>
	<g>
		<path d="M276,406.58h-40c-4.142,0-7.5,3.358-7.5,7.5c0,4.142,3.358,7.5,7.5,7.5h40c4.142,0,7.5-3.358,7.5-7.5    C283.5,409.938,280.142,406.58,276,406.58z" fill="#404ace"/>
	</g>
</g>
<g>
	<g>
		<path d="M469.5,372h-40c-4.142,0-7.5,3.358-7.5,7.5c0,4.142,3.358,7.5,7.5,7.5h40c4.142,0,7.5-3.358,7.5-7.5    C477,375.358,473.642,372,469.5,372z" fill="#404ace"/>
	</g>
</g>
<g>
	<g>
		<path d="M469.5,406.58h-40c-4.142,0-7.5,3.358-7.5,7.5c0,4.142,3.358,7.5,7.5,7.5h40c4.142,0,7.5-3.358,7.5-7.5    C477,409.938,473.642,406.58,469.5,406.58z" fill="#404ace"/>
	</g>
</g>
<g>
</g>
<g>
</g>
<g>
</g>
<g>
</g>
<g>
</g>
<g>
</g>
<g>
</g>
<g>
</g>
<g>
</g>
<g>
</g>
<g>
</g>
<g>
</g>
<g>
</g>
<g>
</g>
<g>
</g>
</svg>
