<svg width="106" height="101" fill="none" xmlns="http://www.w3.org/2000/svg" style=""><rect id="backgroundrect" width="100%" height="100%" x="0" y="0" fill="none" stroke="none"/>
  
  
  
  
  
  
<g class="currentLayer" style=""><title>Layer 1</title><path d="M77.86100006103516,26.439003586769104 a24.950000762939453,24.950000762939453 0 1 1 -49.900001525878906,0.02199999988079071 a24.950000762939453,24.950000762939453 0 0 1 49.900001525878906,-0.02199999988079071 z" stroke="#1a69d8" stroke-width="3" stroke-miterlimit="10" id="svg_1" class="selected" fill="none" stroke-opacity="1"/><path d="M58.49300003051758,19.83300268650055 v-1.2890000343322754 a4.064000129699707,4.064000129699707 0 0 0 -4.063000202178955,-4.073999881744385 h-3.302999973297119 a4.061999797821045,4.061999797821045 0 0 0 -4.063000202178955,4.073999881744385 v2.7639999389648438 c0,1.2769999504089355 0.9900000095367432,2.3340001106262207 2.3010001182556152,3.1710000038146973 l6.199999809265137,2.367000102996826 " stroke="#1a69d8" stroke-width="3" stroke-miterlimit="10" id="svg_2" class="selected" stroke-opacity="1" opacity="1"/><path d="M47.09700012207031,31.757002472877502 v1.2890000343322754 a4.063000202178955,4.063000202178955 0 0 0 4.063000202178955,4.063000202178955 h3.302999973297119 a4.063000202178955,4.063000202178955 0 0 0 4.063000202178955,-4.063000202178955 v-2.7639999389648438 a4.260000228881836,4.260000228881836 0 0 0 -2.367000102996826,-3.236999988555908 l-5.934999942779541,-2.2799999713897705 M53.042999267578125,11.96000349521637 v27.802000045776367 M19.229000091552734,55.12200605869293 V41.106003403663635 c-0.5839999914169312,-3.5899999141693115 -3.138000011444092,-6.958000183105469 -6.695000171661377,-6.958000183105469 h-2.421999931335449 " stroke="#1a69d8" stroke-width="3" stroke-miterlimit="10" id="svg_3" class="selected" stroke-opacity="1"/><path d="m24.82200050354004,87.89000761508942 l-3.953000068664551,-3.953000068664551 L1.777000069618225,51.91800367832184 L1.5,26.659002900123596 H3.9800000190734863 c3.566999912261963,0 6.110000133514404,3.4140000343322754 6.693999767303467,6.992000102996826 v14.027999877929688 l5.241000175476074,5.505000114440918 l14.996999740600586,14.996999740600586 l1.3650000095367432,-1.3650000095367432 l-9.3149995803833,-9.281999588012695 c-2.312000036239624,-2.4560000896453857 -1.5410000085830688,-6.980999946594238 0.9139999747276306,-9.305000305175781 l0.6600000262260437,-0.5400000214576721 L41.12999725341797,64.28400480747223 l0.7710000276565552,12.112000465393066 v11.494999885559082 M48.68299865722656,99.82600462436676 V88.11000120639801 H15.29800033569336 V99.82600462436676 M86.55999755859375,55.12200605869293 V41.106003403663635 c0.5730000138282776,-3.5899999141693115 3.127000093460083,-7.001999855041504 6.684000015258789,-7.001999855041504 h2.421999931335449 " stroke="#1a69d8" stroke-width="3" stroke-miterlimit="10" id="svg_4" class="selected" stroke-opacity="1"/><path d="m80.74600219726562,88.15500700473785 l4.2179999351501465,-4.2179999351501465 l19.08099937438965,-32.01900100708008 l0.2639999985694885,-25.259000778198242 h-2.4110000133514404 c-3.566999912261963,0 -6.110000133514404,3.4140000343322754 -6.693999767303467,6.992000102996826 v14.027999877929688 l-5.242000102996826,5.505000114440918 l-14.996000289916992,14.996999740600586 l-1.3660000562667847,-1.3650000095367432 l9.315999984741211,-9.281999588012695 c2.322999954223633,-2.4560000896453857 1.5410000085830688,-6.980999946594238 -0.9139999747276306,-9.305000305175781 l-0.6610000133514404,-0.5400000214576721 l-16.593000411987305,16.5939998626709 l-0.7710000276565552,12.112000465393066 v11.494999885559082 " stroke="#1a69d8" stroke-width="3" stroke-miterlimit="10" id="svg_5" class="selected" stroke-opacity="1"/><path d="M57.14999771118164,99.82600462436676 V88.11000120639801 h33.3849983215332 V99.82600462436676 " stroke="#1a69d8" stroke-width="3" stroke-miterlimit="10" id="svg_6" class="selected" stroke-opacity="1"/></g></svg>