<svg id="SvgjsSvg1016" width="288" height="288" xmlns="http://www.w3.org/2000/svg" version="1.1" xmlns:xlink="http://www.w3.org/1999/xlink" xmlns:svgjs="http://svgjs.com/svgjs"><defs id="SvgjsDefs1017"></defs><g id="SvgjsG1018"><svg xmlns="http://www.w3.org/2000/svg" width="288" height="288" viewBox="0 0 400 400"><path fill-rule="evenodd" d="M92.696 31.507 C 77.292 39.812,63.453 47.594,61.941 48.800 C 45.824 61.661,62.294 119.959,91.194 152.344 L 95.726 157.422 94.352 162.878 C 89.074 183.842,89.355 216.326,94.972 234.498 C 95.280 235.495,94.423 236.098,91.241 237.122 C 88.968 237.853,84.963 239.610,82.339 241.025 L 77.568 243.597 75.864 239.486 C 73.517 233.824,68.206 228.526,61.867 225.523 L 56.641 223.047 39.063 223.047 C 15.345 223.047,7.733 226.323,2.055 238.975 L -0.038 243.639 0.176 303.265 L 0.391 362.891 2.686 367.034 C 5.422 371.973,9.387 375.720,15.011 378.684 L 19.141 380.859 38.672 380.859 C 65.408 380.859,72.318 377.316,76.960 361.222 L 78.590 355.570 101.209 365.754 C 142.005 384.122,138.191 383.594,229.902 383.594 C 300.535 383.594,300.873 383.547,313.251 372.208 C 356.736 332.369,392.413 298.954,394.728 295.897 C 407.765 278.683,395.794 250.835,374.122 247.960 C 369.734 247.378,369.849 247.685,371.841 241.895 C 385.503 202.187,378.921 154.061,354.820 117.437 C 348.837 108.346,345.722 106.726,339.957 109.707 C 334.534 112.511,334.751 117.166,340.735 126.404 C 364.028 162.360,368.572 204.220,353.450 243.529 C 351.150 249.508,350.127 251.166,347.423 253.295 C 345.631 254.705,331.899 267.193,316.907 281.045 C 298.042 298.475,288.777 306.520,286.817 307.172 C 282.919 308.468,189.206 309.059,183.263 307.825 C 173.349 305.767,171.237 295.264,179.909 291.148 C 182.314 290.007,186.076 289.844,209.972 289.844 C 224.995 289.844,239.067 289.506,241.242 289.094 C 254.495 286.580,263.856 276.407,264.676 263.626 L 265.047 257.842 268.309 255.930 C 294.059 240.840,290.085 201.777,261.693 190.901 C 258.824 189.802,254.312 189.484,236.328 189.111 C 215.884 188.688,214.246 188.548,211.287 186.970 C 195.725 178.671,196.815 156.921,213.084 151.115 C 215.342 150.309,223.248 150.061,247.500 150.034 C 282.624 149.996,282.700 149.985,284.871 144.789 C 286.380 141.178,285.641 138.047,282.695 135.568 L 280.349 133.594 261.659 133.594 L 242.969 133.594 242.969 123.399 C 242.969 109.758,240.102 105.040,232.789 106.646 C 227.397 107.830,226.563 109.938,226.563 122.372 L 226.563 133.594 219.991 133.594 C 177.475 133.594,169.589 193.596,210.698 204.303 C 214.048 205.176,219.793 205.470,233.563 205.473 C 253.670 205.478,256.142 205.850,261.080 209.616 C 271.165 217.308,271.178 232.819,261.106 240.399 L 257.759 242.917 254.422 240.370 C 252.586 238.969,249.171 236.959,246.831 235.904 L 242.578 233.984 177.208 233.764 L 111.837 233.543 110.261 226.732 C 106.815 211.833,106.042 194.269,108.173 179.281 C 109.771 168.042,109.408 168.477,114.859 171.289 C 137.847 183.144,179.406 135.427,189.443 85.654 L 191.196 76.964 196.784 75.214 C 224.915 66.404,256.258 67.928,283.916 79.452 C 297.888 85.274,304.115 70.285,290.314 64.050 C 264.479 52.378,226.024 49.773,197.292 57.748 C 190.985 59.499,190.968 59.494,190.279 55.824 C 189.324 50.734,185.472 48.087,155.368 31.836 C 132.185 19.321,126.210 16.406,123.743 16.406 C 121.280 16.406,115.380 19.276,92.696 31.507 M151.563 48.825 C 178.189 63.127,175.307 60.554,174.760 69.538 C 172.854 100.822,152.048 139.011,128.598 154.268 L 123.993 157.265 121.434 155.887 C 97.222 142.848,72.640 98.387,72.660 67.671 L 72.665 61.328 98.246 47.506 L 123.828 33.684 126.953 35.484 C 128.672 36.474,139.746 42.477,151.563 48.825 M144.141 69.791 C 143.281 70.420,137.524 76.040,131.347 82.279 L 120.117 93.624 115.126 89.390 C 108.022 83.364,101.837 83.523,99.237 89.800 C 97.298 94.480,98.592 96.956,107.101 104.851 C 120.968 117.715,120.247 117.876,139.844 97.566 C 155.588 81.250,156.181 80.496,156.222 76.770 C 156.282 71.306,148.339 66.717,144.141 69.791 M316.417 84.171 C 307.542 88.655,312.660 101.724,322.266 99.104 C 328.080 97.519,330.093 90.412,325.977 86.006 C 323.187 83.020,319.931 82.395,316.417 84.171 M55.387 241.016 C 61.789 244.787,61.328 240.037,61.328 302.206 L 61.328 357.422 59.586 359.865 C 56.437 364.279,54.071 364.844,38.718 364.844 C 14.267 364.844,16.406 370.833,16.406 302.380 C 16.406 239.298,15.951 242.643,24.932 239.777 C 29.328 238.374,52.503 239.317,55.387 241.016 M241.617 251.854 C 249.887 255.964,250.452 265.842,242.710 270.968 L 239.571 273.047 208.262 273.438 C 178.261 273.812,176.800 273.899,173.300 275.516 C 152.729 285.024,152.737 312.396,173.314 322.145 L 178.516 324.609 228.125 324.847 C 279.979 325.096,286.989 324.776,294.961 321.793 C 299.290 320.174,303.738 316.281,342.578 280.128 C 357.871 265.893,360.629 264.097,367.188 264.097 C 378.675 264.097,386.205 273.526,382.714 283.539 C 381.682 286.502,300.967 361.576,296.200 364.008 C 289.896 367.224,286.762 367.347,221.054 366.952 C 138.160 366.454,146.581 367.716,106.455 349.771 L 78.144 337.109 78.134 301.049 L 78.125 264.989 82.195 261.329 C 88.298 255.842,96.530 252.031,105.002 250.770 C 114.784 249.314,238.481 250.296,241.617 251.854 " fill="#2d6cdf" class="color000 svgShape"></path></svg></g></svg>