<svg width="66" height="66" xmlns="http://www.w3.org/2000/svg">

 <title/>
 <g>
  <title>background</title>
  <rect fill="none" id="canvas_background" height="402" width="582" y="-1" x="-1"/>
 </g>
 <g>
  <title>Layer 1</title>
  <path fill="#000fff" id="svg_1" d="m33,2a32,32 0 1 0 32,32a32,32 0 0 0 -32,-32z"/>
  <circle stroke-width="2px" stroke-miterlimit="10" stroke-linecap="round" stroke="#ffffff" fill="none" id="svg_2" r="6.18" cy="34" cx="33" class="cls-1"/>
  <path stroke-width="2px" stroke-miterlimit="10" stroke-linecap="round" stroke="#ffffff" fill="none" id="svg_3" d="m47.57,34a13.14,13.14 0 0 0 -0.64,-4.06l2.78,-1.85a0.62,0.62 0 0 0 0.17,-0.89l-4.37,-5.92a0.7,0.7 0 0 0 -0.94,-0.16l-3,1.86a12,12 0 0 0 -4.57,-2.12l0,-3.22c0,-0.35 0.18,-0.64 -0.19,-0.64l-7.62,0c-0.37,0 -0.19,0.29 -0.19,0.64l0,3.22a12,12 0 0 0 -4.53,2.14l-2.92,-1.86a0.77,0.77 0 0 0 -1,0.16l-4.4,5.92a0.61,0.61 0 0 0 0.15,0.89l2.77,1.85a13.13,13.13 0 0 0 0,8.11l-2.78,1.83a0.62,0.62 0 0 0 -0.17,0.89l4.37,5.92a0.7,0.7 0 0 0 0.94,0.16l3,-1.86a12,12 0 0 0 4.57,2.13l0,3.22c0,0.35 -0.18,0.64 0.19,0.64l7.62,0c0.37,0 0.19,-0.29 0.19,-0.64l0,-3.22a12,12 0 0 0 4.53,-2.14l2.92,1.86a0.77,0.77 0 0 0 1,-0.16l4.4,-5.92a0.61,0.61 0 0 0 -0.15,-0.89l-2.77,-1.85a13.14,13.14 0 0 0 0.64,-4.04z" class="cls-1"/>
 </g>
</svg>