<?xml version="1.0" encoding="iso-8859-1"?>
<!-- Generator: Adobe Illustrator 19.0.0, SVG Export Plug-In . SVG Version: 6.00 Build 0)  -->
<svg xmlns="http://www.w3.org/2000/svg" xmlns:xlink="http://www.w3.org/1999/xlink" version="1.1" id="Capa_1" x="0px" y="0px" viewBox="0 0 512 512" style="enable-background:new 0 0 512 512;" xml:space="preserve" width="512px" height="512px">
<g>
	<g>
		<path d="M496,192v112c-0.066,61.828-50.172,111.934-112,112h-48c-2.122,0-4.156,0.844-5.656,2.344L264,484.688V424    c0-4.418-3.582-8-8-8H128c-61.828-0.066-111.934-50.172-112-112V176c0.066-61.828,50.172-111.934,112-112h168V48H128    C57.342,48.084,0.084,105.342,0,176v128c0.084,70.658,57.342,127.916,128,128h120v72c0,4.418,3.582,8,8,8    c2.122,0,4.156-0.844,5.656-2.344L339.312,432H384c70.658-0.084,127.916-57.342,128-128V192H496z" fill="#fe825a"/>
	</g>
</g>
<g>
	<g>
		<path d="M408,0c-57.438,0-104,46.562-104,104s46.562,104,104,104c57.41-0.066,103.934-46.59,104-104C512,46.562,465.438,0,408,0z     M408,192c-48.601,0-88-39.399-88-88s39.399-88,88-88c48.577,0.057,87.943,39.423,88,88C496,152.601,456.601,192,408,192z" fill="#fe825a"/>
	</g>
</g>
<g>
	<g>
		<path d="M413.658,58.346c-3.124-3.125-8.189-3.125-11.314-0.002l-24,24l11.312,11.312L400,83.312V152h16V64    C416,61.879,415.157,59.846,413.658,58.346z" fill="#fe825a"/>
	</g>
</g>
<g>
	<g>
		<rect x="96" y="128" width="16" height="16" fill="#fe825a"/>
	</g>
</g>
<g>
	<g>
		<rect x="128" y="128" width="16" height="16" fill="#fe825a"/>
	</g>
</g>
<g>
	<g>
		<rect x="160" y="128" width="128" height="16" fill="#fe825a"/>
	</g>
</g>
<g>
	<g>
		<rect x="96" y="192" width="208" height="16" fill="#fe825a"/>
	</g>
</g>
<g>
	<g>
		<rect x="96" y="256" width="336" height="16" fill="#fe825a"/>
	</g>
</g>
<g>
	<g>
		<rect x="96" y="320" width="304" height="16" fill="#fe825a"/>
	</g>
</g>
<g>
</g>
<g>
</g>
<g>
</g>
<g>
</g>
<g>
</g>
<g>
</g>
<g>
</g>
<g>
</g>
<g>
</g>
<g>
</g>
<g>
</g>
<g>
</g>
<g>
</g>
<g>
</g>
<g>
</g>
</svg>
