<?xml version="1.0" encoding="iso-8859-1"?>
<!-- Generator: Adobe Illustrator 19.0.0, SVG Export Plug-In . SVG Version: 6.00 Build 0)  -->
<svg xmlns="http://www.w3.org/2000/svg" xmlns:xlink="http://www.w3.org/1999/xlink" version="1.1" id="Capa_1" x="0px" y="0px" viewBox="0 0 512 512" style="enable-background:new 0 0 512 512;" xml:space="preserve" width="512px" height="512px">
<g>
	<g>
		<g>
			<path d="M59.733,128c14.138,0,25.6-11.461,25.6-25.6c-0.015-14.132-11.468-25.585-25.6-25.6c-14.138,0-25.6,11.462-25.6,25.6     S45.595,128,59.733,128z M59.733,93.867c4.713,0,8.533,3.82,8.533,8.533c-0.006,4.71-3.823,8.527-8.533,8.533     c-4.713,0-8.533-3.82-8.533-8.533S55.021,93.867,59.733,93.867z" fill="#fe825a"/>
			<path d="M307.2,93.867H204.8c-4.713,0-8.533,3.82-8.533,8.533s3.82,8.533,8.533,8.533h102.4c4.713,0,8.533-3.82,8.533-8.533     S311.913,93.867,307.2,93.867z" fill="#fe825a"/>
			<path d="M349.867,93.867h-8.533c-4.713,0-8.533,3.82-8.533,8.533s3.821,8.533,8.533,8.533h8.533c4.713,0,8.533-3.82,8.533-8.533     S354.58,93.867,349.867,93.867z" fill="#fe825a"/>
			<path d="M162.133,76.8h-17.067c-4.713,0-8.533,3.82-8.533,8.533s3.82,8.533,8.533,8.533h17.067c4.713,0,8.533-3.821,8.533-8.533     S166.846,76.8,162.133,76.8z" fill="#fe825a"/>
			<path d="M162.133,110.933h-17.067c-4.713,0-8.533,3.82-8.533,8.533s3.82,8.533,8.533,8.533h17.067     c4.713,0,8.533-3.82,8.533-8.533S166.846,110.933,162.133,110.933z" fill="#fe825a"/>
			<path d="M59.733,281.6c14.138,0,25.6-11.462,25.6-25.6c-0.015-14.132-11.468-25.585-25.6-25.6c-14.138,0-25.6,11.461-25.6,25.6     S45.595,281.6,59.733,281.6z M59.733,247.467c4.713,0,8.533,3.82,8.533,8.533c-0.006,4.71-3.823,8.527-8.533,8.533     c-4.713,0-8.533-3.82-8.533-8.533S55.021,247.467,59.733,247.467z" fill="#fe825a"/>
			<path d="M307.2,247.467H204.8c-4.713,0-8.533,3.82-8.533,8.533s3.82,8.533,8.533,8.533h102.4c4.713,0,8.533-3.82,8.533-8.533     S311.913,247.467,307.2,247.467z" fill="#fe825a"/>
			<path d="M349.867,247.467h-8.533c-4.713,0-8.533,3.82-8.533,8.533s3.821,8.533,8.533,8.533h8.533c4.713,0,8.533-3.82,8.533-8.533     S354.58,247.467,349.867,247.467z" fill="#fe825a"/>
			<path d="M162.133,230.4h-17.067c-4.713,0-8.533,3.82-8.533,8.533s3.82,8.533,8.533,8.533h17.067c4.713,0,8.533-3.82,8.533-8.533     S166.846,230.4,162.133,230.4z" fill="#fe825a"/>
			<path d="M162.133,264.533h-17.067c-4.713,0-8.533,3.821-8.533,8.533c0,4.713,3.82,8.533,8.533,8.533h17.067     c4.713,0,8.533-3.821,8.533-8.533C170.667,268.354,166.846,264.533,162.133,264.533z" fill="#fe825a"/>
			<path d="M59.733,435.2c14.138,0,25.6-11.461,25.6-25.6c-0.015-14.132-11.468-25.585-25.6-25.6c-14.138,0-25.6,11.462-25.6,25.6     S45.595,435.2,59.733,435.2z M59.733,401.067c4.713,0,8.533,3.82,8.533,8.533c-0.006,4.71-3.823,8.527-8.533,8.533     c-4.713,0-8.533-3.82-8.533-8.533S55.021,401.067,59.733,401.067z" fill="#fe825a"/>
			<path d="M307.2,401.067H204.8c-4.713,0-8.533,3.82-8.533,8.533s3.82,8.533,8.533,8.533h102.4c4.713,0,8.533-3.82,8.533-8.533     S311.913,401.067,307.2,401.067z" fill="#fe825a"/>
			<path d="M349.867,401.067h-8.533c-4.713,0-8.533,3.82-8.533,8.533s3.821,8.533,8.533,8.533h8.533c4.713,0,8.533-3.82,8.533-8.533     S354.58,401.067,349.867,401.067z" fill="#fe825a"/>
			<path d="M162.133,384h-17.067c-4.713,0-8.533,3.821-8.533,8.533c0,4.713,3.82,8.533,8.533,8.533h17.067     c4.713,0,8.533-3.821,8.533-8.533C170.667,387.821,166.846,384,162.133,384z" fill="#fe825a"/>
			<path d="M162.133,418.133h-17.067c-4.713,0-8.533,3.82-8.533,8.533s3.82,8.533,8.533,8.533h17.067     c4.713,0,8.533-3.82,8.533-8.533S166.846,418.133,162.133,418.133z" fill="#fe825a"/>
			<path d="M494.933,136.533c9.422-0.009,17.057-7.645,17.067-17.067V85.333c-0.009-9.422-7.645-17.057-17.067-17.067h-17.067V8.533     c0-4.713-3.82-8.533-8.533-8.533S460.8,3.82,460.8,8.533v59.733h-17.067c-6.069,0.019-11.669,3.271-14.693,8.533h-36.507V59.733     c-0.009-9.422-7.645-17.057-17.067-17.067h-358.4C7.645,42.676,0.009,50.312,0,59.733v85.333     c0.009,9.422,7.645,17.057,17.067,17.067h358.4c9.422-0.009,17.057-7.645,17.067-17.067V128h36.507     c3.024,5.262,8.624,8.514,14.693,8.533H460.8v85.333h-17.067c-6.069,0.019-11.669,3.271-14.693,8.533h-36.507v-17.067     c-0.009-9.422-7.645-17.057-17.067-17.067h-358.4C7.645,196.276,0.009,203.912,0,213.333v85.333     c0.009,9.422,7.645,17.057,17.067,17.067h358.4c9.422-0.009,17.057-7.645,17.067-17.067V281.6h36.507     c3.024,5.262,8.624,8.514,14.693,8.533H460.8v85.333h-17.067c-6.069,0.019-11.669,3.271-14.693,8.533h-36.507v-17.067     c-0.009-9.422-7.645-17.057-17.067-17.067h-358.4C7.645,349.876,0.009,357.512,0,366.933v85.333     c0.009,9.422,7.645,17.057,17.067,17.067h358.4c9.422-0.009,17.057-7.645,17.067-17.067V435.2h36.507     c3.024,5.262,8.624,8.514,14.693,8.533H460.8v59.733c0,4.713,3.82,8.533,8.533,8.533s8.533-3.82,8.533-8.533v-59.733h17.067     c9.422-0.009,17.057-7.645,17.067-17.067v-34.133c-0.009-9.422-7.645-17.057-17.067-17.067h-17.067v-85.333h17.067     c9.422-0.009,17.057-7.645,17.067-17.067v-34.133c-0.009-9.422-7.645-17.057-17.067-17.067h-17.067v-85.333H494.933z      M102.4,145.067H17.067V59.733H102.4V145.067z M119.467,145.067V59.733h256l0.004,25.581l-0.004,0.019v34.133l0.009,0.043     l0.004,25.557H119.467z M426.667,110.933h-34.133V93.867h34.133V110.933z M102.4,298.667H17.067v-85.333H102.4V298.667z      M119.467,298.667v-85.333h256l0.004,25.581l-0.004,0.019v34.133l0.009,0.043l0.004,25.557H119.467z M426.667,264.533h-34.133     v-17.067h34.133V264.533z M102.4,452.267H17.067v-85.333H102.4V452.267z M119.467,452.267v-85.333h256l0.004,25.581l-0.004,0.019     v34.133l0.009,0.043l0.004,25.557H119.467z M426.667,418.133h-34.133v-17.067h34.133V418.133z M494.933,392.533l0.012,34.133     h-51.212v-34.133H494.933z M494.933,238.933l0.012,34.133h-51.212v-34.133H494.933z M443.733,119.467V85.333h51.2l0.012,34.133     H443.733z" fill="#fe825a"/>
		</g>
	</g>
</g>
<g>
</g>
<g>
</g>
<g>
</g>
<g>
</g>
<g>
</g>
<g>
</g>
<g>
</g>
<g>
</g>
<g>
</g>
<g>
</g>
<g>
</g>
<g>
</g>
<g>
</g>
<g>
</g>
<g>
</g>
</svg>
