<svg width="100" height="100" fill="none" xmlns="http://www.w3.org/2000/svg"><rect id="backgroundrect" width="100%" height="100%" x="0" y="0" fill="none" stroke="none"/>
  
  <defs>
    <clipPath id="a">
      <path fill="#fff" d="M6,0 h89 v100 H6 z" id="svg_1"/>
    </clipPath>
  </defs>
<g class="currentLayer" style=""><title>Layer 1</title><g clip-path="url(#a)" stroke="#1a69d8" stroke-width="3" stroke-miterlimit="10" id="svg_2" class="selected" opacity="1" stroke-opacity="1">
    <path d="M36.139 89.712h4.856a9.524 9.524 0 0 0 3.374 2.832 9.567 9.567 0 0 0 4.293 1.015h16.023M68.164 59.015H57.695l1.524-5.383v-6.099a5.411 5.411 0 0 0-1.599-3.828 5.457 5.457 0 0 0-3.847-1.585h-2.035v8.291l-2.113 2.937-7.864 8.604a9.483 9.483 0 0 0-2.36 4.297h-3.223M62.395 36.247v7.116h19.453v5.844l5.868-5.844h5.81V21.36H71.153" id="svg_3" opacity="1" stroke="#1a69d8"/>
    <path d="M71.33 1.468H22.259v34.7h9.171l9.24 9.202v-9.201h30.66v-34.7ZM57.263 59.328a14.555 14.555 0 0 1 .207 8.879c-2.015 7.096-8.64 11.443-14.794 9.71M79.803 63.361a4.302 4.302 0 0 1-1.276 3.05 4.336 4.336 0 0 1-3.068 1.257h-12.17a4.35 4.35 0 0 1-3.068-1.257 4.316 4.316 0 0 1-1.277-3.05 4.317 4.317 0 0 1 1.276-3.053 4.354 4.354 0 0 1 3.07-1.263h12.169c1.15 0 2.254.454 3.068 1.263a4.317 4.317 0 0 1 1.276 3.053Z" id="svg_4" opacity="1" stroke="#1a69d8"/>
    <path d="M77.483 71.985a4.302 4.302 0 0 1-1.277 3.05 4.339 4.339 0 0 1-3.068 1.257h-12.16a4.351 4.351 0 0 1-3.068-1.257 4.316 4.316 0 0 1-1.276-3.05 4.302 4.302 0 0 1 1.273-3.056 4.337 4.337 0 0 1 3.072-1.26h12.16a4.35 4.35 0 0 1 3.07 1.26 4.317 4.317 0 0 1 1.274 3.056Z" id="svg_5" opacity="1" stroke="#1a69d8"/>
    <path d="M76.323 80.599a4.317 4.317 0 0 1-1.276 3.053 4.354 4.354 0 0 1-3.069 1.264h-12.16a4.355 4.355 0 0 1-3.068-1.264 4.318 4.318 0 0 1-1.276-3.053 4.302 4.302 0 0 1 1.276-3.05 4.337 4.337 0 0 1 3.068-1.257h12.16a4.351 4.351 0 0 1 3.068 1.258 4.313 4.313 0 0 1 1.277 3.049Z" id="svg_6" opacity="1" stroke="#1a69d8"/>
    <path d="M72.854 89.193a4.3 4.3 0 0 1-1.277 3.05 4.337 4.337 0 0 1-3.068 1.257h-8.69a4.344 4.344 0 0 1-3.036-1.274 4.308 4.308 0 0 1-1.26-3.033 4.302 4.302 0 0 1 1.277-3.05 4.336 4.336 0 0 1 3.068-1.257h8.69a4.353 4.353 0 0 1 3.068 1.258 4.316 4.316 0 0 1 1.277 3.05h-.05ZM10.246 64.507h26.069v30.178h-4.227M27.625 92.287a2.401 2.401 0 0 1-1.492 2.224 2.428 2.428 0 0 1-2.636-.522 2.406 2.406 0 0 1-.524-2.624 2.41 2.41 0 0 1 .89-1.08 2.426 2.426 0 0 1 3.054.299c.454.451.708 1.064.708 1.703Z" id="svg_7" opacity="1" stroke="#1a69d8"/>
    <path d="M6 64.507h26.069v34.025H6M32.157 13.86h29.284M32.157 19.068h29.284M32.157 24.276h29.284" id="svg_8" opacity="1" stroke="#1a69d8"/>
  </g></g></svg>