<svg xmlns="http://www.w3.org/2000/svg" viewBox="0 0 500 500"><defs><style>.cls-1{fill:#ee4d9b;}.cls-2{fill:#f6adcd;}.cls-3{fill:#f173ac;}.cls-4{fill:#f68c59;}.cls-5{fill:#ed0f69;}.cls-6{fill:#faa61a;}.cls-7{fill:#f26522;}.cls-8{fill:#ed1a3b;}.cls-9{fill:#d11f5c;}.cls-10{fill:#f58220;}.cls-11{fill:#f04e3e;}.cls-12{fill:#d71920;}.cls-13{fill:#c4161c;}.cls-14{fill:#bb005e;}.cls-15{fill:#f04e23;}.cls-16{fill:#e11b22;}.cls-17{fill:#ba141a;}.cls-18{fill:#8b0018;}.cls-19{fill:#790000;}.cls-20{fill:#fff;}</style></defs><title>rr-favicon</title><g id="Layer_2" data-name="Layer 2"><path id="_Path_" data-name="&lt;Path&gt;" class="cls-1" d="M479.4,174q-5.43.8-10.8,1.76,1.72,3.69,3.36,7.43Z"/><path id="_Compound_Path_" data-name="&lt;Compound Path&gt;" class="cls-2" d="M430.18,44.51c-.11,0-.22-.37-.33-.38l-.91-1.5H357.6c1.48,0,2.94,2.09,4.4,3.17.15,0,.3.14.45.13a341.59,341.59,0,0,1,65,63,342.74,342.74,0,0,1,38.38-2.13c1.32,0,2.64.06,4,.07Zm-34.27-1c2.14-.06,4.29-.1,6.44-.1C400.2,43.37,398.06,43.42,395.91,43.46Z"/><path id="_Path_2" data-name="&lt;Path&gt;" class="cls-3" d="M427.45,109a339.2,339.2,0,0,1,41.15,66.73c3.58-.65,7.18-1.19,10.8-1.72l18.42-22.72h.11l-28.15-44.38c-1.32,0-2.63-.07-4-.07A342.68,342.68,0,0,0,427.45,109Z"/><path id="_Path_3" data-name="&lt;Path&gt;" class="cls-4" d="M250,79.45A336.79,336.79,0,0,1,362,45.81c-1.46-1.08-2.92-3.17-4.4-3.17H142.4c-1.48,0-2.94,2.09-4.4,3.17A336.79,336.79,0,0,1,250,79.45Z"/><path id="_Path_4" data-name="&lt;Path&gt;" class="cls-3" d="M427.45,109A341.13,341.13,0,0,0,362,45.77,336.85,336.85,0,0,0,250,79.45a340,340,0,0,1,79.77,55.82A336.89,336.89,0,0,1,427.45,109Z"/><path id="_Path_5" data-name="&lt;Path&gt;" class="cls-1" d="M385.09,202.45a336.65,336.65,0,0,1,83.51-26.7A339.2,339.2,0,0,0,427.45,109a336.89,336.89,0,0,0-97.68,26.25A340.76,340.76,0,0,1,385.09,202.45Z"/><path id="_Path_6" data-name="&lt;Path&gt;" class="cls-5" d="M412.61,256.49,472,183.18q-1.64-3.74-3.36-7.43a336.65,336.65,0,0,0-83.51,26.7A338,338,0,0,1,412.61,256.49Z"/><path id="_Path_7" data-name="&lt;Path&gt;" class="cls-6" d="M142.4,42.64H71.06l-.91,1.5c-.11,0-.22.19-.33.2l-39.6,62.48c1.32,0,2.63,0,4,0A342.69,342.69,0,0,1,72.55,109a341.08,341.08,0,0,1,65-62.9c.15,0,.3-.32.45-.3C139.46,44.72,140.92,42.64,142.4,42.64Z"/><path id="_Path_8" data-name="&lt;Path&gt;" class="cls-7" d="M250,79.45A336.85,336.85,0,0,0,138,45.77,341.13,341.13,0,0,0,72.55,109a336.89,336.89,0,0,1,97.68,26.25A340,340,0,0,1,250,79.45Z"/><path id="_Path_9" data-name="&lt;Path&gt;" class="cls-8" d="M250,184.37a339.21,339.21,0,0,1,79.77-49.1A340,340,0,0,0,250,79.45a340,340,0,0,0-79.77,55.82A339.21,339.21,0,0,1,250,184.37Z"/><path id="_Path_10" data-name="&lt;Path&gt;" class="cls-5" d="M311,250a339.43,339.43,0,0,1,74.12-47.52,340.76,340.76,0,0,0-55.32-67.19A339.21,339.21,0,0,0,250,184.37,341.12,341.12,0,0,1,311,250Z"/><path id="_Path_11" data-name="&lt;Path&gt;" class="cls-9" d="M353,330.11l59.6-73.62a338,338,0,0,0-27.52-54A339.43,339.43,0,0,0,311,250,338.2,338.2,0,0,1,353,330.11Z"/><path id="_Path_12" data-name="&lt;Path&gt;" class="cls-10" d="M2.18,151.31,20.6,174c3.62.53,7.22,1.09,10.8,1.74A339.29,339.29,0,0,1,72.55,109a342.7,342.7,0,0,0-38.38-2.18c-1.32,0-2.64.07-4,.09L2.07,151.31Z"/><path id="_Path_13" data-name="&lt;Path&gt;" class="cls-11" d="M170.23,135.27A336.89,336.89,0,0,0,72.55,109,339.21,339.21,0,0,0,31.4,175.75a336.65,336.65,0,0,1,83.51,26.7A340.76,340.76,0,0,1,170.23,135.27Z"/><path id="_Path_14" data-name="&lt;Path&gt;" class="cls-12" d="M250,184.37a339.21,339.21,0,0,0-79.77-49.1,340.76,340.76,0,0,0-55.32,67.19A339.43,339.43,0,0,1,189,250,341.12,341.12,0,0,1,250,184.37Z"/><path id="_Path_15" data-name="&lt;Path&gt;" class="cls-13" d="M189,250a341,341,0,0,1,61,67.1A341,341,0,0,1,311,250a341.12,341.12,0,0,0-61-65.6A341.12,341.12,0,0,0,189,250Z"/><path id="_Path_16" data-name="&lt;Path&gt;" class="cls-14" d="M311,250a341,341,0,0,0-61,67.1,337.89,337.89,0,0,1,43.13,87l59.88-74A338.2,338.2,0,0,0,311,250Z"/><path id="_Path_17" data-name="&lt;Path&gt;" class="cls-15" d="M20.6,174,28,183.18q1.64-3.74,3.36-7.43Q26,174.78,20.6,174Z"/><path id="_Path_18" data-name="&lt;Path&gt;" class="cls-16" d="M114.91,202.45a336.65,336.65,0,0,0-83.51-26.7q-1.72,3.69-3.36,7.43l59.35,73.31A338,338,0,0,1,114.91,202.45Z"/><path id="_Path_19" data-name="&lt;Path&gt;" class="cls-17" d="M189,250a339.43,339.43,0,0,0-74.12-47.52,338,338,0,0,0-27.52,54L147,330.11A338.22,338.22,0,0,1,189,250Z"/><path id="_Path_20" data-name="&lt;Path&gt;" class="cls-18" d="M189,250a338.22,338.22,0,0,0-42,80.14l59.88,74a337.88,337.88,0,0,1,43.13-87A341,341,0,0,0,189,250Z"/><path id="_Path_21" data-name="&lt;Path&gt;" class="cls-19" d="M206.87,404.08,250,457.36l43.13-53.28a337.89,337.89,0,0,0-43.13-87A337.88,337.88,0,0,0,206.87,404.08Z"/><path class="cls-20" d="M158.46,270h87.83s-16.79-76.6,38.8-107.62c12.12-5.89,50.7-27.91,113.85,18.79,2-1.67,3.89-3,3.89-3S345,120.47,280.65,126.91c-32.35,2.89-72.15,32.35-95.5,71.26S158.46,270,158.46,270Zm183-136.86.44-7.45c-1-.56-3.78-1.89-10.78-3.89l-.44,7.34C334.34,130.36,337.9,131.69,341.46,133.14ZM330.9,156.71l-.44,7a62,62,0,0,1,11,1.33l.44-6.89A78.73,78.73,0,0,0,330.9,156.71ZM289.76,122h1.11l-2.22-6.78a88.71,88.71,0,0,0-10.67.67l2.11,6.56A93.86,93.86,0,0,1,289.76,122Zm5.34,40.91,2.56,7.67a70.34,70.34,0,0,1,9.67-3.89l-2.45-7.34A80.66,80.66,0,0,0,295.1,162.93ZM244.62,133.7l-5-7.67c-2.78,1.45-5.67,3-8.67,4.78l5.11,7.78C239,136.81,241.73,135.14,244.62,133.7Zm22.79,50,5.34,8a61.73,61.73,0,0,1,6.56-7.89l-5-7.56A61.51,61.51,0,0,0,267.42,183.72Zm-16.12,35.8,9,7.12a88.79,88.79,0,0,1,2.33-13l-8-6.34A105.71,105.71,0,0,0,251.29,219.52Zm-48.7-52.81-7.89-6.89c-2.89,2.78-5.67,5.56-8.23,8.34L195,175.5A112.59,112.59,0,0,1,202.6,166.71ZM169,216.41l-12.79-4.67c-2.11,4.78-4.45,10.34-5.56,13.34l12.79,4.67C164.91,226,167.24,220.52,169,216.41Zm80.6,31.35a113,113,0,0,0,1.33,14l13.34,4.78a147,147,0,0,1-2.67-14.45Z"/></g></svg>