<?xml version="1.0" ?><!DOCTYPE svg  PUBLIC '-//W3C//DTD SVG 1.1//EN'  'http://www.w3.org/Graphics/SVG/1.1/DTD/svg11.dtd'><svg enable-background="new 0 0 48 48" height="48px" version="1.1" viewBox="0 0 48 48" width="48px" xml:space="preserve" xmlns="http://www.w3.org/2000/svg" xmlns:xlink="http://www.w3.org/1999/xlink"><g id="Layer_3"><path d="M7.136,7.135c-9.313,9.313-9.313,24.416,0,33.729c9.313,9.313,24.416,9.313,33.729,0   c9.312-9.313,9.312-24.416,0-33.729C31.552-2.178,16.449-2.178,7.136,7.135z M27.073,27.074c-1.697,1.696-4.451,1.699-6.147,0   c-1.697-1.698-1.697-4.451,0-6.149c1.696-1.699,4.45-1.696,6.147,0C28.771,22.624,28.771,25.376,27.073,27.074z M10.141,37.862   c-3.795-3.796-5.705-8.762-5.738-13.731l10.895-0.005c0.033,2.19,0.871,4.366,2.542,6.037c1.701,1.701,3.931,2.553,6.164,2.551   v10.891C18.986,43.604,13.966,41.688,10.141,37.862z M43.601,23.943L32.717,23.99c-0.002-2.225-0.854-4.451-2.556-6.152   c-1.731-1.731-4.011-2.576-6.28-2.541l0.103-10.902c5.022,0,10.048,1.91,13.878,5.742C41.675,13.949,43.584,18.94,43.601,23.943z" fill="#241F20"/></g></svg>