<svg id="SvgjsSvg1011" width="288" height="288" xmlns="http://www.w3.org/2000/svg" version="1.1" xmlns:xlink="http://www.w3.org/1999/xlink" xmlns:svgjs="http://svgjs.com/svgjs"><defs id="SvgjsDefs1012"></defs><g id="SvgjsG1013"><svg xmlns="http://www.w3.org/2000/svg" width="288" height="288" viewBox="0 0 400 400"><path fill-rule="evenodd" d="M42.578 7.725 C -13.105 23.922,-1.681 106.227,56.250 106.227 C 94.561 106.227,118.322 66.722,100.589 32.511 C 90.130 12.333,64.453 1.362,42.578 7.725 M67.090 21.003 C 92.753 28.990,102.014 63.578,83.218 81.236 L 81.250 83.085 81.250 75.892 C 81.250 65.861,78.565 60.260,72.564 57.774 C 69.878 56.662,69.916 56.965,71.954 52.970 C 76.046 44.950,72.491 33.893,64.490 29.753 C 49.599 22.046,32.987 38.154,40.546 52.970 C 42.584 56.965,42.622 56.662,39.936 57.774 C 33.935 60.260,31.250 65.861,31.250 75.892 L 31.250 83.085 29.282 81.236 C 2.787 56.346,31.855 10.037,67.090 21.003 M59.219 42.344 C 61.677 44.802,59.770 49.219,56.250 49.219 C 53.668 49.219,52.344 47.894,52.344 45.313 C 52.344 42.731,53.668 41.406,56.250 41.406 C 57.367 41.406,58.703 41.828,59.219 42.344 M118.750 56.250 L 118.750 62.500 125.000 62.500 L 131.250 62.500 131.250 56.250 L 131.250 50.000 125.000 50.000 L 118.750 50.000 118.750 56.250 M143.750 56.250 L 143.750 62.500 156.250 62.500 L 168.750 62.500 168.750 128.125 L 168.750 193.750 156.250 193.750 L 143.750 193.750 143.750 200.000 L 143.750 206.250 156.250 206.250 L 168.750 206.250 168.750 271.875 L 168.750 337.500 156.250 337.500 L 143.750 337.500 143.750 343.750 L 143.750 350.000 160.937 350.000 C 177.083 350.000,178.220 349.905,179.687 348.438 C 181.227 346.898,181.250 345.833,181.250 276.563 L 181.250 206.250 200.000 206.250 L 218.750 206.250 218.750 200.000 L 218.750 193.750 200.000 193.750 L 181.250 193.750 181.250 123.438 C 181.250 54.167,181.227 53.102,179.688 51.563 C 178.220 50.095,177.083 50.000,160.938 50.000 L 143.750 50.000 143.750 56.250 M348.047 57.975 C 343.505 60.580,343.483 64.176,347.964 71.852 L 351.371 77.688 333.303 88.439 C 323.365 94.353,315.059 99.195,314.844 99.199 C 314.629 99.203,310.829 93.082,306.399 85.597 C 297.428 70.441,297.219 70.190,293.484 70.084 C 291.386 70.024,234.911 102.207,230.560 105.941 C 229.618 106.749,236.962 117.262,238.155 116.812 C 238.869 116.543,251.035 109.428,265.191 101.001 C 279.347 92.575,291.053 86.001,291.204 86.395 C 291.354 86.788,295.070 93.084,299.460 100.385 C 308.119 114.785,309.969 116.628,314.175 115.040 C 315.919 114.382,350.659 94.016,356.681 90.123 C 358.177 89.155,358.485 89.432,361.351 94.331 C 365.428 101.301,366.575 102.344,370.163 102.344 C 374.510 102.344,374.822 101.941,384.702 83.536 C 395.414 63.581,396.097 60.109,389.744 57.895 C 386.300 56.694,350.159 56.764,348.047 57.975 M66.843 69.858 C 68.181 70.837,68.391 72.153,68.630 81.075 L 68.901 91.183 65.355 92.076 C 60.809 93.220,51.698 93.222,47.161 92.080 L 43.630 91.191 43.885 81.078 C 44.111 72.139,44.317 70.836,45.657 69.857 C 47.804 68.290,64.698 68.291,66.843 69.858 M373.689 75.586 C 372.126 78.486,370.602 81.142,370.303 81.487 C 369.836 82.027,363.281 72.013,363.281 70.762 C 363.281 70.515,366.263 70.313,369.907 70.313 L 376.533 70.313 373.689 75.586 M356.218 127.930 C 356.188 130.674,355.936 130.977,352.232 132.715 C 336.952 139.888,342.614 162.500,359.690 162.500 C 365.585 162.500,367.969 163.400,367.969 165.625 C 367.969 168.862,360.618 169.993,357.813 167.188 C 356.506 165.881,355.208 165.625,349.897 165.625 L 343.544 165.625 343.971 168.806 C 344.609 173.561,347.702 177.659,352.270 179.803 C 355.934 181.522,356.188 181.829,356.218 184.570 L 356.250 187.500 362.500 187.500 L 368.750 187.500 368.782 184.570 C 368.812 181.829,369.066 181.522,372.730 179.803 C 387.996 172.640,382.359 150.000,365.310 150.000 C 359.415 150.000,357.031 149.100,357.031 146.875 C 357.031 143.638,364.382 142.507,367.188 145.313 C 368.494 146.619,369.792 146.875,375.103 146.875 L 381.456 146.875 381.029 143.694 C 380.391 138.939,377.298 134.841,372.730 132.697 C 369.066 130.978,368.812 130.671,368.782 127.930 L 368.750 125.000 362.500 125.000 L 356.250 125.000 356.218 127.930 M298.047 144.897 C 217.960 162.370,230.555 280.855,312.500 280.855 C 355.374 280.855,387.223 244.114,380.900 201.949 L 380.350 198.286 377.480 198.813 C 375.901 199.104,373.025 199.676,371.089 200.085 L 367.568 200.829 367.852 209.766 C 368.368 226.000,363.590 239.112,353.142 250.139 L 347.722 255.859 347.689 243.644 C 347.640 225.484,344.314 218.275,334.014 214.006 L 329.763 212.244 331.301 210.085 C 343.087 193.533,332.369 171.587,312.500 171.587 C 292.631 171.587,281.913 193.533,293.699 210.085 L 295.237 212.244 290.986 214.006 C 280.618 218.303,277.360 225.376,277.311 243.696 L 277.278 255.859 271.858 250.139 C 244.424 221.185,256.331 173.706,294.531 159.729 C 303.396 156.486,320.729 156.104,328.240 158.987 C 329.407 159.435,334.462 147.412,333.479 146.527 C 330.723 144.046,306.961 142.952,298.047 144.897 M42.578 151.475 C -13.105 167.672,-1.681 249.977,56.250 249.977 C 94.561 249.977,118.322 210.472,100.589 176.261 C 90.130 156.083,64.453 145.112,42.578 151.475 M67.090 164.753 C 92.753 172.740,102.014 207.328,83.218 224.986 L 81.250 226.835 81.250 219.642 C 81.250 209.611,78.565 204.010,72.564 201.524 C 69.878 200.412,69.916 200.715,71.954 196.720 C 76.046 188.700,72.491 177.643,64.490 173.503 C 49.599 165.796,32.987 181.904,40.546 196.720 C 42.584 200.715,42.622 200.412,39.936 201.524 C 33.935 204.010,31.250 209.611,31.250 219.642 L 31.250 226.835 29.282 224.986 C 2.787 200.096,31.855 153.787,67.090 164.753 M59.219 186.094 C 61.677 188.552,59.770 192.969,56.250 192.969 C 52.730 192.969,50.823 188.552,53.281 186.094 C 53.797 185.578,55.133 185.156,56.250 185.156 C 57.367 185.156,58.703 185.578,59.219 186.094 M319.623 188.189 C 322.374 190.940,322.656 191.603,322.656 195.313 C 322.656 199.022,322.374 199.685,319.623 202.436 C 312.973 209.086,302.344 204.705,302.344 195.313 C 302.344 191.603,302.626 190.940,305.377 188.189 C 308.128 185.439,308.791 185.156,312.500 185.156 C 316.209 185.156,316.872 185.439,319.623 188.189 M118.750 200.000 L 118.750 206.250 125.000 206.250 L 131.250 206.250 131.250 200.000 L 131.250 193.750 125.000 193.750 L 118.750 193.750 118.750 200.000 M66.843 213.608 C 68.181 214.587,68.391 215.903,68.630 224.825 L 68.901 234.933 65.355 235.826 C 60.809 236.970,51.698 236.972,47.161 235.830 L 43.630 234.941 43.885 224.828 C 44.111 215.889,44.317 214.586,45.657 213.607 C 47.804 212.040,64.698 212.041,66.843 213.608 M329.984 226.819 C 333.839 229.346,334.375 232.026,334.375 248.781 L 334.375 264.018 329.051 265.635 C 318.276 268.907,306.301 268.914,295.898 265.653 L 290.625 264.000 290.625 248.772 C 290.625 224.920,290.569 224.977,314.098 225.238 C 325.895 225.369,328.110 225.590,329.984 226.819 M42.578 295.225 C -13.105 311.422,-1.681 393.727,56.250 393.727 C 94.561 393.727,118.322 354.222,100.589 320.011 C 90.130 299.833,64.453 288.862,42.578 295.225 M67.090 308.503 C 92.753 316.490,102.014 351.078,83.218 368.736 L 81.250 370.585 81.250 363.392 C 81.250 353.361,78.565 347.760,72.564 345.274 C 69.878 344.162,69.916 344.465,71.954 340.470 C 76.046 332.450,72.491 321.393,64.490 317.253 C 49.599 309.546,32.987 325.654,40.546 340.470 C 42.584 344.465,42.622 344.162,39.936 345.274 C 33.935 347.760,31.250 353.361,31.250 363.392 L 31.250 370.585 29.282 368.736 C 2.787 343.846,31.855 297.537,67.090 308.503 M59.219 329.844 C 61.677 332.302,59.770 336.719,56.250 336.719 C 53.668 336.719,52.344 335.394,52.344 332.813 C 52.344 330.231,53.668 328.906,56.250 328.906 C 57.367 328.906,58.703 329.328,59.219 329.844 M118.750 343.750 L 118.750 350.000 125.000 350.000 L 131.250 350.000 131.250 343.750 L 131.250 337.500 125.000 337.500 L 118.750 337.500 118.750 343.750 M66.843 357.358 C 68.181 358.337,68.391 359.653,68.630 368.575 L 68.901 378.683 65.355 379.576 C 60.809 380.720,51.698 380.722,47.161 379.580 L 43.630 378.691 43.885 368.578 C 44.111 359.639,44.317 358.336,45.657 357.357 C 47.804 355.790,64.698 355.791,66.843 357.358 " fill="#2d6cdf" class="color000 svgShape"></path></svg></g></svg>