<svg id="SvgjsSvg1001" width="288" height="288" xmlns="http://www.w3.org/2000/svg" version="1.1" xmlns:xlink="http://www.w3.org/1999/xlink" xmlns:svgjs="http://svgjs.com/svgjs"><defs id="SvgjsDefs1002"></defs><g id="SvgjsG1008"><svg xmlns="http://www.w3.org/2000/svg" width="288" height="288" viewBox="0 0 400 400"><path fill-rule="evenodd" d="M64.319 7.757 C 56.202 10.687,50.270 16.095,46.261 24.219 L 44.141 28.516 43.930 104.793 L 43.720 181.069 36.118 181.402 C 23.658 181.947,14.262 187.971,8.939 198.828 L 6.641 203.516 6.641 268.750 L 6.641 333.984 8.939 338.672 C 11.874 344.658,17.850 350.636,23.828 353.564 L 28.516 355.859 72.116 356.080 L 115.716 356.300 135.788 373.562 C 158.125 392.772,159.614 393.716,167.578 393.716 C 181.748 393.716,187.500 386.199,187.500 367.678 L 187.500 356.400 198.242 356.130 C 213.898 355.736,222.672 350.684,228.561 338.672 L 230.859 333.984 231.074 276.367 L 231.289 218.750 248.473 218.750 L 265.658 218.750 285.759 236.037 C 308.126 255.273,309.613 256.216,317.578 256.216 C 331.754 256.216,337.500 248.700,337.500 230.158 L 337.500 218.859 354.492 218.609 L 371.484 218.359 376.172 216.061 C 382.154 213.128,388.128 207.154,391.061 201.172 L 393.359 196.484 393.359 112.500 L 393.359 28.516 391.061 23.828 C 388.128 17.846,382.154 11.872,376.172 8.939 L 371.484 6.641 219.922 6.469 C 73.689 6.304,68.217 6.349,64.319 7.757 M369.531 20.773 C 373.782 22.747,378.332 27.609,379.789 31.734 C 381.376 36.227,381.376 188.773,379.789 193.266 C 376.034 203.895,371.004 205.781,345.508 206.115 L 325.000 206.384 324.996 220.575 C 324.990 239.606,323.859 242.969,317.464 242.969 C 314.593 242.969,316.270 244.261,290.864 222.480 L 271.962 206.276 251.467 206.068 L 230.971 205.859 230.382 203.655 C 230.058 202.442,228.887 199.718,227.779 197.600 L 225.766 193.750 297.258 193.750 L 368.750 193.750 368.750 170.437 C 368.750 143.391,368.190 139.826,361.998 127.470 C 356.285 116.070,343.461 103.630,332.922 99.264 L 330.442 98.237 333.831 94.615 C 356.493 70.387,339.457 31.250,306.250 31.250 C 272.813 31.250,255.506 72.256,279.237 95.255 L 281.999 97.931 276.151 101.114 C 272.935 102.865,268.521 105.834,266.342 107.712 L 262.380 111.128 259.901 108.767 C 257.029 106.033,248.902 100.706,245.370 99.243 L 242.942 98.237 246.331 94.615 C 269.022 70.356,251.956 31.250,218.678 31.250 C 185.541 31.250,168.537 70.419,191.169 94.615 L 194.558 98.237 192.130 99.243 C 188.633 100.691,180.483 106.022,177.666 108.702 L 175.253 110.998 171.025 107.526 C 168.700 105.616,164.255 102.676,161.147 100.994 L 155.498 97.934 158.261 95.256 C 178.092 76.037,168.969 40.290,142.241 32.489 C 105.406 21.736,77.517 66.656,103.669 94.615 L 107.058 98.237 104.578 99.264 C 94.039 103.630,81.215 116.070,75.502 127.470 C 69.664 139.120,68.750 144.090,68.750 164.187 L 68.750 181.250 62.477 181.250 L 56.204 181.250 56.422 107.617 C 56.665 25.681,56.308 31.015,61.954 25.129 C 68.358 18.453,56.181 18.920,220.703 19.037 L 366.016 19.141 369.531 20.773 M74.407 32.808 C 68.939 36.142,68.756 37.033,68.753 60.352 L 68.750 81.250 75.000 81.250 L 81.250 81.250 81.250 62.500 L 81.250 43.750 87.500 43.750 L 93.750 43.750 93.750 37.500 L 93.750 31.250 85.352 31.253 C 78.350 31.255,76.530 31.514,74.407 32.808 M356.250 37.500 L 356.250 43.750 362.500 43.750 L 368.750 43.750 368.750 37.500 L 368.750 31.250 362.500 31.250 L 356.250 31.250 356.250 37.500 M142.025 46.773 C 156.858 54.426,160.107 74.268,148.438 85.938 C 133.777 100.598,108.542 91.273,107.212 70.703 C 105.984 51.713,125.542 38.268,142.025 46.773 M229.525 46.773 C 244.358 54.426,247.607 74.268,235.938 85.938 C 221.277 100.598,196.042 91.273,194.712 70.703 C 193.484 51.713,213.042 38.268,229.525 46.773 M317.025 46.773 C 331.858 54.426,335.107 74.268,323.438 85.938 C 308.777 100.598,283.542 91.273,282.212 70.703 C 280.984 51.713,300.542 38.268,317.025 46.773 M356.250 62.500 L 356.250 68.750 362.500 68.750 L 368.750 68.750 368.750 62.500 L 368.750 56.250 362.500 56.250 L 356.250 56.250 356.250 62.500 M356.250 87.500 L 356.250 93.750 362.500 93.750 L 368.750 93.750 368.750 87.500 L 368.750 81.250 362.500 81.250 L 356.250 81.250 356.250 87.500 M68.750 100.000 L 68.750 106.250 75.000 106.250 L 81.250 106.250 81.250 100.000 L 81.250 93.750 75.000 93.750 L 68.750 93.750 68.750 100.000 M139.258 107.446 C 143.396 107.961,143.676 108.596,141.410 112.312 C 136.595 120.210,125.172 119.787,120.722 111.546 C 118.798 107.984,118.967 107.828,125.513 107.118 C 130.848 106.539,132.253 106.573,139.258 107.446 M314.258 107.446 C 318.396 107.961,318.676 108.596,316.410 112.312 C 311.595 120.210,300.172 119.787,295.722 111.546 C 293.798 107.984,293.967 107.828,300.513 107.118 C 305.848 106.539,307.253 106.573,314.258 107.446 M219.885 110.352 C 220.132 112.178,221.223 122.616,222.309 133.549 L 224.283 153.426 221.516 156.192 L 218.750 158.958 215.984 156.192 L 213.217 153.426 215.191 133.549 C 217.627 109.021,217.894 107.031,218.750 107.031 C 219.127 107.031,219.638 108.525,219.885 110.352 M203.904 111.133 C 203.903 112.100,202.850 123.262,201.565 135.938 L 199.227 158.984 208.989 168.746 L 218.750 178.508 228.506 168.746 L 238.262 158.984 235.809 134.559 C 234.461 121.124,233.609 109.881,233.916 109.574 C 234.896 108.593,247.126 115.430,251.725 119.529 C 264.405 130.831,268.703 143.613,268.736 170.117 L 268.750 181.250 218.750 181.250 L 168.750 181.250 168.764 170.117 C 168.790 148.363,170.742 139.424,177.777 128.842 C 184.841 118.217,203.911 105.291,203.904 111.133 M113.355 124.109 C 125.387 136.140,147.071 132.418,154.091 117.116 C 156.060 112.824,156.012 112.817,163.001 118.451 L 166.236 121.059 162.788 127.912 C 157.180 139.060,156.250 144.219,156.250 164.187 L 156.250 181.250 118.634 181.250 L 81.018 181.250 81.490 165.039 C 82.238 139.310,86.969 127.948,101.521 116.930 L 106.504 113.158 108.361 117.064 C 109.382 119.213,111.629 122.383,113.355 124.109 M288.355 124.109 C 300.424 136.177,321.811 132.483,329.139 117.064 L 330.996 113.158 335.979 116.930 C 350.531 127.948,355.262 139.310,356.010 165.039 L 356.482 181.250 318.866 181.250 L 281.250 181.250 281.250 164.187 C 281.250 144.237,280.319 139.058,274.737 127.962 L 271.315 121.159 272.962 119.666 C 273.868 118.845,276.169 117.063,278.076 115.706 L 281.543 113.239 283.380 117.105 C 284.391 119.232,286.629 122.383,288.355 124.109 M207.031 195.773 C 211.282 197.747,215.832 202.609,217.289 206.734 C 218.159 209.199,218.359 220.788,218.359 268.750 C 218.359 333.805,218.549 331.210,213.382 336.946 C 208.414 342.462,205.573 343.247,189.258 343.607 L 175.000 343.921 174.996 358.093 C 174.990 377.105,173.857 380.469,167.464 380.469 C 164.593 380.469,166.266 381.757,140.891 360.004 L 122.017 343.823 78.001 343.591 C 28.215 343.329,30.073 343.558,24.118 336.946 C 18.951 331.210,19.141 333.805,19.141 268.750 C 19.141 203.777,18.961 206.272,24.059 200.629 C 30.479 193.522,24.823 193.908,120.703 194.033 C 202.946 194.140,203.540 194.152,207.031 195.773 M130.078 209.421 C 113.962 220.308,100.175 224.088,74.219 224.736 C 45.843 225.445,43.784 227.576,43.784 256.250 C 43.784 281.475,47.538 287.500,63.256 287.500 L 68.750 287.500 68.767 302.539 C 68.792 324.582,73.143 331.250,87.500 331.250 C 101.307 331.250,106.207 324.354,106.233 304.883 C 106.244 296.687,106.536 292.188,107.056 292.188 C 109.448 292.188,121.111 297.528,127.585 301.588 L 135.020 306.250 151.861 306.250 L 168.702 306.250 168.921 296.765 L 169.141 287.279 172.458 286.301 C 200.613 277.999,200.613 234.501,172.458 226.199 L 169.141 225.221 168.921 215.735 L 168.702 206.250 151.734 206.252 L 134.766 206.255 130.078 209.421 M156.250 256.250 L 156.250 293.750 150.000 293.750 L 143.750 293.750 143.750 256.250 L 143.750 218.750 150.000 218.750 L 156.250 218.750 156.250 256.250 M131.250 256.250 C 131.250 273.438,131.065 287.500,130.840 287.500 C 130.614 287.500,128.065 286.316,125.176 284.868 C 110.900 277.716,97.828 275.000,77.682 275.000 C 56.104 275.000,56.250 275.127,56.250 256.250 C 56.250 237.373,56.104 237.500,77.682 237.500 C 97.818 237.500,111.200 234.720,125.000 227.671 C 127.793 226.244,130.342 225.060,130.664 225.038 C 130.986 225.017,131.250 239.063,131.250 256.250 M175.546 243.879 C 183.701 252.380,181.334 266.887,170.898 272.352 L 168.750 273.478 168.750 256.250 L 168.750 239.022 170.898 240.148 C 172.080 240.767,174.172 242.446,175.546 243.879 M193.750 300.000 L 193.750 318.750 187.500 318.750 L 181.250 318.750 181.250 325.000 L 181.250 331.250 189.648 331.247 C 205.587 331.242,206.243 330.092,206.247 302.148 L 206.250 281.250 200.000 281.250 L 193.750 281.250 193.750 300.000 M91.992 288.712 C 96.313 289.646,94.003 316.506,89.505 317.635 C 82.812 319.315,81.250 315.946,81.249 299.830 L 81.248 287.891 85.741 288.112 C 88.212 288.233,91.025 288.504,91.992 288.712 " fill="#2d6cdf" class="color000 svgShape"></path></svg></g></svg>