<?xml version="1.0" encoding="iso-8859-1"?>
<!-- Generator: Adobe Illustrator 19.0.0, SVG Export Plug-In . SVG Version: 6.00 Build 0)  -->
<svg xmlns="http://www.w3.org/2000/svg" xmlns:xlink="http://www.w3.org/1999/xlink" version="1.1" id="Capa_1" x="0px" y="0px" viewBox="0 0 496 496" style="enable-background:new 0 0 496 496;" xml:space="preserve" width="512px" height="512px">
<g>
	<g>
		<path d="M496,293.856v-59.72l-29.944-9.472c-2.6-8.616-6.04-16.936-10.28-24.832l14.472-27.856l-42.232-42.232l-27.856,14.48    c-7.896-4.232-16.208-7.68-24.832-10.28L365.856,104H328V88h16V0H0v88h16v32H0v88h16v32H0v88h216v-0.296    c0.08,0.152,0.136,0.312,0.216,0.464l-14.472,27.856l42.232,42.232l27.976-14.536c9.584,4.736,22.424,9.152,32.04,11.968V464    c0,17.648,14.352,32,32,32s32-14.352,32-32v-68.104l1.2-0.184l0.8-0.16c10.528-2.72,20.656-6.672,30.168-11.776l27.856,14.48    l42.232-42.232l-14.472-27.856c4.24-7.896,7.68-16.216,10.28-24.832L496,293.856z M16,16h312v56H16V16z M32,120V88h280v16h-5.856    l-5.064,16H32z M290.888,136c-6.544,2.304-12.952,4.952-19.056,8.216L256.024,136H290.888z M16,136h221.72l-35.976,35.976    l10.4,20.024H16V136z M212.352,208c-2.456,5.424-4.688,10.952-6.408,16.672L176,234.144V240H32v-32H212.352z M16,312v-56h160    v37.856l29.944,9.472c0.888,2.944,2.008,5.8,3.088,8.672H16z M352,464c0,8.824-7.176,16-16,16c-8.824,0-16-7.176-16-16v-16h32V464    z M357,315.504l-5,2.024V432h-32V317.528l-5-2.024c-21.264-8.616-35-28.984-35-51.888c0-17.952,8.608-33.112,24-42.944V256    c0,17.648,14.352,32,32,32s32-14.352,32-32v-35.328c15.392,9.832,24,24.992,24,42.944C392,286.52,378.264,306.888,357,315.504z     M368,328.096c24.472-12.112,40-36.856,40-64.48c0-28.288-16.824-52-45-63.416l-11-4.456V256c0,8.824-7.176,16-16,16    c-8.824,0-16-7.176-16-16v-60.256l-11,4.464c-28.176,11.408-45,35.12-45,63.408c0,27.616,15.528,52.368,40,64.48v17.84    c-33.416-13.016-56-45.304-56-81.928c0-48.52,39.48-88,88-88c48.52,0,88,39.48,88,88c0,36.624-22.584,68.92-56,81.928V328.096z     M453.608,288l-1.544,6c-2.808,10.872-7.104,21.248-12.768,30.848l-3.16,5.344l5.56,5.552l8.96,17.24L425,378.64l-17.24-8.952    l-5.56-5.552l-5.336,3.152c-9.008,5.32-18.712,9.384-28.856,12.192v-16.576c42.68-13.768,72-53.536,72-98.904    c0-57.344-46.656-104-104-104s-104,46.656-104,104c0,45.376,29.32,85.144,72,98.904v16.072c-10.552-3.312-22.2-7.76-28.856-11.696    l-5.336-3.152l-5.56,5.552l-17.24,8.952l-25.656-25.656l8.96-17.24l5.56-5.552l-3.16-5.344c-5.664-9.6-9.968-19.976-12.768-30.848    l-1.56-5.992h-7.864L192,282.144v-36.28L210.528,240h7.864l1.544-6c2.808-10.872,7.104-21.248,12.768-30.848l3.16-5.344    l-5.56-5.552l-8.96-17.24L247,149.36l17.24,8.952l5.56,5.552l5.336-3.152c9.6-5.664,19.976-9.96,30.856-12.768l6.008-1.552v-7.864    L317.856,120h36.28L360,138.52v7.864l6,1.552c10.88,2.808,21.256,7.104,30.856,12.768l5.336,3.152l5.56-5.552l17.24-8.952    l25.656,25.656l-8.96,17.24l-5.56,5.552l3.16,5.344c5.664,9.6,9.968,19.976,12.768,30.848l1.552,6.008h7.864L480,245.856v36.28    L461.472,288H453.608z" fill="#fe825a"/>
	</g>
</g>
<g>
	<g>
		<rect x="32" y="32" width="16" height="16" fill="#fe825a"/>
	</g>
</g>
<g>
	<g>
		<rect x="64" y="32" width="16" height="16" fill="#fe825a"/>
	</g>
</g>
<g>
	<g>
		<rect x="96" y="32" width="16" height="16" fill="#fe825a"/>
	</g>
</g>
<g>
	<g>
		<rect x="32" y="152" width="16" height="16" fill="#fe825a"/>
	</g>
</g>
<g>
	<g>
		<rect x="64" y="152" width="16" height="16" fill="#fe825a"/>
	</g>
</g>
<g>
	<g>
		<rect x="96" y="152" width="16" height="16" fill="#fe825a"/>
	</g>
</g>
<g>
	<g>
		<rect x="32" y="272" width="16" height="16" fill="#fe825a"/>
	</g>
</g>
<g>
	<g>
		<rect x="64" y="272" width="16" height="16" fill="#fe825a"/>
	</g>
</g>
<g>
	<g>
		<rect x="96" y="272" width="16" height="16" fill="#fe825a"/>
	</g>
</g>
<g>
</g>
<g>
</g>
<g>
</g>
<g>
</g>
<g>
</g>
<g>
</g>
<g>
</g>
<g>
</g>
<g>
</g>
<g>
</g>
<g>
</g>
<g>
</g>
<g>
</g>
<g>
</g>
<g>
</g>
</svg>
