<svg data-name="Situ Logo" xmlns="http://www.w3.org/2000/svg" width="100" height="40.217"><path data-name="Path 1" d="M69.409 11.409V1.024h-26.45v10.385l7.349-.431.038 28.6h11.637l-.038-28.6z" fill="#221734"/><path data-name="Path 2" d="M40.328 1.024H28.465l.462 38.557h11.637z" fill="#221734"/><path data-name="Path 3" d="M88.817 1.024v23.183c0 4.324-.972 6.132-2.7 6.159a.088.088 0 01-.017 0h-.011c-1.881.029-2.9-1.835-2.9-6.159V1.024h-11.1l-.05 24.54c0 10.232 5.623 14.607 14.057 14.607 8.288 0 13.913-4.375 13.913-14.607V1.024z" fill="#221734"/><path data-name="Path 4" d="M13.093 3.924a1.682 1.682 0 11-1.763 1.68 1.724 1.724 0 011.763-1.68m-2.623 9.6c.009-3.192 1.318-4.722 2.55-4.722 1.253 0 2.813 1.151 2.813 6.192h9.734c1-12.35-5.2-15-12.76-15C3.786-.006.001 4.937.001 12.418c0 13.038 16.286 13.137 16.347 16.255.1 5.2-13.809-1.366-16.081-7.337a.727.727 0 00-.064-.156c-.069-.049-.073.156-.073.157V33.59c2.052 2.956 6.466 6.62 13.992 6.62 7.831 0 12.03-3.211 12.03-12.605 0-10.811-15.692-9.915-15.682-14.09" fill="#221734"/></svg>